  0
SECTION
  2
HEADER
  9
$ACADVER
  1
AC1015
  9
$ACADMAINTVER
 70
     6
  9
$DWGCODEPAGE
  3
ANSI_1252
  9
$INSBASE
 10
0.0
 20
0.0
 30
0.0
  9
$EXTMIN
 10
0.0
 20
0.0
 30
0.0
  9
$EXTMAX
 10
23.3858267717
 20
16.5354330709
 30
0.0
  9
$LIMMIN
 10
0.0
 20
0.0
  9
$LIMMAX
 10
23.3858267717
 20
16.5354330709
  9
$ORTHOMODE
 70
     0
  9
$REGENMODE
 70
     1
  9
$FILLMODE
 70
     1
  9
$QTEXTMODE
 70
     0
  9
$MIRRTEXT
 70
     1
  9
$LTSCALE
 40
1.0
  9
$ATTMODE
 70
     1
  9
$TEXTSIZE
 40
0.1377952756
  9
$TRACEWID
 40
0.05
  9
$TEXTSTYLE
  7
Standard
  9
$CLAYER
  8
0
  9
$CELTYPE
  6
ByLayer
  9
$CECOLOR
 62
   256
  9
$CELTSCALE
 40
1.0
  9
$DISPSILH
 70
     0
  9
$DIMSCALE
 40
1.0
  9
$DIMASZ
 40
0.13
  9
$DIMEXO
 40
0.0393700787
  9
$DIMDLI
 40
0.38
  9
$DIMRND
 40
0.0
  9
$DIMDLE
 40
0.0
  9
$DIMEXE
 40
0.0393700787
  9
$DIMTP
 40
0.0
  9
$DIMTM
 40
0.0
  9
$DIMTXT
 40
0.1377952756
  9
$DIMCEN
 40
0.09
  9
$DIMTSZ
 40
0.0
  9
$DIMTOL
 70
     0
  9
$DIMLIM
 70
     0
  9
$DIMTIH
 70
     1
  9
$DIMTOH
 70
     1
  9
$DIMSE1
 70
     0
  9
$DIMSE2
 70
     0
  9
$DIMTAD
 70
     1
  9
$DIMZIN
 70
     0
  9
$DIMBLK
  1

  9
$DIMASO
 70
     1
  9
$DIMSHO
 70
     1
  9
$DIMPOST
  1

  9
$DIMAPOST
  1

  9
$DIMALT
 70
     0
  9
$DIMALTD
 70
     2
  9
$DIMALTF
 40
25.4
  9
$DIMLFAC
 40
2.0
  9
$DIMTOFL
 70
     0
  9
$DIMTVP
 40
0.0
  9
$DIMTIX
 70
     0
  9
$DIMSOXD
 70
     0
  9
$DIMSAH
 70
     0
  9
$DIMBLK1
  1

  9
$DIMBLK2
  1

  9
$DIMSTYLE
  2
Standard
  9
$DIMCLRD
 70
     0
  9
$DIMCLRE
 70
     0
  9
$DIMCLRT
 70
     0
  9
$DIMTFAC
 40
1.0
  9
$DIMGAP
 40
0.06
  9
$DIMJUST
 70
     0
  9
$DIMSD1
 70
     0
  9
$DIMSD2
 70
     0
  9
$DIMTOLJ
 70
     1
  9
$DIMTZIN
 70
     0
  9
$DIMALTZ
 70
     0
  9
$DIMALTTZ
 70
     0
  9
$DIMUPT
 70
     0
  9
$DIMDEC
 70
     2
  9
$DIMTDEC
 70
     2
  9
$DIMALTU
 70
     2
  9
$DIMALTTD
 70
     2
  9
$DIMTXSTY
  7
Standard
  9
$DIMAUNIT
 70
     0
  9
$DIMADEC
 70
     2
  9
$DIMALTRND
 40
0.0
  9
$DIMAZIN
 70
     0
  9
$DIMDSEP
 70
    46
  9
$DIMATFIT
 70
     3
  9
$DIMFRAC
 70
     0
  9
$DIMLDRBLK
  1

  9
$DIMLUNIT
 70
     2
  9
$DIMLWD
 70
    -2
  9
$DIMLWE
 70
    -2
  9
$DIMTMOVE
 70
     0
  9
$LUNITS
 70
     2
  9
$LUPREC
 70
     2
  9
$SKETCHINC
 40
0.1
  9
$FILLETRAD
 40
0.5
  9
$AUNITS
 70
     0
  9
$AUPREC
 70
     2
  9
$MENU
  1
.
  9
$ELEVATION
 40
0.0
  9
$PELEVATION
 40
0.0
  9
$THICKNESS
 40
0.0
  9
$LIMCHECK
 70
     0
  9
$CHAMFERA
 40
0.0
  9
$CHAMFERB
 40
0.0
  9
$CHAMFERC
 40
0.0
  9
$CHAMFERD
 40
0.0
  9
$SKPOLY
 70
     0
  9
$TDCREATE
 40
2457729.637074028
  9
$TDUCREATE
 40
2457729.845407361
  9
$TDUPDATE
 40
2457729.637080741
  9
$TDUUPDATE
 40
2457729.845414074
  9
$TDINDWG
 40
0.0000000116
  9
$TDUSRTIMER
 40
0.0000000116
  9
$USRTIMER
 70
     1
  9
$ANGBASE
 50
0.0
  9
$ANGDIR
 70
     0
  9
$PDMODE
 70
     0
  9
$PDSIZE
 40
-1.0
  9
$PLINEWID
 40
0.0
  9
$SPLFRAME
 70
     0
  9
$SPLINETYPE
 70
     6
  9
$SPLINESEGS
 70
     8
  9
$HANDSEED
  5
279
  9
$SURFTAB1
 70
     6
  9
$SURFTAB2
 70
     6
  9
$SURFTYPE
 70
     6
  9
$SURFU
 70
     6
  9
$SURFV
 70
     6
  9
$UCSBASE
  2

  9
$UCSNAME
  2

  9
$UCSORG
 10
0.0
 20
0.0
 30
0.0
  9
$UCSXDIR
 10
1.0
 20
0.0
 30
0.0
  9
$UCSYDIR
 10
0.0
 20
1.0
 30
0.0
  9
$UCSORTHOREF
  2

  9
$UCSORTHOVIEW
 70
     0
  9
$UCSORGTOP
 10
0.0
 20
0.0
 30
0.0
  9
$UCSORGBOTTOM
 10
0.0
 20
0.0
 30
0.0
  9
$UCSORGLEFT
 10
0.0
 20
0.0
 30
0.0
  9
$UCSORGRIGHT
 10
0.0
 20
0.0
 30
0.0
  9
$UCSORGFRONT
 10
0.0
 20
0.0
 30
0.0
  9
$UCSORGBACK
 10
0.0
 20
0.0
 30
0.0
  9
$PUCSBASE
  2

  9
$PUCSNAME
  2

  9
$PUCSORG
 10
0.0
 20
0.0
 30
0.0
  9
$PUCSXDIR
 10
1.0
 20
0.0
 30
0.0
  9
$PUCSYDIR
 10
0.0
 20
1.0
 30
0.0
  9
$PUCSORTHOREF
  2

  9
$PUCSORTHOVIEW
 70
     0
  9
$PUCSORGTOP
 10
0.0
 20
0.0
 30
0.0
  9
$PUCSORGBOTTOM
 10
0.0
 20
0.0
 30
0.0
  9
$PUCSORGLEFT
 10
0.0
 20
0.0
 30
0.0
  9
$PUCSORGRIGHT
 10
0.0
 20
0.0
 30
0.0
  9
$PUCSORGFRONT
 10
0.0
 20
0.0
 30
0.0
  9
$PUCSORGBACK
 10
0.0
 20
0.0
 30
0.0
  9
$USERI1
 70
     0
  9
$USERI2
 70
     0
  9
$USERI3
 70
     0
  9
$USERI4
 70
     0
  9
$USERI5
 70
     0
  9
$USERR1
 40
0.0
  9
$USERR2
 40
0.0
  9
$USERR3
 40
0.0
  9
$USERR4
 40
0.0
  9
$USERR5
 40
0.0
  9
$WORLDVIEW
 70
     1
  9
$SHADEDGE
 70
     3
  9
$SHADEDIF
 70
    70
  9
$TILEMODE
 70
     1
  9
$MAXACTVP
 70
    64
  9
$PINSBASE
 10
0.0
 20
0.0
 30
0.0
  9
$PLIMCHECK
 70
     0
  9
$PEXTMIN
 10
1.0000000000E+20
 20
1.0000000000E+20
 30
1.0000000000E+20
  9
$PEXTMAX
 10
-1.0000000000E+20
 20
-1.0000000000E+20
 30
-1.0000000000E+20
  9
$PLIMMIN
 10
0.0
 20
0.0
  9
$PLIMMAX
 10
12.0
 20
9.0
  9
$UNITMODE
 70
     0
  9
$VISRETAIN
 70
     1
  9
$PLINEGEN
 70
     0
  9
$PSLTSCALE
 70
     1
  9
$TREEDEPTH
 70
  3020
  9
$CMLSTYLE
  2
Standard
  9
$CMLJUST
 70
     0
  9
$CMLSCALE
 40
1.0
  9
$PROXYGRAPHICS
 70
     1
  9
$MEASUREMENT
 70
     0
  9
$CELWEIGHT
370
    -1
  9
$ENDCAPS
280
     0
  9
$JOINSTYLE
280
     0
  9
$LWDISPLAY
290
     1
  9
$INSUNITS
 70
     1
  9
$HYPERLINKBASE
  1

  9
$STYLESHEET
  1

  9
$XEDIT
290
     1
  9
$CEPSNTYPE
380
     0
  9
$PSTYLEMODE
290
     1
  9
$FINGERPRINTGUID
  2
{2A36EF0F-3F79-4E52-9BE5-BCE724DE4F28}
  9
$VERSIONGUID
  2
{FAEB1C32-E019-11D5-929B-00C0DF256EC4}
  9
$EXTNAMES
290
     1
  9
$PSVPSCALE
 40
0.0
  9
$OLESTARTUP
290
     0
  0
ENDSEC
  0
SECTION
  2
CLASSES
  0
CLASS
  1
ACDBDICTIONARYWDFLT
  2
AcDbDictionaryWithDefault
  3
ObjectDBX Classes
 90
        0
280
     0
281
     0
  0
CLASS
  1
VISUALSTYLE
  2
AcDbVisualStyle
  3
ObjectDBX Classes
 90
     4095
280
     0
281
     0
  0
CLASS
  1
MATERIAL
  2
AcDbMaterial
  3
ObjectDBX Classes
 90
     1153
280
     0
281
     0
  0
CLASS
  1
SCALE
  2
AcDbScale
  3
ObjectDBX Classes
 90
     1153
280
     0
281
     0
  0
CLASS
  1
TABLESTYLE
  2
AcDbTableStyle
  3
ObjectDBX Classes
 90
     4095
280
     0
281
     0
  0
CLASS
  1
MLEADERSTYLE
  2
AcDbMLeaderStyle
  3
ACDB_MLEADERSTYLE_CLASS
 90
     4095
280
     0
281
     0
  0
CLASS
  1
SUN
  2
AcDbSun
  3
SCENEOE
 90
     1153
280
     0
281
     0
  0
CLASS
  1
ACDBPLACEHOLDER
  2
AcDbPlaceHolder
  3
ObjectDBX Classes
 90
        0
280
     0
281
     0
  0
CLASS
  1
LAYOUT
  2
AcDbLayout
  3
ObjectDBX Classes
 90
        0
280
     0
281
     0
  0
ENDSEC
  0
SECTION
  2
TABLES
  0
TABLE
  2
VPORT
  5
8
330
0
100
AcDbSymbolTable
 70
     1
  0
VPORT
  5
29
330
8
100
AcDbSymbolTableRecord
100
AcDbViewportTableRecord
  2
*Active
 70
     0
 10
0.0
 20
0.0
 11
1.0
 21
1.0
 12
11.6929133858
 22
8.2677165354
 13
0.0
 23
0.0
 14
0.5
 24
0.5
 15
0.5
 25
0.5
 16
0.0
 26
0.0
 36
1.0
 17
0.0
 27
0.0
 37
0.0
 40
16.5354330709
 41
1.4142857143
 42
50.0
 43
0.0
 44
0.0
 50
0.0
 51
0.0
 71
     0
 72
  2000
 73
     1
 74
     3
 75
     0
 76
     0
 77
     0
 78
     0
281
     0
 65
     1
110
0.0
120
0.0
130
0.0
111
1.0
121
0.0
131
0.0
112
0.0
122
1.0
132
0.0
 79
     0
146
0.0
  0
ENDTAB
  0
TABLE
  2
LTYPE
  5
5
330
0
100
AcDbSymbolTable
 70
     6
  0
LTYPE
  5
14
330
5
100
AcDbSymbolTableRecord
100
AcDbLinetypeTableRecord
  2
ByBlock
 70
     0
  3

 72
    65
 73
     0
 40
0.0
  0
LTYPE
  5
15
330
5
100
AcDbSymbolTableRecord
100
AcDbLinetypeTableRecord
  2
ByLayer
 70
     0
  3

 72
    65
 73
     0
 40
0.0
  0
LTYPE
  5
16
330
5
100
AcDbSymbolTableRecord
100
AcDbLinetypeTableRecord
  2
Continuous
 70
     0
  3
Solid line
 72
    65
 73
     0
 40
0.0
  0
LTYPE
  5
6E
330
5
100
AcDbSymbolTableRecord
100
AcDbLinetypeTableRecord
  2
HIDDEN
 70
     0
  3
Hidden __ __ __ __ __ __ __ __ __ __ __ __ __ __
 72
    65
 73
     2
 40
0.075
 49
0.05
 74
     0
 49
-0.025
 74
     0
  0
LTYPE
  5
6F
330
5
100
AcDbSymbolTableRecord
100
AcDbLinetypeTableRecord
  2
PHANTOM
 70
     0
  3
Phantom ______  __  __  ______  __  __  ______
 72
    65
 73
     6
 40
0.5
 49
0.25
 74
     0
 49
-0.05
 74
     0
 49
0.05
 74
     0
 49
-0.05
 74
     0
 49
0.05
 74
     0
 49
-0.05
 74
     0
  0
LTYPE
  5
70
330
5
100
AcDbSymbolTableRecord
100
AcDbLinetypeTableRecord
  2
CENTER
 70
     0
  3
Center ____ _ ____ _ ____ _ ____ _ ____ _ ____
 72
    65
 73
     4
 40
0.4
 49
0.25
 74
     0
 49
-0.05
 74
     0
 49
0.05
 74
     0
 49
-0.05
 74
     0
  0
LTYPE
  5
71
330
5
100
AcDbSymbolTableRecord
100
AcDbLinetypeTableRecord
  2
CENTERX2
 70
     0
  3
Center (2x) ________  __  ________  __  _____
 72
    65
 73
     4
 40
0.8
 49
0.5
 74
     0
 49
-0.1
 74
     0
 49
0.1
 74
     0
 49
-0.1
 74
     0
  0
LTYPE
  5
72
330
5
100
AcDbSymbolTableRecord
100
AcDbLinetypeTableRecord
  2
DOT2
 70
     0
  3
Dot (.5x) ........................................
 72
    65
 73
     2
 40
0.025
 49
0.0
 74
     0
 49
-0.025
 74
     0
  0
ENDTAB
  0
TABLE
  2
LAYER
  5
2
330
0
100
AcDbSymbolTable
 70
     2
  0
LAYER
  5
10
330
2
100
AcDbSymbolTableRecord
100
AcDbLayerTableRecord
  2
0
 70
     0
 62
     7
  6
Continuous
370
    -3
390
F
  0
LAYER
  5
73
330
2
100
AcDbSymbolTableRecord
100
AcDbLayerTableRecord
  2
FORMAT
 70
     0
 62
     7
  6
Continuous
370
    -3
390
F
  0
ENDTAB
  0
TABLE
  2
STYLE
  5
3
330
0
100
AcDbSymbolTable
 70
     4
  0
STYLE
  5
11
330
3
100
AcDbSymbolTableRecord
100
AcDbTextStyleTableRecord
  2
Standard
 70
     0
 40
0.0
 41
1.0
 50
0.0
 71
     0
 42
0.1377952756
  3
txt
  4

  0
STYLE
  5
BD
330
3
100
AcDbSymbolTableRecord
100
AcDbTextStyleTableRecord
  2
SLDTEXTSTYLE0
 70
     0
 40
0.0
 41
0.75
 50
0.0
 71
     0
 42
0.1377952756
  3
TXT
  4

  0
STYLE
  5
E6
330
3
100
AcDbSymbolTableRecord
100
AcDbTextStyleTableRecord
  2
SLDTEXTSTYLE1
 70
     0
 40
0.0
 41
0.6864493306
 50
0.0
 71
     0
 42
0.1377952756
  3
TXT
  4

  0
STYLE
  5
107
330
3
100
AcDbSymbolTableRecord
100
AcDbTextStyleTableRecord
  2
SLDTEXTSTYLE2
 70
     0
 40
0.0
 41
0.6875
 50
0.0
 71
     0
 42
0.1377952756
  3
TXT
  4

  0
ENDTAB
  0
TABLE
  2
VIEW
  5
6
330
0
100
AcDbSymbolTable
 70
     0
  0
ENDTAB
  0
TABLE
  2
UCS
  5
7
330
0
100
AcDbSymbolTable
 70
     0
  0
ENDTAB
  0
TABLE
  2
APPID
  5
9
330
0
100
AcDbSymbolTable
 70
     1
  0
APPID
  5
12
330
9
100
AcDbSymbolTableRecord
100
AcDbRegAppTableRecord
  2
ACAD
 70
     0
  0
ENDTAB
  0
TABLE
  2
DIMSTYLE
  5
A
330
0
100
AcDbSymbolTable
 70
     1
100
AcDbDimStyleTable
  0
DIMSTYLE
105
27
330
A
100
AcDbSymbolTableRecord
100
AcDbDimStyleTableRecord
  2
Standard
 70
     0
178
     0
340
11
  0
ENDTAB
  0
TABLE
  2
BLOCK_RECORD
  5
1
330
0
100
AcDbSymbolTable
 70
     3
  0
BLOCK_RECORD
  5
1F
330
1
100
AcDbSymbolTableRecord
100
AcDbBlockTableRecord
  2
*Model_Space
340
22
  0
BLOCK_RECORD
  5
1B
330
1
100
AcDbSymbolTableRecord
100
AcDbBlockTableRecord
  2
*Paper_Space
340
1E
  0
BLOCK_RECORD
  5
23
330
1
100
AcDbSymbolTableRecord
100
AcDbBlockTableRecord
  2
*Paper_Space0
340
26
  0
BLOCK_RECORD
  5
EC
330
1
100
AcDbSymbolTableRecord
100
AcDbBlockTableRecord
  2
SW_NOTE_0
340
0
102
{BLKREFS
331
F5
102
}
  0
BLOCK_RECORD
  5
F7
330
1
100
AcDbSymbolTableRecord
100
AcDbBlockTableRecord
  2
SW_NOTE_1
340
0
102
{BLKREFS
331
FD
102
}
  0
ENDTAB
  0
ENDSEC
  0
SECTION
  2
BLOCKS
  0
BLOCK
  5
20
330
1F
100
AcDbEntity
  8
0
100
AcDbBlockBegin
  2
*Model_Space
 70
     0
 10
0.0
 20
0.0
 30
0.0
  3
*Model_Space
  1

  0
ENDBLK
  5
21
330
1F
100
AcDbEntity
  8
0
100
AcDbBlockEnd
  0
BLOCK
  5
1C
330
1B
100
AcDbEntity
 67
     1
  8
0
100
AcDbBlockBegin
  2
*Paper_Space
 70
     0
 10
0.0
 20
0.0
 30
0.0
  3
*Paper_Space
  1

  0
ENDBLK
  5
1D
330
1B
100
AcDbEntity
 67
     1
  8
0
100
AcDbBlockEnd
  0
BLOCK
  5
24
330
23
100
AcDbEntity
  8
0
100
AcDbBlockBegin
  2
*Paper_Space0
 70
     0
 10
0.0
 20
0.0
 30
0.0
  3
*Paper_Space0
  1

  0
ENDBLK
  5
25
330
23
100
AcDbEntity
  8
0
100
AcDbBlockEnd
  0
BLOCK
  5
ED
330
EC
100
AcDbEntity
  8
0
100
AcDbBlockBegin
  2
SW_NOTE_0
 70
     0
 10
0.0
 20
0.0
 30
0.0
  3
SW_NOTE_0
  1

  0
MTEXT
  5
EF
330
EC
100
AcDbEntity
  8
0
  6
Continuous
 62
     0
370
     0
100
AcDbMText
 10
0.0
 20
0.0761260476
 30
0.0
 40
0.0590551181
 41
0.0
 71
     1
 72
     1
  1
UNLESS OTHERWISE SPECIFIED:
  7
SLDTEXTSTYLE0
 73
     1
 44
1.0
  0
MTEXT
  5
F0
330
EC
100
AcDbEntity
  8
0
  6
Continuous
 62
     0
370
     0
100
AcDbMText
 10
0.0
 20
-0.022299147
 30
0.0
 40
0.0590551181
 41
0.0
 71
     1
 72
     1
  1
DIMENSIONS ARE IN MILLIMETERS
  7
SLDTEXTSTYLE0
 73
     1
 44
1.0
  0
MTEXT
  5
F1
330
EC
100
AcDbEntity
  8
0
  6
Continuous
 62
     0
370
     0
100
AcDbMText
 10
0.0
 20
-0.1207243417
 30
0.0
 40
0.0590551181
 41
0.0
 71
     1
 72
     1
  1
SURFACE FINISH:
  7
SLDTEXTSTYLE0
 73
     1
 44
1.0
  0
MTEXT
  5
F2
330
EC
100
AcDbEntity
  8
0
  6
Continuous
 62
     0
370
     0
100
AcDbMText
 10
0.0
 20
-0.2191495363
 30
0.0
 40
0.0590551181
 41
0.0
 71
     1
 72
     1
  1
TOLERANCES:
  7
SLDTEXTSTYLE0
 73
     1
 44
1.0
  0
MTEXT
  5
F3
330
EC
100
AcDbEntity
  8
0
  6
Continuous
 62
     0
370
     0
100
AcDbMText
 10
0.0664370079
 20
-0.317574731
 30
0.0
 40
0.0590551181
 41
0.0
 71
     1
 72
     1
  1
LINEAR:
  7
SLDTEXTSTYLE0
 73
     1
 44
1.0
  0
MTEXT
  5
F4
330
EC
100
AcDbEntity
  8
0
  6
Continuous
 62
     0
370
     0
100
AcDbMText
 10
0.0664370079
 20
-0.4159999256
 30
0.0
 40
0.0590551181
 41
0.0
 71
     1
 72
     1
  1
ANGULAR:
  7
SLDTEXTSTYLE0
 73
     1
 44
1.0
  0
ENDBLK
  5
EE
330
EC
100
AcDbEntity
  8
0
100
AcDbBlockEnd
  0
BLOCK
  5
F8
330
F7
100
AcDbEntity
  8
0
100
AcDbBlockBegin
  2
SW_NOTE_1
 70
     0
 10
0.0
 20
0.0
 30
0.0
  3
SW_NOTE_1
  1

  0
MTEXT
  5
FA
330
F7
100
AcDbEntity
  8
0
  6
Continuous
 62
     0
370
     0
100
AcDbMText
 10
0.0
 20
0.0761260476
 30
0.0
 40
0.0590551181
 41
0.0
 71
     1
 72
     1
  1
DEBURR AND
  7
SLDTEXTSTYLE0
 73
     1
 44
1.0
  0
MTEXT
  5
FB
330
F7
100
AcDbEntity
  8
0
  6
Continuous
 62
     0
370
     0
100
AcDbMText
 10
0.0
 20
-0.022299147
 30
0.0
 40
0.0590551181
 41
0.0
 71
     1
 72
     1
  1
BREAK SHARP
  7
SLDTEXTSTYLE0
 73
     1
 44
1.0
  0
MTEXT
  5
FC
330
F7
100
AcDbEntity
  8
0
  6
Continuous
 62
     0
370
     0
100
AcDbMText
 10
0.0
 20
-0.1207243417
 30
0.0
 40
0.0590551181
 41
0.0
 71
     1
 72
     1
  1
EDGES
  7
SLDTEXTSTYLE0
 73
     1
 44
1.0
  0
ENDBLK
  5
F9
330
F7
100
AcDbEntity
  8
0
100
AcDbBlockEnd
  0
ENDSEC
  0
SECTION
  2
ENTITIES
  0
LINE
  5
74
330
1F
100
AcDbEntity
  8
0
  6
Continuous
 62
     7
370
    50
100
AcDbLine
 10
15.905511811
 20
0.561023622
 30
0.0
 11
22.9921259843
 21
0.561023622
 31
0.0
  0
LINE
  5
75
330
1F
100
AcDbEntity
  8
0
  6
Continuous
 62
     7
370
    50
100
AcDbLine
 10
22.9921259843
 20
1.8996062992
 30
0.0
 11
15.905511811
 21
1.8996062992
 31
0.0
  0
LINE
  5
76
330
1F
100
AcDbEntity
  8
0
  6
Continuous
 62
     7
370
    50
100
AcDbLine
 10
15.905511811
 20
2.5688976378
 30
0.0
 11
22.9921259843
 21
2.5688976378
 31
0.0
  0
LINE
  5
77
330
1F
100
AcDbEntity
  8
0
  6
Continuous
 62
     7
370
    50
100
AcDbLine
 10
16.9681477336
 20
1.8996062992
 30
0.0
 11
16.9681477336
 21
0.3937007874
 31
0.0
  0
LINE
  5
78
330
1F
100
AcDbEntity
  8
0
  6
Continuous
 62
     7
370
    50
100
AcDbLine
 10
19.7952755906
 20
1.2303149606
 30
0.0
 11
15.905511811
 21
1.2303149606
 31
0.0
  0
LINE
  5
79
330
1F
100
AcDbEntity
  8
0
  6
Continuous
 62
     7
370
    50
100
AcDbLine
 10
19.7952755906
 20
1.3976377953
 30
0.0
 11
15.905511811
 21
1.3976377953
 31
0.0
  0
LINE
  5
7A
330
1F
100
AcDbEntity
  8
0
  6
Continuous
 62
     7
370
    50
100
AcDbLine
 10
19.7952755906
 20
1.5649606299
 30
0.0
 11
15.905511811
 21
1.5649606299
 31
0.0
  0
LINE
  5
7B
330
1F
100
AcDbEntity
  8
0
  6
Continuous
 62
     7
370
    50
100
AcDbLine
 10
19.7952755906
 20
1.7322834646
 30
0.0
 11
15.905511811
 21
1.7322834646
 31
0.0
  0
LINE
  5
7C
330
1F
100
AcDbEntity
  8
0
  6
Continuous
 62
     7
370
    50
100
AcDbLine
 10
18.0551181102
 20
0.3937007874
 30
0.0
 11
18.0551181102
 21
1.8996062992
 31
0.0
  0
LINE
  5
7D
330
1F
100
AcDbEntity
  8
0
  6
Continuous
 62
     7
370
    50
100
AcDbLine
 10
15.905511811
 20
2.5688976378
 30
0.0
 11
15.905511811
 21
0.3937007874
 31
0.0
  0
LINE
  5
7E
330
1F
100
AcDbEntity
  8
0
  6
Continuous
 62
     7
370
    50
100
AcDbLine
 10
16.2125984252
 20
1.8996062992
 30
0.0
 11
16.2125984252
 21
0.3937007874
 31
0.0
  0
LINE
  5
7F
330
1F
100
AcDbEntity
  8
0
  6
Continuous
 62
     7
370
    50
100
AcDbLine
 10
17.2362204724
 20
1.8996062992
 30
0.0
 11
17.2362204724
 21
2.5688976378
 31
0.0
  0
LINE
  5
80
330
1F
100
AcDbEntity
  8
0
  6
Continuous
 62
     7
370
    50
100
AcDbLine
 10
17.6535010301
 20
1.8996062992
 30
0.0
 11
17.6535010301
 21
0.3937007874
 31
0.0
  0
LINE
  5
81
330
1F
100
AcDbEntity
  8
0
  6
Continuous
 62
     7
370
    50
100
AcDbLine
 10
18.4645669291
 20
1.2303149606
 30
0.0
 11
18.4645669291
 21
1.8996062992
 31
0.0
  0
LINE
  5
82
330
1F
100
AcDbEntity
  8
0
  6
Continuous
 62
     7
370
    50
100
AcDbLine
 10
18.0551181102
 20
0.7283464567
 30
0.0
 11
15.905511811
 21
0.7283464567
 31
0.0
  0
LINE
  5
83
330
1F
100
AcDbEntity
  8
0
  6
Continuous
 62
     7
370
    50
100
AcDbLine
 10
19.0787401575
 20
2.5688976378
 30
0.0
 11
19.0787401575
 21
1.062992126
 31
0.0
  0
LINE
  5
84
330
1F
100
AcDbEntity
  8
0
  6
Continuous
 62
     7
370
    50
100
AcDbLine
 10
18.0551181102
 20
0.8956664567
 30
0.0
 11
15.905511811
 21
0.8956664567
 31
0.0
  0
LINE
  5
85
330
1F
100
AcDbEntity
  8
0
  6
Continuous
 62
     7
370
    50
100
AcDbLine
 10
18.0551181102
 20
1.062992126
 30
0.0
 11
15.905511811
 21
1.062992126
 31
0.0
  0
LINE
  5
86
330
1F
100
AcDbEntity
  8
0
  6
Continuous
 62
     7
370
    50
100
AcDbLine
 10
18.0551181102
 20
1.062992126
 30
0.0
 11
22.9921259843
 21
1.062992126
 31
0.0
  0
LINE
  5
87
330
1F
100
AcDbEntity
  8
0
  6
Continuous
 62
     7
370
    50
100
AcDbLine
 10
19.7952755906
 20
2.5688976378
 30
0.0
 11
19.7952755906
 21
0.3937007874
 31
0.0
  0
LINE
  5
88
330
1F
100
AcDbEntity
  8
0
  6
Continuous
 62
     7
370
    50
100
AcDbLine
 10
21.5354330709
 20
0.3937007874
 30
0.0
 11
21.5354330709
 21
0.561023622
 31
0.0
  0
LINE
  5
89
330
1F
100
AcDbEntity
  8
0
  6
Continuous
 62
     7
370
    50
100
AcDbLine
 10
21.842519685
 20
2.3179133858
 30
0.0
 11
21.842519685
 21
2.5688976378
 31
0.0
  0
LINE
  5
8A
330
1F
100
AcDbEntity
  8
0
  6
Continuous
 62
     7
370
    50
100
AcDbLine
 10
22.4803149606
 20
0.561023622
 30
0.0
 11
22.4803149606
 21
1.062992126
 31
0.0
  0
LINE
  5
8B
330
1F
100
AcDbEntity
  8
0
  6
Continuous
 62
     7
370
    50
100
AcDbLine
 10
22.9921259843
 20
2.3179133858
 30
0.0
 11
19.7952755906
 21
2.3179133858
 31
0.0
  0
LINE
  5
8C
330
1F
100
AcDbEntity
  8
0
  6
Continuous
 62
     7
370
    50
100
AcDbLine
 10
22.9921259843
 20
0.7283464567
 30
0.0
 11
22.4803149606
 21
0.7283464567
 31
0.0
  0
LINE
  5
8D
330
1F
100
AcDbEntity
  8
0
  6
Continuous
 62
     7
370
    70
100
AcDbLine
 10
0.7874015748
 20
0.3937007874
 30
0.0
 11
0.7874015748
 21
16.1417322835
 31
0.0
  0
LINE
  5
8E
330
1F
100
AcDbEntity
  8
0
  6
Continuous
 62
     7
370
    70
100
AcDbLine
 10
0.7874015748
 20
16.1417322835
 30
0.0
 11
22.9921259843
 21
16.1417322835
 31
0.0
  0
LINE
  5
8F
330
1F
100
AcDbEntity
  8
0
  6
Continuous
 62
     7
370
    70
100
AcDbLine
 10
22.9921259843
 20
16.1417322835
 30
0.0
 11
22.9921259843
 21
0.3937007874
 31
0.0
  0
LINE
  5
90
330
1F
100
AcDbEntity
  8
0
  6
Continuous
 62
     7
370
    70
100
AcDbLine
 10
22.9921259843
 20
0.3937007874
 30
0.0
 11
0.7874015748
 21
0.3937007874
 31
0.0
  0
LINE
  5
91
330
1F
100
AcDbEntity
  8
0
  6
Continuous
 62
     7
370
    70
100
AcDbLine
 10
0.5905511811
 20
0.1968503937
 30
0.0
 11
0.5905511811
 21
16.3385826772
 31
0.0
  0
LINE
  5
92
330
1F
100
AcDbEntity
  8
0
  6
Continuous
 62
     7
370
    70
100
AcDbLine
 10
0.5905511811
 20
16.3385826772
 30
0.0
 11
23.188976378
 21
16.3385826772
 31
0.0
  0
LINE
  5
93
330
1F
100
AcDbEntity
  8
0
  6
Continuous
 62
     7
370
    70
100
AcDbLine
 10
23.188976378
 20
16.3385826772
 30
0.0
 11
23.188976378
 21
0.1968503937
 31
0.0
  0
LINE
  5
94
330
1F
100
AcDbEntity
  8
0
  6
Continuous
 62
     7
370
    70
100
AcDbLine
 10
23.188976378
 20
0.1968503937
 30
0.0
 11
0.5905511811
 21
0.1968503937
 31
0.0
  0
LINE
  5
95
330
1F
100
AcDbEntity
  8
0
  6
Continuous
 62
     7
370
    35
100
AcDbLine
 10
0.5905511811
 20
8.2677165354
 30
0.0
 11
0.9842519685
 21
8.2677165354
 31
0.0
  0
LINE
  5
96
330
1F
100
AcDbEntity
  8
0
  6
Continuous
 62
     7
370
    35
100
AcDbLine
 10
11.8897637795
 20
16.3385826772
 30
0.0
 11
11.8897637795
 21
15.9448818898
 31
0.0
  0
LINE
  5
97
330
1F
100
AcDbEntity
  8
0
  6
Continuous
 62
     7
370
    35
100
AcDbLine
 10
23.188976378
 20
8.2677165354
 30
0.0
 11
22.7952755906
 21
8.2677165354
 31
0.0
  0
LINE
  5
98
330
1F
100
AcDbEntity
  8
0
  6
Continuous
 62
     7
370
    35
100
AcDbLine
 10
11.8897637795
 20
0.1968503937
 30
0.0
 11
11.8897637795
 21
0.5905511811
 31
0.0
  0
LINE
  5
99
330
1F
100
AcDbEntity
  8
0
  6
Continuous
 62
     7
370
    35
100
AcDbLine
 10
0.7874015748
 20
2.3622047244
 30
0.0
 11
0.5905511811
 21
2.3622047244
 31
0.0
  0
LINE
  5
9A
330
1F
100
AcDbEntity
  8
0
  6
Continuous
 62
     7
370
    35
100
AcDbLine
 10
22.9921259843
 20
2.3622047244
 30
0.0
 11
23.188976378
 21
2.3622047244
 31
0.0
  0
LINE
  5
9B
330
1F
100
AcDbEntity
  8
0
  6
Continuous
 62
     7
370
    35
100
AcDbLine
 10
0.7874015748
 20
4.3307086614
 30
0.0
 11
0.5905511811
 21
4.3307086614
 31
0.0
  0
LINE
  5
9C
330
1F
100
AcDbEntity
  8
0
  6
Continuous
 62
     7
370
    35
100
AcDbLine
 10
22.9921259843
 20
4.3307086614
 30
0.0
 11
23.188976378
 21
4.3307086614
 31
0.0
  0
LINE
  5
9D
330
1F
100
AcDbEntity
  8
0
  6
Continuous
 62
     7
370
    35
100
AcDbLine
 10
0.7874015748
 20
6.2992125984
 30
0.0
 11
0.5905511811
 21
6.2992125984
 31
0.0
  0
LINE
  5
9E
330
1F
100
AcDbEntity
  8
0
  6
Continuous
 62
     7
370
    35
100
AcDbLine
 10
22.9921259843
 20
6.2992125984
 30
0.0
 11
23.188976378
 21
6.2992125984
 31
0.0
  0
LINE
  5
9F
330
1F
100
AcDbEntity
  8
0
  6
Continuous
 62
     7
370
    35
100
AcDbLine
 10
0.7874015748
 20
8.2677165354
 30
0.0
 11
0.5905511811
 21
8.2677165354
 31
0.0
  0
LINE
  5
A0
330
1F
100
AcDbEntity
  8
0
  6
Continuous
 62
     7
370
    35
100
AcDbLine
 10
22.9921259843
 20
8.2677165354
 30
0.0
 11
23.188976378
 21
8.2677165354
 31
0.0
  0
LINE
  5
A1
330
1F
100
AcDbEntity
  8
0
  6
Continuous
 62
     7
370
    35
100
AcDbLine
 10
0.7874015748
 20
10.2362204724
 30
0.0
 11
0.5905511811
 21
10.2362204724
 31
0.0
  0
LINE
  5
A2
330
1F
100
AcDbEntity
  8
0
  6
Continuous
 62
     7
370
    35
100
AcDbLine
 10
22.9921259843
 20
10.2362204724
 30
0.0
 11
23.188976378
 21
10.2362204724
 31
0.0
  0
LINE
  5
A3
330
1F
100
AcDbEntity
  8
0
  6
Continuous
 62
     7
370
    35
100
AcDbLine
 10
0.7874015748
 20
12.2047244094
 30
0.0
 11
0.5905511811
 21
12.2047244094
 31
0.0
  0
LINE
  5
A4
330
1F
100
AcDbEntity
  8
0
  6
Continuous
 62
     7
370
    35
100
AcDbLine
 10
22.9921259843
 20
12.2047244094
 30
0.0
 11
23.188976378
 21
12.2047244094
 31
0.0
  0
LINE
  5
A5
330
1F
100
AcDbEntity
  8
0
  6
Continuous
 62
     7
370
    35
100
AcDbLine
 10
0.7874015748
 20
14.1732283465
 30
0.0
 11
0.5905511811
 21
14.1732283465
 31
0.0
  0
LINE
  5
A6
330
1F
100
AcDbEntity
  8
0
  6
Continuous
 62
     7
370
    35
100
AcDbLine
 10
22.9921259843
 20
14.1732283465
 30
0.0
 11
23.188976378
 21
14.1732283465
 31
0.0
  0
LINE
  5
A7
330
1F
100
AcDbEntity
  8
0
  6
Continuous
 62
     7
370
    35
100
AcDbLine
 10
2.0472440945
 20
16.1417322835
 30
0.0
 11
2.0472440945
 21
16.3385826772
 31
0.0
  0
LINE
  5
A8
330
1F
100
AcDbEntity
  8
0
  6
Continuous
 62
     7
370
    35
100
AcDbLine
 10
2.0472440945
 20
0.3937007874
 30
0.0
 11
2.0472440945
 21
0.1968503937
 31
0.0
  0
LINE
  5
A9
330
1F
100
AcDbEntity
  8
0
  6
Continuous
 62
     7
370
    35
100
AcDbLine
 10
4.0157480315
 20
16.1417322835
 30
0.0
 11
4.0157480315
 21
16.3385826772
 31
0.0
  0
LINE
  5
AA
330
1F
100
AcDbEntity
  8
0
  6
Continuous
 62
     7
370
    35
100
AcDbLine
 10
4.0157480315
 20
0.3937007874
 30
0.0
 11
4.0157480315
 21
0.1968503937
 31
0.0
  0
LINE
  5
AB
330
1F
100
AcDbEntity
  8
0
  6
Continuous
 62
     7
370
    35
100
AcDbLine
 10
5.9842519685
 20
16.1417322835
 30
0.0
 11
5.9842519685
 21
16.3385826772
 31
0.0
  0
LINE
  5
AC
330
1F
100
AcDbEntity
  8
0
  6
Continuous
 62
     7
370
    35
100
AcDbLine
 10
5.9842519685
 20
0.3937007874
 30
0.0
 11
5.9842519685
 21
0.1968503937
 31
0.0
  0
LINE
  5
AD
330
1F
100
AcDbEntity
  8
0
  6
Continuous
 62
     7
370
    35
100
AcDbLine
 10
7.9527559055
 20
16.1417322835
 30
0.0
 11
7.9527559055
 21
16.3385826772
 31
0.0
  0
LINE
  5
AE
330
1F
100
AcDbEntity
  8
0
  6
Continuous
 62
     7
370
    35
100
AcDbLine
 10
7.9527559055
 20
0.3937007874
 30
0.0
 11
7.9527559055
 21
0.1968503937
 31
0.0
  0
LINE
  5
AF
330
1F
100
AcDbEntity
  8
0
  6
Continuous
 62
     7
370
    35
100
AcDbLine
 10
9.9212598425
 20
16.1417322835
 30
0.0
 11
9.9212598425
 21
16.3385826772
 31
0.0
  0
LINE
  5
B0
330
1F
100
AcDbEntity
  8
0
  6
Continuous
 62
     7
370
    35
100
AcDbLine
 10
9.9212598425
 20
0.3937007874
 30
0.0
 11
9.9212598425
 21
0.1968503937
 31
0.0
  0
LINE
  5
B1
330
1F
100
AcDbEntity
  8
0
  6
Continuous
 62
     7
370
    35
100
AcDbLine
 10
11.8897637795
 20
16.1417322835
 30
0.0
 11
11.8897637795
 21
16.3385826772
 31
0.0
  0
LINE
  5
B2
330
1F
100
AcDbEntity
  8
0
  6
Continuous
 62
     7
370
    35
100
AcDbLine
 10
11.8897637795
 20
0.3937007874
 30
0.0
 11
11.8897637795
 21
0.1968503937
 31
0.0
  0
LINE
  5
B3
330
1F
100
AcDbEntity
  8
0
  6
Continuous
 62
     7
370
    35
100
AcDbLine
 10
13.8582677165
 20
16.1417322835
 30
0.0
 11
13.8582677165
 21
16.3385826772
 31
0.0
  0
LINE
  5
B4
330
1F
100
AcDbEntity
  8
0
  6
Continuous
 62
     7
370
    35
100
AcDbLine
 10
13.8582677165
 20
0.3937007874
 30
0.0
 11
13.8582677165
 21
0.1968503937
 31
0.0
  0
LINE
  5
B5
330
1F
100
AcDbEntity
  8
0
  6
Continuous
 62
     7
370
    35
100
AcDbLine
 10
15.8267716535
 20
16.1417322835
 30
0.0
 11
15.8267716535
 21
16.3385826772
 31
0.0
  0
LINE
  5
B6
330
1F
100
AcDbEntity
  8
0
  6
Continuous
 62
     7
370
    35
100
AcDbLine
 10
15.8267716535
 20
0.3937007874
 30
0.0
 11
15.8267716535
 21
0.1968503937
 31
0.0
  0
LINE
  5
B7
330
1F
100
AcDbEntity
  8
0
  6
Continuous
 62
     7
370
    35
100
AcDbLine
 10
17.7952755906
 20
16.1417322835
 30
0.0
 11
17.7952755906
 21
16.3385826772
 31
0.0
  0
LINE
  5
B8
330
1F
100
AcDbEntity
  8
0
  6
Continuous
 62
     7
370
    35
100
AcDbLine
 10
17.7952755906
 20
0.3937007874
 30
0.0
 11
17.7952755906
 21
0.1968503937
 31
0.0
  0
LINE
  5
B9
330
1F
100
AcDbEntity
  8
0
  6
Continuous
 62
     7
370
    35
100
AcDbLine
 10
19.7637795276
 20
16.1417322835
 30
0.0
 11
19.7637795276
 21
16.3385826772
 31
0.0
  0
LINE
  5
BA
330
1F
100
AcDbEntity
  8
0
  6
Continuous
 62
     7
370
    35
100
AcDbLine
 10
19.7637795276
 20
0.3937007874
 30
0.0
 11
19.7637795276
 21
0.1968503937
 31
0.0
  0
LINE
  5
BB
330
1F
100
AcDbEntity
  8
0
  6
Continuous
 62
     7
370
    35
100
AcDbLine
 10
21.7322834646
 20
16.1417322835
 30
0.0
 11
21.7322834646
 21
16.3385826772
 31
0.0
  0
LINE
  5
BC
330
1F
100
AcDbEntity
  8
0
  6
Continuous
 62
     7
370
    35
100
AcDbLine
 10
21.7322834646
 20
0.3937007874
 30
0.0
 11
21.7322834646
 21
0.1968503937
 31
0.0
  0
MTEXT
  5
BE
330
1F
100
AcDbEntity
  8
0
  6
Continuous
 62
     7
370
     0
100
AcDbMText
 10
0.6826648875
 20
1.4557622289
 30
0.0
 40
0.15625
 41
0.0
 71
     2
 72
     1
  1
A
  7
SLDTEXTSTYLE0
 73
     1
 44
1.0
  0
MTEXT
  5
BF
330
1F
100
AcDbEntity
  8
0
  6
Continuous
 62
     7
370
     0
100
AcDbMText
 10
23.0842396907
 20
1.4557622289
 30
0.0
 40
0.15625
 41
0.0
 71
     2
 72
     1
  1
A
  7
SLDTEXTSTYLE0
 73
     1
 44
1.0
  0
MTEXT
  5
C0
330
1F
100
AcDbEntity
  8
0
  6
Continuous
 62
     7
370
     0
100
AcDbMText
 10
0.6878189695
 20
3.4242661659
 30
0.0
 40
0.15625
 41
0.0
 71
     2
 72
     1
  1
B
  7
SLDTEXTSTYLE0
 73
     1
 44
1.0
  0
MTEXT
  5
C1
330
1F
100
AcDbEntity
  8
0
  6
Continuous
 62
     7
370
     0
100
AcDbMText
 10
23.0893937726
 20
3.4242661659
 30
0.0
 40
0.15625
 41
0.0
 71
     2
 72
     1
  1
B
  7
SLDTEXTSTYLE0
 73
     1
 44
1.0
  0
MTEXT
  5
C2
330
1F
100
AcDbEntity
  8
0
  6
Continuous
 62
     7
370
     0
100
AcDbMText
 10
0.6873487757
 20
5.3927701029
 30
0.0
 40
0.15625
 41
0.0
 71
     2
 72
     1
  1
C
  7
SLDTEXTSTYLE0
 73
     1
 44
1.0
  0
MTEXT
  5
C3
330
1F
100
AcDbEntity
  8
0
  6
Continuous
 62
     7
370
     0
100
AcDbMText
 10
23.0889235788
 20
5.3927701029
 30
0.0
 40
0.15625
 41
0.0
 71
     2
 72
     1
  1
C
  7
SLDTEXTSTYLE0
 73
     1
 44
1.0
  0
MTEXT
  5
C4
330
1F
100
AcDbEntity
  8
0
  6
Continuous
 62
     7
370
     0
100
AcDbMText
 10
0.6871136725
 20
7.3612740399
 30
0.0
 40
0.15625
 41
0.0
 71
     2
 72
     1
  1
D
  7
SLDTEXTSTYLE0
 73
     1
 44
1.0
  0
MTEXT
  5
C5
330
1F
100
AcDbEntity
  8
0
  6
Continuous
 62
     7
370
     0
100
AcDbMText
 10
23.0886884757
 20
7.3612740399
 30
0.0
 40
0.15625
 41
0.0
 71
     2
 72
     1
  1
D
  7
SLDTEXTSTYLE0
 73
     1
 44
1.0
  0
MTEXT
  5
C6
330
1F
100
AcDbEntity
  8
0
  6
Continuous
 62
     7
370
     0
100
AcDbMText
 10
0.6892838152
 20
9.3297779769
 30
0.0
 40
0.15625
 41
0.0
 71
     2
 72
     1
  1
E
  7
SLDTEXTSTYLE0
 73
     1
 44
1.0
  0
MTEXT
  5
C7
330
1F
100
AcDbEntity
  8
0
  6
Continuous
 62
     7
370
     0
100
AcDbMText
 10
23.0908586183
 20
9.3297779769
 30
0.0
 40
0.15625
 41
0.0
 71
     2
 72
     1
  1
E
  7
SLDTEXTSTYLE0
 73
     1
 44
1.0
  0
MTEXT
  5
C8
330
1F
100
AcDbEntity
  8
0
  6
Continuous
 62
     7
370
     0
100
AcDbMText
 10
0.6873126067
 20
11.2982819139
 30
0.0
 40
0.15625
 41
0.0
 71
     2
 72
     1
  1
F
  7
SLDTEXTSTYLE0
 73
     1
 44
1.0
  0
MTEXT
  5
C9
330
1F
100
AcDbEntity
  8
0
  6
Continuous
 62
     7
370
     0
100
AcDbMText
 10
23.0888874098
 20
11.2982819139
 30
0.0
 40
0.15625
 41
0.0
 71
     2
 72
     1
  1
F
  7
SLDTEXTSTYLE0
 73
     1
 44
1.0
  0
MTEXT
  5
CA
330
1F
100
AcDbEntity
  8
0
  6
Continuous
 62
     7
370
     0
100
AcDbMText
 10
0.6884519246
 20
13.2667858509
 30
0.0
 40
0.15625
 41
0.0
 71
     2
 72
     1
  1
G
  7
SLDTEXTSTYLE0
 73
     1
 44
1.0
  0
MTEXT
  5
CB
330
1F
100
AcDbEntity
  8
0
  6
Continuous
 62
     7
370
     0
100
AcDbMText
 10
23.0900267278
 20
13.2667858509
 30
0.0
 40
0.15625
 41
0.0
 71
     2
 72
     1
  1
G
  7
SLDTEXTSTYLE0
 73
     1
 44
1.0
  0
MTEXT
  5
CC
330
1F
100
AcDbEntity
  8
0
  6
Continuous
 62
     7
370
     0
100
AcDbMText
 10
0.6885966057
 20
15.2352897879
 30
0.0
 40
0.15625
 41
0.0
 71
     2
 72
     1
  1
H
  7
SLDTEXTSTYLE0
 73
     1
 44
1.0
  0
MTEXT
  5
CD
330
1F
100
AcDbEntity
  8
0
  6
Continuous
 62
     7
370
     0
100
AcDbMText
 10
23.0901714088
 20
15.2352897879
 30
0.0
 40
0.15625
 41
0.0
 71
     2
 72
     1
  1
H
  7
SLDTEXTSTYLE0
 73
     1
 44
1.0
  0
MTEXT
  5
CE
330
1F
100
AcDbEntity
  8
0
  6
Continuous
 62
     7
370
     0
100
AcDbMText
 10
1.4141761375
 20
0.3730850635
 30
0.0
 40
0.15625
 41
0.0
 71
     2
 72
     1
  1
12
  7
SLDTEXTSTYLE0
 73
     1
 44
1.0
  0
MTEXT
  5
CF
330
1F
100
AcDbEntity
  8
0
  6
Continuous
 62
     7
370
     0
100
AcDbMText
 10
1.4141761375
 20
16.3179669533
 30
0.0
 40
0.15625
 41
0.0
 71
     2
 72
     1
  1
12
  7
SLDTEXTSTYLE0
 73
     1
 44
1.0
  0
MTEXT
  5
D0
330
1F
100
AcDbEntity
  8
0
  6
Continuous
 62
     7
370
     0
100
AcDbMText
 10
3.0283493659
 20
0.3730850635
 30
0.0
 40
0.15625
 41
0.0
 71
     2
 72
     1
  1
11
  7
SLDTEXTSTYLE0
 73
     1
 44
1.0
  0
MTEXT
  5
D1
330
1F
100
AcDbEntity
  8
0
  6
Continuous
 62
     7
370
     0
100
AcDbMText
 10
3.0283493659
 20
16.3179669533
 30
0.0
 40
0.15625
 41
0.0
 71
     2
 72
     1
  1
11
  7
SLDTEXTSTYLE0
 73
     1
 44
1.0
  0
MTEXT
  5
D2
330
1F
100
AcDbEntity
  8
0
  6
Continuous
 62
     7
370
     0
100
AcDbMText
 10
4.9968533029
 20
0.3730850635
 30
0.0
 40
0.15625
 41
0.0
 71
     2
 72
     1
  1
10
  7
SLDTEXTSTYLE0
 73
     1
 44
1.0
  0
MTEXT
  5
D3
330
1F
100
AcDbEntity
  8
0
  6
Continuous
 62
     7
370
     0
100
AcDbMText
 10
4.9968533029
 20
16.3179669533
 30
0.0
 40
0.15625
 41
0.0
 71
     2
 72
     1
  1
10
  7
SLDTEXTSTYLE0
 73
     1
 44
1.0
  0
MTEXT
  5
D4
330
1F
100
AcDbEntity
  8
0
  6
Continuous
 62
     7
370
     0
100
AcDbMText
 10
6.9669305884
 20
0.3730850635
 30
0.0
 40
0.15625
 41
0.0
 71
     2
 72
     1
  1
9
  7
SLDTEXTSTYLE0
 73
     1
 44
1.0
  0
MTEXT
  5
D5
330
1F
100
AcDbEntity
  8
0
  6
Continuous
 62
     7
370
     0
100
AcDbMText
 10
6.9669305884
 20
16.3179669533
 30
0.0
 40
0.15625
 41
0.0
 71
     2
 72
     1
  1
9
  7
SLDTEXTSTYLE0
 73
     1
 44
1.0
  0
MTEXT
  5
D6
330
1F
100
AcDbEntity
  8
0
  6
Continuous
 62
     7
370
     0
100
AcDbMText
 10
8.9354345255
 20
0.3730850635
 30
0.0
 40
0.15625
 41
0.0
 71
     2
 72
     1
  1
8
  7
SLDTEXTSTYLE0
 73
     1
 44
1.0
  0
MTEXT
  5
D7
330
1F
100
AcDbEntity
  8
0
  6
Continuous
 62
     7
370
     0
100
AcDbMText
 10
8.9354345255
 20
16.3179669533
 30
0.0
 40
0.15625
 41
0.0
 71
     2
 72
     1
  1
8
  7
SLDTEXTSTYLE0
 73
     1
 44
1.0
  0
MTEXT
  5
D8
330
1F
100
AcDbEntity
  8
0
  6
Continuous
 62
     7
370
     0
100
AcDbMText
 10
10.9039384625
 20
0.3730850635
 30
0.0
 40
0.15625
 41
0.0
 71
     2
 72
     1
  1
7
  7
SLDTEXTSTYLE0
 73
     1
 44
1.0
  0
MTEXT
  5
D9
330
1F
100
AcDbEntity
  8
0
  6
Continuous
 62
     7
370
     0
100
AcDbMText
 10
10.9039384625
 20
16.3179669533
 30
0.0
 40
0.15625
 41
0.0
 71
     2
 72
     1
  1
7
  7
SLDTEXTSTYLE0
 73
     1
 44
1.0
  0
MTEXT
  5
DA
330
1F
100
AcDbEntity
  8
0
  6
Continuous
 62
     7
370
     0
100
AcDbMText
 10
12.8724423995
 20
0.3730850635
 30
0.0
 40
0.15625
 41
0.0
 71
     2
 72
     1
  1
6
  7
SLDTEXTSTYLE0
 73
     1
 44
1.0
  0
MTEXT
  5
DB
330
1F
100
AcDbEntity
  8
0
  6
Continuous
 62
     7
370
     0
100
AcDbMText
 10
12.8724423995
 20
16.3179669533
 30
0.0
 40
0.15625
 41
0.0
 71
     2
 72
     1
  1
6
  7
SLDTEXTSTYLE0
 73
     1
 44
1.0
  0
MTEXT
  5
DC
330
1F
100
AcDbEntity
  8
0
  6
Continuous
 62
     7
370
     0
100
AcDbMText
 10
14.8409463365
 20
0.3730850635
 30
0.0
 40
0.15625
 41
0.0
 71
     2
 72
     1
  1
5
  7
SLDTEXTSTYLE0
 73
     1
 44
1.0
  0
MTEXT
  5
DD
330
1F
100
AcDbEntity
  8
0
  6
Continuous
 62
     7
370
     0
100
AcDbMText
 10
14.8409463365
 20
16.3179669533
 30
0.0
 40
0.15625
 41
0.0
 71
     2
 72
     1
  1
5
  7
SLDTEXTSTYLE0
 73
     1
 44
1.0
  0
MTEXT
  5
DE
330
1F
100
AcDbEntity
  8
0
  6
Continuous
 62
     7
370
     0
100
AcDbMText
 10
16.8094502735
 20
0.3730850635
 30
0.0
 40
0.15625
 41
0.0
 71
     2
 72
     1
  1
4
  7
SLDTEXTSTYLE0
 73
     1
 44
1.0
  0
MTEXT
  5
DF
330
1F
100
AcDbEntity
  8
0
  6
Continuous
 62
     7
370
     0
100
AcDbMText
 10
16.8094502735
 20
16.3179669533
 30
0.0
 40
0.15625
 41
0.0
 71
     2
 72
     1
  1
4
  7
SLDTEXTSTYLE0
 73
     1
 44
1.0
  0
MTEXT
  5
E0
330
1F
100
AcDbEntity
  8
0
  6
Continuous
 62
     7
370
     0
100
AcDbMText
 10
18.7779542105
 20
0.3730850635
 30
0.0
 40
0.15625
 41
0.0
 71
     2
 72
     1
  1
3
  7
SLDTEXTSTYLE0
 73
     1
 44
1.0
  0
MTEXT
  5
E1
330
1F
100
AcDbEntity
  8
0
  6
Continuous
 62
     7
370
     0
100
AcDbMText
 10
18.7779542105
 20
16.3179669533
 30
0.0
 40
0.15625
 41
0.0
 71
     2
 72
     1
  1
3
  7
SLDTEXTSTYLE0
 73
     1
 44
1.0
  0
MTEXT
  5
E2
330
1F
100
AcDbEntity
  8
0
  6
Continuous
 62
     7
370
     0
100
AcDbMText
 10
20.7464581475
 20
0.3730850635
 30
0.0
 40
0.15625
 41
0.0
 71
     2
 72
     1
  1
2
  7
SLDTEXTSTYLE0
 73
     1
 44
1.0
  0
MTEXT
  5
E3
330
1F
100
AcDbEntity
  8
0
  6
Continuous
 62
     7
370
     0
100
AcDbMText
 10
20.7464581475
 20
16.3179669533
 30
0.0
 40
0.15625
 41
0.0
 71
     2
 72
     1
  1
2
  7
SLDTEXTSTYLE0
 73
     1
 44
1.0
  0
MTEXT
  5
E4
330
1F
100
AcDbEntity
  8
0
  6
Continuous
 62
     7
370
     0
100
AcDbMText
 10
22.3606313758
 20
0.3730850635
 30
0.0
 40
0.15625
 41
0.0
 71
     2
 72
     1
  1
1
  7
SLDTEXTSTYLE0
 73
     1
 44
1.0
  0
MTEXT
  5
E5
330
1F
100
AcDbEntity
  8
0
  6
Continuous
 62
     7
370
     0
100
AcDbMText
 10
22.3606313758
 20
16.3179669533
 30
0.0
 40
0.15625
 41
0.0
 71
     2
 72
     1
  1
1
  7
SLDTEXTSTYLE0
 73
     1
 44
1.0
  0
MTEXT
  5
E7
330
1F
100
AcDbEntity
  8
0
  6
Continuous
 62
     7
370
     0
100
AcDbMText
 10
15.930841059
 20
1.6686921778
 30
0.0
 40
0.0590551181
 41
0.0
 71
     1
 72
     1
  1
DRAWN
  7
SLDTEXTSTYLE1
 73
     1
 44
1.0
  0
MTEXT
  5
E8
330
1F
100
AcDbEntity
  8
0
  6
Continuous
 62
     7
370
     0
100
AcDbMText
 10
15.9424890627
 20
1.5024351582
 30
0.0
 40
0.0590551181
 41
0.0
 71
     1
 72
     1
  1
CHK'D
  7
SLDTEXTSTYLE0
 73
     1
 44
1.0
  0
MTEXT
  5
E9
330
1F
100
AcDbEntity
  8
0
  6
Continuous
 62
     7
370
     0
100
AcDbMText
 10
15.9213276539
 20
1.3411758514
 30
0.0
 40
0.0590551181
 41
0.0
 71
     1
 72
     1
  1
APPV'D
  7
SLDTEXTSTYLE0
 73
     1
 44
1.0
  0
MTEXT
  5
EA
330
1F
100
AcDbEntity
  8
0
  6
Continuous
 62
     7
370
     0
100
AcDbMText
 10
15.9497642023
 20
1.169912774
 30
0.0
 40
0.0590551181
 41
0.0
 71
     1
 72
     1
  1
MFG
  7
SLDTEXTSTYLE0
 73
     1
 44
1.0
  0
MTEXT
  5
EB
330
1F
100
AcDbEntity
  8
0
  6
Continuous
 62
     7
370
     0
100
AcDbMText
 10
15.9649227009
 20
1.0041205564
 30
0.0
 40
0.0590551181
 41
0.0
 71
     1
 72
     1
  1
Q.A
  7
SLDTEXTSTYLE0
 73
     1
 44
1.0
  0
INSERT
  5
F5
330
1F
100
AcDbEntity
  8
0
  6
Continuous
 62
     7
370
     0
100
AcDbBlockReference
  2
SW_NOTE_0
 10
15.9288845963
 20
2.4404476328
 30
0.0
  0
MTEXT
  5
F6
330
1F
100
AcDbEntity
  8
0
  6
Continuous
 62
     7
370
     0
100
AcDbMText
 10
17.25871229
 20
2.5165067715
 30
0.0
 40
0.0590551181
 41
0.0
 71
     1
 72
     1
  1
FINISH:
  7
SLDTEXTSTYLE0
 73
     1
 44
1.0
  0
INSERT
  5
FD
330
1F
100
AcDbEntity
  8
0
  6
Continuous
 62
     7
370
     0
100
AcDbBlockReference
  2
SW_NOTE_1
 10
19.1066620349
 20
2.4436806946
 30
0.0
  0
MTEXT
  5
FE
330
1F
100
AcDbEntity
  8
0
  6
Continuous
 62
     7
370
     0
100
AcDbMText
 10
16.4693794968
 20
1.8307670328
 30
0.0
 40
0.0590551181
 41
0.0
 71
     1
 72
     1
  1
NAME
  7
SLDTEXTSTYLE0
 73
     1
 44
1.0
  0
MTEXT
  5
FF
330
1F
100
AcDbEntity
  8
0
  6
Continuous
 62
     7
370
     0
100
AcDbMText
 10
17.0879365182
 20
1.8331400149
 30
0.0
 40
0.0590551181
 41
0.0
 71
     1
 72
     1
  1
SIGNATURE
  7
SLDTEXTSTYLE0
 73
     1
 44
1.0
  0
MTEXT
  5
100
330
1F
100
AcDbEntity
  8
0
  6
Continuous
 62
     7
370
     0
100
AcDbMText
 10
17.7643583451
 20
1.8337078434
 30
0.0
 40
0.0590551181
 41
0.0
 71
     1
 72
     1
  1
DATE
  7
SLDTEXTSTYLE0
 73
     1
 44
1.0
  0
MTEXT
  5
101
330
1F
100
AcDbEntity
  8
0
  6
Continuous
 62
     7
370
     0
100
AcDbMText
 10
18.0962937917
 20
1.0230730823
 30
0.0
 40
0.0590551181
 41
0.0
 71
     1
 72
     1
  1
MATERIAL:
  7
SLDTEXTSTYLE0
 73
     1
 44
1.0
  0
MTEXT
  5
102
330
1F
100
AcDbEntity
  8
0
  6
Continuous
 62
     7
370
     0
100
AcDbMText
 10
20.3391590757
 20
2.4619288809
 30
0.0
 40
0.0590551181
 41
0.0
 71
     1
 72
     1
  1
DO NOT SCALE DRAWING
  7
SLDTEXTSTYLE0
 73
     1
 44
1.0
  0
MTEXT
  5
103
330
1F
100
AcDbEntity
  8
0
  6
Continuous
 62
     7
370
     0
100
AcDbMText
 10
21.9420307756
 20
2.454130263
 30
0.0
 40
0.0590551181
 41
0.0
 71
     1
 72
     1
  1
REVISION
  7
SLDTEXTSTYLE0
 73
     1
 44
1.0
  0
MTEXT
  5
104
330
1F
100
AcDbEntity
  8
0
  6
Continuous
 62
     7
370
     0
100
AcDbMText
 10
19.8460693165
 20
1.8337078434
 30
0.0
 40
0.0590551181
 41
0.0
 71
     1
 72
     1
  1
TITLE:
  7
SLDTEXTSTYLE0
 73
     1
 44
1.0
  0
MTEXT
  5
105
330
1F
100
AcDbEntity
  8
0
  6
Continuous
 62
     7
370
     0
100
AcDbMText
 10
19.8406693786
 20
1.0230730823
 30
0.0
 40
0.0590551181
 41
0.0
 71
     1
 72
     1
  1
DWG NO.
  7
SLDTEXTSTYLE0
 73
     1
 44
1.0
  0
MTEXT
  5
106
330
1F
100
AcDbEntity
  8
0
  6
Continuous
 62
     7
370
     0
100
AcDbMText
 10
19.8454317369
 20
0.5078774518
 30
0.0
 40
0.0590551181
 41
0.0
 71
     1
 72
     1
  1
SCALE:1:2
  7
SLDTEXTSTYLE0
 73
     1
 44
1.0
  0
MTEXT
  5
108
330
1F
100
AcDbEntity
  8
0
  6
Continuous
 62
     7
370
     0
100
AcDbMText
 10
21.5936336389
 20
0.5078774518
 30
0.0
 40
0.0590551181
 41
0.0
 71
     1
 72
     1
  1
SHEET 1 OF 1
  7
SLDTEXTSTYLE2
 73
     1
 44
1.0
  0
MTEXT
  5
109
330
1F
100
AcDbEntity
  8
0
  6
Continuous
 62
     7
370
     0
100
AcDbMText
 10
22.6327226943
 20
0.9608814397
 30
0.0
 40
0.1145833333
 41
0.0
 71
     1
 72
     1
  1
A2
  7
SLDTEXTSTYLE0
 73
     1
 44
1.0
  0
MTEXT
  5
10A
330
1F
100
AcDbEntity
  8
0
  6
Continuous
 62
     7
370
     0
100
AcDbMText
 10
18.0951894145
 20
0.5098154293
 30
0.0
 40
0.059
 41
0.0
 71
     1
 72
     1
  1
WEIGHT:
  7
SLDTEXTSTYLE0
 73
     1
 44
1.0
  0
MTEXT
  5
10B
330
1F
100
AcDbEntity
  8
0
  6
Continuous
 62
     7
370
     0
100
AcDbMText
 10
21.2088126134
 20
0.9294059436
 30
0.0
 40
0.25
 41
0.0
 71
     2
 72
     1
  1
ECM Link
  7
SLDTEXTSTYLE0
 73
     1
 44
1.0
  0
LINE
  5
10C
330
1F
100
AcDbEntity
  8
0
  6
Continuous
 62
     7
370
    25
100
AcDbLine
 10
13.7339201007
 20
8.1772639715
 30
0.0
 11
13.7339201007
 21
8.3813991745
 31
0.0
  0
LINE
  5
10D
330
1F
100
AcDbEntity
  8
0
  6
Continuous
 62
     7
370
    25
100
AcDbLine
 10
13.7339201007
 20
9.4679771053
 30
0.0
 11
13.7339201007
 21
9.6721123083
 31
0.0
  0
LINE
  5
10E
330
1F
100
AcDbEntity
  8
0
  6
Continuous
 62
     7
370
    25
100
AcDbLine
 10
11.0764397858
 20
8.1772639715
 30
0.0
 11
11.0764397858
 21
8.1262301708
 31
0.0
  0
LINE
  5
10F
330
1F
100
AcDbEntity
  8
0
  6
Continuous
 62
     7
370
    25
100
AcDbLine
 10
13.7339201007
 20
8.1262301708
 30
0.0
 11
13.7339201007
 21
8.1772639715
 31
0.0
  0
LINE
  5
110
330
1F
100
AcDbEntity
  8
0
  6
Continuous
 62
     7
370
    25
100
AcDbLine
 10
11.9228964787
 20
8.1772639715
 30
0.0
 11
11.9228964787
 21
8.1262301708
 31
0.0
  0
LINE
  5
111
330
1F
100
AcDbEntity
  8
0
  6
Continuous
 62
     7
370
    25
100
AcDbLine
 10
11.0764397858
 20
9.723146109
 30
0.0
 11
11.0764397858
 21
9.6721123083
 31
0.0
  0
LINE
  5
112
330
1F
100
AcDbEntity
  8
0
  6
Continuous
 62
     7
370
    25
100
AcDbLine
 10
13.7339201007
 20
9.6721123083
 30
0.0
 11
13.7339201007
 21
9.723146109
 31
0.0
  0
LINE
  5
113
330
1F
100
AcDbEntity
  8
0
  6
Continuous
 62
     7
370
    25
100
AcDbLine
 10
11.9228964787
 20
9.723146109
 30
0.0
 11
11.9228964787
 21
9.6721123083
 31
0.0
  0
ARC
  5
114
330
1F
100
AcDbEntity
  8
0
  6
Continuous
 62
     7
370
    25
100
AcDbCircle
 10
13.1986256379
 20
8.0125981376
 30
0.0
 40
0.0861256623490834
100
AcDbArc
 50
81.9110136014
 51
143.1373968805
  0
LINE
  5
115
330
1F
100
AcDbEntity
  8
0
  6
Continuous
 62
     7
370
    25
100
AcDbLine
 10
13.1297185296
 20
8.0642647626
 30
0.0
 11
12.9059734405
 21
7.5821345056
 31
0.0
  0
LINE
  5
116
330
1F
100
AcDbEntity
  8
0
  6
Continuous
 62
     7
370
    25
100
AcDbLine
 10
12.9059734405
 20
7.5821345056
 30
0.0
 11
12.3670971418
 21
7.2710478401
 31
0.0
  0
ARC
  5
117
330
1F
100
AcDbEntity
  8
0
  6
Continuous
 62
     7
370
    25
100
AcDbCircle
 10
12.3109715465
 20
7.3808013747
 30
0.0
 40
0.1232717356057246
100
AcDbArc
 50
253.6698236494
 51
297.0842248853
  0
ARC
  5
118
330
1F
100
AcDbEntity
  8
0
  6
Continuous
 62
     7
370
    25
100
AcDbCircle
 10
12.8196224483
 20
9.3572975666
 30
0.0
 40
2.164105518815234
100
AcDbArc
 50
229.101597693
 51
255.4599956097
  0
LINE
  5
119
330
1F
100
AcDbEntity
  8
0
  6
Continuous
 62
     7
370
    25
100
AcDbLine
 10
12.8938084958
 20
8.5822869973
 30
0.0
 11
11.4027398533
 21
7.7215113921
 31
0.0
  0
LWPOLYLINE
  5
11A
330
1F
100
AcDbEntity
  8
0
  6
Continuous
 62
     7
370
    25
100
AcDbPolyline
 90
       25
 70
   128
 43
0.0
 10
12.8938084958
 20
8.5822869973
 10
12.9561950049
 20
8.6127620399
 10
13.0264575362
 20
8.6368567439
 10
13.1026584462
 20
8.6539066449
 10
13.1826963276
 20
8.6634415545
 10
13.2643639601
 20
8.6651985265
 10
13.3454091797
 20
8.6591291088
 10
13.4235969866
 20
8.6454006787
 10
13.4967711805
 20
8.6243918279
 10
13.5629138223
 20
8.5966819215
 10
13.6202008837
 20
8.563035121
 10
13.6670525481
 20
8.5243793107
 10
13.7021767783
 20
8.4817805095
 10
13.7246049463
 20
8.4364134727
 10
13.7337185464
 20
8.3895292959
 10
13.729266251
 20
8.3424209131
 10
13.7113708418
 20
8.2963874415
 10
13.6805258241
 20
8.2526983549
 10
13.637581817
 20
8.2125584758
 10
13.5837230956
 20
8.1770747495
 10
13.5204349323
 20
8.1472257175
 10
13.4494626371
 20
8.1238345323
 10
13.3727634269
 20
8.1075462574
 10
13.2924524505
 20
8.0988100774
 10
13.2107444594
 20
8.0978669119
  0
LWPOLYLINE
  5
11B
330
1F
100
AcDbEntity
  8
0
  6
Continuous
 62
     7
370
    25
100
AcDbPolyline
 90
       22
 70
   128
 43
0.0
 10
13.1304387178
 20
8.3171150712
 10
13.1025633458
 20
8.3389191056
 10
13.0870592388
 20
8.3644976806
 10
13.0853040047
 20
8.3915780275
 10
13.0974536037
 20
8.4177539386
 10
13.1224284908
 20
8.4406995694
 10
13.1580095375
 20
8.4583760998
 10
13.2010352117
 20
8.4692128927
 10
13.2476824935
 20
8.4722470513
 10
13.2938065672
 20
8.4672089774
 10
13.3353091063
 20
8.4545463259
 10
13.3685024282
 20
8.4353842291
 10
13.3904371606
 20
8.4114253232
 10
13.3991643062
 20
8.3847984622
 10
13.3939084198
 20
8.3578695597
 10
13.37513651
 20
8.3330313666
 10
13.3445165434
 20
8.3124908656
 10
13.3047692384
 20
8.2980731702
 10
13.2594263174
 20
8.2910593559
 10
13.212516698
 20
8.292072631
 10
13.1682085057
 20
8.3010229615
 10
13.1304387178
 20
8.3171150712
  0
LWPOLYLINE
  5
11C
330
1F
100
AcDbEntity
  8
0
  6
Continuous
 62
     7
370
    25
100
AcDbPolyline
 90
       19
 70
   128
 43
0.0
 10
12.4102460714
 20
7.5852356518
 10
12.3867183936
 20
7.6046330998
 10
12.3761018293
 20
7.627506138
 10
12.3796768929
 20
7.6510959404
 10
12.3970123789
 20
7.6725572287
 10
12.426017372
 20
7.6893014548
 10
12.4631934418
 20
7.6993090178
 10
12.5040566058
 20
7.7013728581
 10
12.5436781631
 20
7.695244046
 10
12.5772791694
 20
7.6816618067
 10
12.6008068472
 20
7.6622643587
 10
12.6114234115
 20
7.6393913205
 10
12.6078483479
 20
7.6158015181
 10
12.5905128618
 20
7.5943402298
 10
12.5615078688
 20
7.5775960037
 10
12.524331799
 20
7.5675884406
 10
12.483468635
 20
7.5655246003
 10
12.4438470777
 20
7.5716534124
 10
12.4102460714
 20
7.5852356518
  0
LWPOLYLINE
  5
11D
330
1F
100
AcDbEntity
  8
0
  6
Continuous
 62
     7
370
    25
100
AcDbPolyline
 90
       17
 70
   128
 43
0.0
 10
12.7058962606
 20
8.3130973148
 10
12.6909611301
 20
8.3260008511
 10
12.6857166097
 20
8.34122161
 10
12.6909611301
 20
8.3564423688
 10
12.7058962606
 20
8.3693459052
 10
12.728248263
 20
8.3779677725
 10
12.7546142475
 20
8.3809953697
 10
12.780980232
 20
8.3779677725
 10
12.8033322344
 20
8.3693459052
 10
12.8182673649
 20
8.3564423688
 10
12.8235118853
 20
8.34122161
 10
12.8182673649
 20
8.3260008511
 10
12.8033322344
 20
8.3130973148
 10
12.780980232
 20
8.3044754475
 10
12.7546142475
 20
8.3014478503
 10
12.728248263
 20
8.3044754475
 10
12.7058962606
 20
8.3130973148
  0
LWPOLYLINE
  5
11E
330
1F
100
AcDbEntity
  8
0
  6
Continuous
 62
     7
370
    25
100
AcDbPolyline
 90
       17
 70
   128
 43
0.0
 10
12.7921039393
 20
7.7699606404
 10
12.7771688088
 20
7.7828641768
 10
12.7719242884
 20
7.7980849356
 10
12.7771688088
 20
7.8133056945
 10
12.7921039393
 20
7.8262092308
 10
12.8144559417
 20
7.8348310981
 10
12.8408219262
 20
7.8378586953
 10
12.8671879107
 20
7.8348310981
 10
12.8895399131
 20
7.8262092308
 10
12.9044750436
 20
7.8133056945
 10
12.909719564
 20
7.7980849356
 10
12.9044750436
 20
7.7828641768
 10
12.8895399131
 20
7.7699606404
 10
12.8671879107
 20
7.7613387731
 10
12.8408219262
 20
7.7583111759
 10
12.8144559417
 20
7.7613387731
 10
12.7921039393
 20
7.7699606404
  0
LWPOLYLINE
  5
11F
330
1F
100
AcDbEntity
  8
0
  6
Continuous
 62
     7
370
    25
100
AcDbPolyline
 90
       17
 70
   128
 43
0.0
 10
11.8928576066
 20
7.602674703
 10
11.8779224761
 20
7.6155782393
 10
11.8726779557
 20
7.6307989982
 10
11.8779224761
 20
7.6460197571
 10
11.8928576066
 20
7.6589232934
 10
11.915209609
 20
7.6675451607
 10
11.9415755935
 20
7.6705727579
 10
11.967941578
 20
7.6675451607
 10
11.9902935804
 20
7.6589232934
 10
12.0052287109
 20
7.6460197571
 10
12.0104732313
 20
7.6307989982
 10
12.0052287109
 20
7.6155782393
 10
11.9902935804
 20
7.602674703
 10
11.967941578
 20
7.5940528357
 10
11.9415755935
 20
7.5910252385
 10
11.915209609
 20
7.5940528357
 10
11.8928576066
 20
7.602674703
  0
LINE
  5
120
330
1F
100
AcDbEntity
  8
0
  6
Continuous
 62
     7
370
    25
100
AcDbLine
 10
12.2763109643
 20
7.058367546
 30
0.0
 11
12.2763109643
 21
7.262502749
 31
0.0
  0
ARC
  5
121
330
1F
100
AcDbEntity
  8
0
  6
Continuous
 62
     7
370
    25
100
AcDbCircle
 10
12.8196224483
 20
9.1531623636
 30
0.0
 40
2.164105518815238
100
AcDbArc
 50
229.101597693
 51
255.4599956097
  0
LINE
  5
122
330
1F
100
AcDbEntity
  8
0
  6
Continuous
 62
     7
370
    25
100
AcDbLine
 10
11.4027398533
 20
7.5173761892
 30
0.0
 11
11.4027398533
 21
7.7215113921
 31
0.0
  0
LINE
  5
123
330
1F
100
AcDbEntity
  8
0
  6
Continuous
 62
     7
370
    25
100
AcDbLine
 10
12.3670971418
 20
7.2710478401
 30
0.0
 11
12.3670971418
 21
7.0669126371
 31
0.0
  0
ARC
  5
124
330
1F
100
AcDbEntity
  8
0
  6
Continuous
 62
     7
370
    25
100
AcDbCircle
 10
12.3109715465
 20
7.1766661717
 30
0.0
 40
0.1232717356057133
100
AcDbArc
 50
253.6698236494
 51
297.0842248853
  0
LINE
  5
125
330
1F
100
AcDbEntity
  8
0
  6
Continuous
 62
     7
370
    25
100
AcDbLine
 10
12.9059734405
 20
7.5821345056
 30
0.0
 11
12.9059734405
 21
7.3779993026
 31
0.0
  0
LINE
  5
126
330
1F
100
AcDbEntity
  8
0
  6
Continuous
 62
     7
370
    25
100
AcDbLine
 10
12.9059734405
 20
7.3779993026
 30
0.0
 11
12.3670971418
 21
7.0669126371
 31
0.0
  0
LINE
  5
127
330
1F
100
AcDbEntity
  8
0
  6
Continuous
 62
     7
370
    25
100
AcDbLine
 10
13.1297185296
 20
7.8601295596
 30
0.0
 11
13.1297185296
 21
8.0642647626
 31
0.0
  0
LINE
  5
128
330
1F
100
AcDbEntity
  8
0
  6
Continuous
 62
     7
370
    25
100
AcDbLine
 10
13.1297185296
 20
7.8601295596
 30
0.0
 11
12.9059734405
 21
7.3779993026
 31
0.0
  0
LINE
  5
129
330
1F
100
AcDbEntity
  8
0
  6
Continuous
 62
     7
370
    25
100
AcDbLine
 10
13.2107444594
 20
8.0978669119
 30
0.0
 11
13.2107444594
 21
7.893731709
 31
0.0
  0
LWPOLYLINE
  5
12A
330
1F
100
AcDbEntity
  8
0
  6
Continuous
 62
     7
370
    25
100
AcDbPolyline
 90
       11
 70
   128
 43
0.0
 10
13.7339201007
 20
8.1772639715
 10
13.729266251
 20
8.1382857102
 10
13.7113708418
 20
8.0922522385
 10
13.6805258241
 20
8.0485631519
 10
13.637581817
 20
8.0084232729
 10
13.5837230956
 20
7.9729395465
 10
13.5204349323
 20
7.9430905145
 10
13.4494626371
 20
7.9196993294
 10
13.3727634269
 20
7.9034110544
 10
13.2924524505
 20
7.8946748745
 10
13.2107444594
 20
7.893731709
  0
ARC
  5
12B
330
1F
100
AcDbEntity
  8
0
  6
Continuous
 62
     7
370
    25
100
AcDbCircle
 10
13.1986256379
 20
7.8084629346
 30
0.0
 40
0.0861256623491755
100
AcDbArc
 50
81.9110136015
 51
143.1373968805
  0
ARC
  5
12C
330
1F
100
AcDbEntity
  8
0
  6
Continuous
 62
     7
370
    25
100
AcDbCircle
 10
13.1986256379
 20
9.3033112713
 30
0.0
 40
0.0861256623490713
100
AcDbArc
 50
81.9110136014
 51
143.1373968805
  0
LINE
  5
12D
330
1F
100
AcDbEntity
  8
0
  6
Continuous
 62
     7
370
    25
100
AcDbLine
 10
13.1297185296
 20
9.3549778963
 30
0.0
 11
12.9059734405
 21
8.8728476394
 31
0.0
  0
LINE
  5
12E
330
1F
100
AcDbEntity
  8
0
  6
Continuous
 62
     7
370
    25
100
AcDbLine
 10
12.9059734405
 20
8.8728476394
 30
0.0
 11
12.3670971418
 21
8.5617609738
 31
0.0
  0
ARC
  5
12F
330
1F
100
AcDbEntity
  8
0
  6
Continuous
 62
     7
370
    25
100
AcDbCircle
 10
12.3109715465
 20
8.6715145084
 30
0.0
 40
0.1232717356057354
100
AcDbArc
 50
253.6698236494
 51
297.0842248853
  0
ARC
  5
130
330
1F
100
AcDbEntity
  8
0
  6
Continuous
 62
     7
370
    25
100
AcDbCircle
 10
12.8196224483
 20
10.6480107003
 30
0.0
 40
2.164105518815241
100
AcDbArc
 50
229.101597693
 51
255.4599956097
  0
LWPOLYLINE
  5
131
330
1F
100
AcDbEntity
  8
0
  6
Continuous
 62
     7
370
    25
100
AcDbPolyline
 90
       11
 70
   128
 43
0.0
 10
13.7339201007
 20
9.6721123083
 10
13.729266251
 20
9.6331340469
 10
13.7113708418
 20
9.5871005752
 10
13.6805258241
 20
9.5434114887
 10
13.637581817
 20
9.5032716096
 10
13.5837230956
 20
9.4677878832
 10
13.5204349323
 20
9.4379388512
 10
13.4494626371
 20
9.4145476661
 10
13.3727634269
 20
9.3982593911
 10
13.2924524505
 20
9.3895232112
 10
13.2107444594
 20
9.3885800457
  0
LWPOLYLINE
  5
132
330
1F
100
AcDbEntity
  8
0
  6
Continuous
 62
     7
370
    25
100
AcDbPolyline
 90
       11
 70
   128
 43
0.0
 10
13.0906442252
 20
9.6976292086
 10
13.0974536037
 20
9.7084670723
 10
13.1224284908
 20
9.7314127031
 10
13.1580095375
 20
9.7490892336
 10
13.2010352117
 20
9.7599260264
 10
13.2476824935
 20
9.762960185
 10
13.2938065672
 20
9.7579221111
 10
13.3353091063
 20
9.7452594597
 10
13.3685024282
 20
9.7260973628
 10
13.3904371606
 20
9.7021384569
 10
13.3929440077
 20
9.6976292086
  0
ARC
  5
133
330
1F
100
AcDbEntity
  8
0
  6
Continuous
 62
     7
370
    25
100
AcDbCircle
 10
12.4937626204
 20
8.841288051
 30
0.0
 40
0.1540935249711749
100
AcDbArc
 50
44.7011210911
 51
135.2988789089
  0
ARC
  5
134
330
1F
100
AcDbEntity
  8
0
  6
Continuous
 62
     7
370
    25
100
AcDbCircle
 10
12.7546142475
 20
9.5743916916
 30
0.0
 40
0.0984483632016158
100
AcDbArc
 50
57.5319080449
 51
122.4680919551
  0
ARC
  5
135
330
1F
100
AcDbEntity
  8
0
  6
Continuous
 62
     7
370
    25
100
AcDbCircle
 10
12.8408219262
 20
9.0312550172
 30
0.0
 40
0.0984483632909861
100
AcDbArc
 50
57.5319081744
 51
122.468091822
  0
ARC
  5
136
330
1F
100
AcDbEntity
  8
0
  6
Continuous
 62
     7
370
    25
100
AcDbCircle
 10
11.9415755935
 20
8.8639690798
 30
0.0
 40
0.0984483632016244
100
AcDbArc
 50
57.5319080449
 51
122.4680919551
  0
LINE
  5
137
330
1F
100
AcDbEntity
  8
0
  6
Continuous
 62
     7
370
    25
100
AcDbLine
 10
12.2763109643
 20
8.3490806798
 30
0.0
 11
12.2763109643
 21
8.5532158827
 31
0.0
  0
ARC
  5
138
330
1F
100
AcDbEntity
  8
0
  6
Continuous
 62
     7
370
    25
100
AcDbCircle
 10
12.8196224483
 20
10.4438754974
 30
0.0
 40
2.16410551881528
100
AcDbArc
 50
229.101597693
 51
255.4599956097
  0
LINE
  5
139
330
1F
100
AcDbEntity
  8
0
  6
Continuous
 62
     7
370
    25
100
AcDbLine
 10
11.4027398533
 20
8.8080893229
 30
0.0
 11
11.4027398533
 21
9.0122245259
 31
0.0
  0
LINE
  5
13A
330
1F
100
AcDbEntity
  8
0
  6
Continuous
 62
     7
370
    25
100
AcDbLine
 10
12.3670971418
 20
8.5617609738
 30
0.0
 11
12.3670971418
 21
8.3576257709
 31
0.0
  0
ARC
  5
13B
330
1F
100
AcDbEntity
  8
0
  6
Continuous
 62
     7
370
    25
100
AcDbCircle
 10
12.3109715465
 20
8.4673793054
 30
0.0
 40
0.1232717356057339
100
AcDbArc
 50
253.6698236494
 51
297.0842248853
  0
LINE
  5
13C
330
1F
100
AcDbEntity
  8
0
  6
Continuous
 62
     7
370
    25
100
AcDbLine
 10
12.9059734405
 20
8.8728476394
 30
0.0
 11
12.9059734405
 21
8.6687124364
 31
0.0
  0
LINE
  5
13D
330
1F
100
AcDbEntity
  8
0
  6
Continuous
 62
     7
370
    25
100
AcDbLine
 10
12.9059734405
 20
8.6687124364
 30
0.0
 11
12.3670971418
 21
8.3576257709
 31
0.0
  0
LINE
  5
13E
330
1F
100
AcDbEntity
  8
0
  6
Continuous
 62
     7
370
    25
100
AcDbLine
 10
13.1297185296
 20
9.1508426934
 30
0.0
 11
13.1297185296
 21
9.3549778963
 31
0.0
  0
LINE
  5
13F
330
1F
100
AcDbEntity
  8
0
  6
Continuous
 62
     7
370
    25
100
AcDbLine
 10
13.1297185296
 20
9.1508426934
 30
0.0
 11
12.9059734405
 21
8.6687124364
 31
0.0
  0
LINE
  5
140
330
1F
100
AcDbEntity
  8
0
  6
Continuous
 62
     7
370
    25
100
AcDbLine
 10
13.2107444594
 20
9.3885800457
 30
0.0
 11
13.2107444594
 21
9.1844448427
 31
0.0
  0
LWPOLYLINE
  5
141
330
1F
100
AcDbEntity
  8
0
  6
Continuous
 62
     7
370
    25
100
AcDbPolyline
 90
       11
 70
   128
 43
0.0
 10
13.7339201007
 20
9.4679771053
 10
13.729266251
 20
9.4289988439
 10
13.7113708418
 20
9.3829653723
 10
13.6805258241
 20
9.3392762857
 10
13.637581817
 20
9.2991364066
 10
13.5837230956
 20
9.2636526802
 10
13.5204349323
 20
9.2338036482
 10
13.4494626371
 20
9.2104124631
 10
13.3727634269
 20
9.1941241881
 10
13.2924524505
 20
9.1853880082
 10
13.2107444594
 20
9.1844448427
  0
ARC
  5
142
330
1F
100
AcDbEntity
  8
0
  6
Continuous
 62
     7
370
    25
100
AcDbCircle
 10
13.1986256379
 20
9.0991760683
 30
0.0
 40
0.0861256623491694
100
AcDbArc
 50
81.9110136015
 51
143.1373968805
  0
LINE
  5
143
330
1F
100
AcDbEntity
  8
0
  6
Continuous
 62
     7
370
    25
100
AcDbLine
 10
19.986392623
 20
13.645798343
 30
0.0
 11
20.5014045541
 21
13.9431084024
 31
0.0
  0
LINE
  5
144
330
1F
100
AcDbEntity
  8
0
  6
Continuous
 62
     7
370
    25
100
AcDbLine
 10
21.857564576
 20
13.9431084024
 30
0.0
 11
20.5014045541
 21
13.9431084024
 31
0.0
  0
LINE
  5
145
330
1F
100
AcDbEntity
  8
0
  6
Continuous
 62
     7
370
    25
100
AcDbLine
 10
21.857564576
 20
13.9431084024
 30
0.0
 11
21.857564576
 21
13.4081788012
 31
0.0
  0
LINE
  5
146
330
1F
100
AcDbEntity
  8
0
  6
Continuous
 62
     7
370
    25
100
AcDbLine
 10
21.857564576
 20
13.4081788012
 30
0.0
 11
21.3596026753
 21
13.1207115148
 31
0.0
  0
LINE
  5
147
330
1F
100
AcDbEntity
  8
0
  6
Continuous
 62
     7
370
    25
100
AcDbLine
 10
21.4987969235
 20
13.0403563857
 30
0.0
 11
21.3596026753
 21
13.1207115148
 31
0.0
  0
LINE
  5
148
330
1F
100
AcDbEntity
  8
0
  6
Continuous
 62
     7
370
    25
100
AcDbLine
 10
21.4987969235
 20
13.0403563857
 30
0.0
 11
13.6703309301
 21
8.5210791632
 31
0.0
  0
LWPOLYLINE
  5
149
330
1F
100
AcDbEntity
  8
0
  6
Continuous
 62
     7
370
    25
100
AcDbPolyline
 90
       11
 70
   128
 43
0.0
 10
13.7339201007
 20
8.1772639715
 10
13.7290416573
 20
8.1373608262
 10
13.7109385302
 20
8.0914604823
 10
13.6799543717
 20
8.0479159959
 10
13.636939896
 20
8.0079229435
 10
13.5830761273
 20
7.9725793914
 10
13.5198419723
 20
7.9428557475
 10
13.4489736154
 20
7.9195681169
 10
13.3724168488
 20
7.903355895
 10
13.292273648
 20
7.8946642115
 10
13.2107444594
 20
7.893731709
  0
LWPOLYLINE
  5
14A
330
1F
100
AcDbEntity
  8
0
  6
Continuous
 62
     7
370
    25
100
AcDbPolyline
 90
       23
 70
   128
 43
0.0
 10
12.2763109643
 20
7.058367546
 10
12.126515543
 20
7.1057904387
 10
11.9836625871
 20
7.1598831161
 10
11.8486413378
 20
7.2203088582
 10
11.7222922851
 20
7.2866915224
 10
11.6054019353
 20
7.3586178854
 10
11.498697916
 20
7.4356402148
 10
11.4028444458
 20
7.5172790565
 10
11.3184382004
 20
7.6030262192
 10
11.2460045976
 20
7.6923479379
 10
11.1859945273
 20
7.7846881964
 10
11.1387815445
 20
7.8794721885
 10
11.1046595438
 20
7.9761098961
 10
11.0838409305
 20
8.0739997618
 10
11.0764552976
 20
8.172532434
 10
11.0825486197
 20
8.2710945593
 10
11.1020829668
 20
8.3690726014
 10
11.1349367399
 20
8.4658566595
 10
11.1809054287
 20
8.5608442652
 10
11.2397028839
 20
8.6534441331
 10
11.310963099
 20
8.7430798409
 10
11.3942424884
 20
8.8291934178
 10
11.4027398533
 20
8.8371517539
  0
LWPOLYLINE
  5
14B
330
1F
100
AcDbEntity
  8
0
  6
Continuous
 62
     7
370
    25
100
AcDbPolyline
 90
        3
 70
   128
 43
0.0
 10
11.6756491666
 20
7.8790585852
 10
11.645430053
 20
7.9005015864
 10
11.6255796433
 20
7.9272618136
  0
ARC
  5
14C
330
1F
100
AcDbEntity
  8
0
  6
Continuous
 62
     7
370
    25
100
AcDbCircle
 10
12.391903039
 20
8.1780859124
 30
0.0
 40
0.468181255168134
100
AcDbArc
 50
145.7069745057
 51
197.7738660036
  0
ARC
  5
14D
330
1F
100
AcDbEntity
  8
0
  6
Continuous
 62
     7
370
    25
100
AcDbCircle
 10
13.2415389074
 20
6.6811391151
 30
0.0
 40
2.257560478917067
100
AcDbArc
 50
81.2966471866
 51
95.4657534302
  0
LWPOLYLINE
  5
14E
330
1F
100
AcDbEntity
  8
0
  6
Continuous
 62
     7
370
    25
100
AcDbPolyline
 90
       12
 70
   128
 43
0.0
 10
13.6748574793
 20
9.110284727
 10
13.7212125751
 20
9.0988253294
 10
13.7600974572
 20
9.0802908908
 10
13.7883619036
 20
9.056182961
 10
13.803716097
 20
9.0284546212
 10
13.804916132
 20
8.9993522566
 10
13.7918647889
 20
8.9712335676
 10
13.7656194099
 20
8.9463765632
 10
13.7283062395
 20
8.9267950102
 10
13.6829481688
 20
8.9140752893
 10
13.633219839
 20
8.9092478769
 10
13.5831499437
 20
8.9127038611
  0
ARC
  5
14F
330
1F
100
AcDbEntity
  8
0
  6
Continuous
 62
     7
370
    25
100
AcDbCircle
 10
12.1784600035
 20
8.1797550976
 30
0.0
 40
0.6078071660344128
100
AcDbArc
 50
138.9712210541
 51
204.545564623
  0
ARC
  5
150
330
1F
100
AcDbEntity
  8
0
  6
Continuous
 62
     7
370
    25
100
AcDbCircle
 10
13.2420291469
 20
6.2842734294
 30
0.0
 40
2.858964885971091
100
AcDbArc
 50
81.292316905
 51
92.3444223173
  0
LWPOLYLINE
  5
151
330
1F
100
AcDbEntity
  8
0
  6
Continuous
 62
     7
370
    25
100
AcDbPolyline
 90
       17
 70
   128
 43
0.0
 10
21.6418134912
 20
13.657847694
 10
21.6268783607
 20
13.6707512304
 10
21.6216338403
 20
13.6859719892
 10
21.6268783607
 20
13.7011927481
 10
21.6418134912
 20
13.7140962844
 10
21.6641654936
 20
13.7227181517
 10
21.6905314781
 20
13.7257457489
 10
21.7168974626
 20
13.7227181517
 10
21.739249465
 20
13.7140962844
 10
21.7541845955
 20
13.7011927481
 10
21.7594291159
 20
13.6859719892
 10
21.7541845955
 20
13.6707512304
 10
21.739249465
 20
13.657847694
 10
21.7168974626
 20
13.6492258267
 10
21.6905314781
 20
13.6461982295
 10
21.6641654936
 20
13.6492258267
 10
21.6418134912
 20
13.657847694
  0
LWPOLYLINE
  5
152
330
1F
100
AcDbEntity
  8
0
  6
Continuous
 62
     7
370
    25
100
AcDbPolyline
 90
       17
 70
   128
 43
0.0
 10
20.3890652568
 20
13.5774925649
 10
20.3741301263
 20
13.5903961012
 10
20.3688856059
 20
13.6056168601
 10
20.3741301263
 20
13.620837619
 10
20.3890652568
 20
13.6337411553
 10
20.4114172592
 20
13.6423630226
 10
20.4377832437
 20
13.6453906198
 10
20.4641492282
 20
13.6423630226
 10
20.4865012306
 20
13.6337411553
 10
20.5014363611
 20
13.620837619
 10
20.5066808815
 20
13.6056168601
 10
20.5014363611
 20
13.5903961012
 10
20.4865012306
 20
13.5774925649
 10
20.4641492282
 20
13.5688706976
 10
20.4377832437
 20
13.5658431004
 10
20.4114172592
 20
13.5688706976
 10
20.3890652568
 20
13.5774925649
  0
LWPOLYLINE
  5
153
330
1F
100
AcDbEntity
  8
0
  6
Continuous
 62
     7
370
    25
100
AcDbPolyline
 90
       17
 70
   128
 43
0.0
 10
18.9748516944
 20
12.7610844531
 10
18.9599165639
 20
12.7739879894
 10
18.9546720435
 20
12.7892087483
 10
18.9599165639
 20
12.8044295072
 10
18.9748516944
 20
12.8173330435
 10
18.9972036968
 20
12.8259549108
 10
19.0235696813
 20
12.828982508
 10
19.0499356658
 20
12.8259549108
 10
19.0722876682
 20
12.8173330435
 10
19.0872227987
 20
12.8044295072
 10
19.0924673191
 20
12.7892087483
 10
19.0872227987
 20
12.7739879894
 10
19.0722876682
 20
12.7610844531
 10
19.0499356658
 20
12.7524625858
 10
19.0235696813
 20
12.7494349886
 10
18.9972036968
 20
12.7524625858
 10
18.9748516944
 20
12.7610844531
  0
LWPOLYLINE
  5
154
330
1F
100
AcDbEntity
  8
0
  6
Continuous
 62
     7
370
    25
100
AcDbPolyline
 90
       17
 70
   128
 43
0.0
 10
20.2275999288
 20
12.8414395822
 10
20.2126647983
 20
12.8543431185
 10
20.2074202779
 20
12.8695638774
 10
20.2126647983
 20
12.8847846363
 10
20.2275999288
 20
12.8976881726
 10
20.2499519312
 20
12.9063100399
 10
20.2763179157
 20
12.9093376371
 10
20.3026839002
 20
12.9063100399
 10
20.3250359026
 20
12.8976881726
 10
20.3399710331
 20
12.8847846363
 10
20.3452155535
 20
12.8695638774
 10
20.3399710331
 20
12.8543431185
 10
20.3250359026
 20
12.8414395822
 10
20.3026839002
 20
12.8328177149
 10
20.2763179157
 20
12.8297901177
 10
20.2499519312
 20
12.8328177149
 10
20.2275999288
 20
12.8414395822
  0
LWPOLYLINE
  5
155
330
1F
100
AcDbEntity
  8
0
  6
Continuous
 62
     7
370
    25
100
AcDbPolyline
 90
       17
 70
   128
 43
0.0
 10
18.8133863664
 20
12.0250314704
 10
18.7984512359
 20
12.0379350067
 10
18.7932067155
 20
12.0531557656
 10
18.7984512359
 20
12.0683765245
 10
18.8133863664
 20
12.0812800608
 10
18.8357383688
 20
12.0899019281
 10
18.8621043533
 20
12.0929295253
 10
18.8884703378
 20
12.0899019281
 10
18.9108223402
 20
12.0812800608
 10
18.9257574707
 20
12.0683765245
 10
18.9310019911
 20
12.0531557656
 10
18.9257574707
 20
12.0379350067
 10
18.9108223402
 20
12.0250314704
 10
18.8884703378
 20
12.0164096031
 10
18.8621043533
 20
12.0133820059
 10
18.8357383688
 20
12.0164096031
 10
18.8133863664
 20
12.0250314704
  0
LWPOLYLINE
  5
156
330
1F
100
AcDbEntity
  8
0
  6
Continuous
 62
     7
370
    25
100
AcDbPolyline
 90
       17
 70
   128
 43
0.0
 10
20.0884056805
 20
12.6968003498
 10
20.0777377302
 20
12.7060171615
 10
20.0739916442
 20
12.7168891321
 10
20.0777377302
 20
12.7277611027
 10
20.0884056805
 20
12.7369779144
 10
20.1043713965
 20
12.743136391
 10
20.1232042426
 20
12.7452989604
 10
20.1420370887
 20
12.743136391
 10
20.1580028047
 20
12.7369779144
 10
20.168670755
 20
12.7277611027
 10
20.172416841
 20
12.7168891321
 10
20.168670755
 20
12.7060171615
 10
20.1580028047
 20
12.6968003498
 10
20.1420370887
 20
12.6906418732
 10
20.1232042426
 20
12.6884793037
 10
20.1043713965
 20
12.6906418732
 10
20.0884056805
 20
12.6968003498
  0
LWPOLYLINE
  5
157
330
1F
100
AcDbEntity
  8
0
  6
Continuous
 62
     7
370
    25
100
AcDbPolyline
 90
       19
 70
   128
 43
0.0
 10
20.4572704384
 20
12.909741442
 10
20.4337427606
 20
12.92913889
 10
20.4231261963
 20
12.9520119282
 10
20.4267012599
 20
12.9756017306
 10
20.444036746
 20
12.9970630189
 10
20.473041739
 20
13.013807245
 10
20.5102178088
 20
13.0238148081
 10
20.5510809728
 20
13.0258786483
 10
20.5907025301
 20
13.0197498362
 10
20.6243035364
 20
13.0061675969
 10
20.6478312142
 20
12.9867701489
 10
20.6584477785
 20
12.9638971107
 10
20.6548727149
 20
12.9403073083
 10
20.6375372289
 20
12.91884602
 10
20.6085322358
 20
12.9021017939
 10
20.571356166
 20
12.8920942308
 10
20.530493002
 20
12.8900303905
 10
20.4908714447
 20
12.8961592026
 10
20.4572704384
 20
12.909741442
  0
LWPOLYLINE
  5
158
330
1F
100
AcDbEntity
  8
0
  6
Continuous
 62
     7
370
    25
100
AcDbPolyline
 90
        3
 70
   128
 43
0.0
 10
19.2811504049
 20
13.2549846374
 10
19.2973743066
 20
13.2480365355
 10
19.3034519773
 20
13.2440226974
  0
LWPOLYLINE
  5
159
330
1F
100
AcDbEntity
  8
0
  6
Continuous
 62
     7
370
    25
100
AcDbPolyline
 90
        3
 70
   128
 43
0.0
 10
13.7133804743
 20
10.0407794728
 10
13.729604376
 20
10.0338313709
 10
13.7356820467
 20
10.0298175327
  0
LWPOLYLINE
  5
15A
330
1F
100
AcDbEntity
  8
0
  6
Continuous
 62
     7
370
    25
100
AcDbPolyline
 90
        3
 70
   128
 43
0.0
 10
15.1053229569
 20
10.8443307639
 10
15.1215468586
 20
10.8373826621
 10
15.1276245293
 20
10.833368824
  0
LWPOLYLINE
  5
15B
330
1F
100
AcDbEntity
  8
0
  6
Continuous
 62
     7
370
    25
100
AcDbPolyline
 90
        3
 70
   128
 43
0.0
 10
16.4972654396
 20
11.6478820551
 10
16.5134893413
 20
11.6409339532
 10
16.5195670121
 20
11.6369201151
  0
LWPOLYLINE
  5
15C
330
1F
100
AcDbEntity
  8
0
  6
Continuous
 62
     7
370
    25
100
AcDbPolyline
 90
        3
 70
   128
 43
0.0
 10
17.8892079222
 20
12.4514333463
 10
17.9054318239
 20
12.4444852444
 10
17.9115094947
 20
12.4404714062
  0
LINE
  5
15D
330
1F
100
AcDbEntity
  8
0
  6
Continuous
 62
     7
370
    25
100
AcDbLine
 10
12.2763109643
 20
7.0073337453
 30
0.0
 11
12.2763109643
 21
7.058367546
 31
0.0
  0
LWPOLYLINE
  5
15E
330
1F
100
AcDbEntity
  8
0
  6
Continuous
 62
     7
370
    25
100
AcDbPolyline
 90
       16
 70
   128
 43
0.0
 10
12.2763109643
 20
7.0073337453
 10
12.126515543
 20
7.054756638
 10
11.9836625871
 20
7.1088493154
 10
11.8486413378
 20
7.1692750574
 10
11.7222922851
 20
7.2356577217
 10
11.6054019353
 20
7.3075840847
 10
11.498697916
 20
7.3846064141
 10
11.4028444458
 20
7.4662452557
 10
11.3184382004
 20
7.5519924184
 10
11.2460045976
 20
7.6413141371
 10
11.1859945273
 20
7.7336543956
 10
11.1387815445
 20
7.8284383877
 10
11.1046595438
 20
7.9250760953
 10
11.0838409305
 20
8.0229659611
 10
11.0764552976
 20
8.1214986332
 10
11.0764397858
 20
8.1262301708
  0
LINE
  5
15F
330
1F
100
AcDbEntity
  8
0
  6
Continuous
 62
     7
370
    25
100
AcDbLine
 10
12.3670971418
 20
7.0669126371
 30
0.0
 11
12.3670971418
 21
7.0158788364
 31
0.0
  0
ARC
  5
160
330
1F
100
AcDbEntity
  8
0
  6
Continuous
 62
     7
370
    25
100
AcDbCircle
 10
12.3109715465
 20
7.1256323709
 30
0.0
 40
0.1232717356057347
100
AcDbArc
 50
253.6698236494
 51
297.0842248853
  0
LINE
  5
161
330
1F
100
AcDbEntity
  8
0
  6
Continuous
 62
     7
370
    25
100
AcDbLine
 10
12.9059734405
 20
7.3779993026
 30
0.0
 11
12.9059734405
 21
7.3269655019
 31
0.0
  0
LINE
  5
162
330
1F
100
AcDbEntity
  8
0
  6
Continuous
 62
     7
370
    25
100
AcDbLine
 10
12.9059734405
 20
7.3269655019
 30
0.0
 11
12.3670971418
 21
7.0158788364
 31
0.0
  0
LINE
  5
163
330
1F
100
AcDbEntity
  8
0
  6
Continuous
 62
     7
370
    25
100
AcDbLine
 10
13.1297185296
 20
7.8090957589
 30
0.0
 11
13.1297185296
 21
7.8601295596
 31
0.0
  0
LINE
  5
164
330
1F
100
AcDbEntity
  8
0
  6
Continuous
 62
     7
370
    25
100
AcDbLine
 10
13.1297185296
 20
7.8090957589
 30
0.0
 11
12.9059734405
 21
7.3269655019
 31
0.0
  0
LINE
  5
165
330
1F
100
AcDbEntity
  8
0
  6
Continuous
 62
     7
370
    25
100
AcDbLine
 10
13.2107444594
 20
7.893731709
 30
0.0
 11
13.2107444594
 21
7.8426979082
 31
0.0
  0
LWPOLYLINE
  5
166
330
1F
100
AcDbEntity
  8
0
  6
Continuous
 62
     7
370
    25
100
AcDbPolyline
 90
       11
 70
   128
 43
0.0
 10
13.7339201007
 20
8.1262301708
 10
13.7290416573
 20
8.0863270255
 10
13.7109385302
 20
8.0404266815
 10
13.6799543717
 20
7.9968821952
 10
13.636939896
 20
7.9568891427
 10
13.5830761273
 20
7.9215455906
 10
13.5198419723
 20
7.8918219467
 10
13.4489736154
 20
7.8685343162
 10
13.3724168488
 20
7.8523220943
 10
13.292273648
 20
7.8436304108
 10
13.2107444594
 20
7.8426979082
  0
ARC
  5
167
330
1F
100
AcDbEntity
  8
0
  6
Continuous
 62
     7
370
    25
100
AcDbCircle
 10
13.1986256379
 20
7.7574291339
 30
0.0
 40
0.0861256623490911
100
AcDbArc
 50
81.9110136015
 51
143.1373968805
  0
LINE
  5
168
330
1F
100
AcDbEntity
  8
0
  6
Continuous
 62
     7
370
    25
100
AcDbLine
 10
13.6748574793
 20
9.0592509262
 30
0.0
 11
13.6748574793
 21
9.110284727
 31
0.0
  0
ARC
  5
169
330
1F
100
AcDbEntity
  8
0
  6
Continuous
 62
     7
370
    25
100
AcDbCircle
 10
12.2532573038
 20
8.0970157468
 30
0.0
 40
0.6862934719448343
100
AcDbArc
 50
137.2920924785
 51
175.4258527039
  0
ARC
  5
16A
330
1F
100
AcDbEntity
  8
0
  6
Continuous
 62
     7
370
    25
100
AcDbCircle
 10
13.2418898479
 20
6.2319534764
 30
0.0
 40
2.860257303093097
100
AcDbArc
 50
81.293459144
 51
92.8255065378
  0
LWPOLYLINE
  5
16B
330
1F
100
AcDbEntity
  8
0
  6
Continuous
 62
     7
370
    25
100
AcDbPolyline
 90
        3
 70
   128
 43
0.0
 10
11.93388823
 20
8.0281368233
 10
11.924703982
 20
8.0863824425
 10
11.9228964787
 20
8.1262301708
  0
LINE
  5
16C
330
1F
100
AcDbEntity
  8
0
  6
Continuous
 62
     7
370
    25
100
AcDbLine
 10
21.4987969235
 20
13.0403563857
 30
0.0
 11
21.4987969235
 21
12.9893225849
 31
0.0
  0
LINE
  5
16D
330
1F
100
AcDbEntity
  8
0
  6
Continuous
 62
     7
370
    25
100
AcDbLine
 10
21.4987969235
 20
12.9893225849
 30
0.0
 11
13.6989567278
 21
8.4865706837
 31
0.0
  0
ARC
  5
16E
330
1F
100
AcDbEntity
  8
0
  6
Continuous
 62
     7
370
    25
100
AcDbCircle
 10
13.6673831592
 20
8.9019570427
 30
0.0
 40
0.1574713664523134
100
AcDbArc
 50
32.2462760851
 51
87.2794548809
  0
ARC
  5
16F
330
1F
100
AcDbEntity
  8
0
  6
Continuous
 62
     7
370
    25
100
AcDbCircle
 10
18.8621043533
 20
11.9445789128
 30
0.0
 40
0.0984483632015842
100
AcDbArc
 50
57.5319080449
 51
122.4680919551
  0
ARC
  5
170
330
1F
100
AcDbEntity
  8
0
  6
Continuous
 62
     7
370
    25
100
AcDbCircle
 10
20.1232042426
 20
12.6133532522
 30
0.0
 40
0.0809634548927466
100
AcDbArc
 50
74.5003410103
 51
105.4996589897
  0
ARC
  5
171
330
1F
100
AcDbEntity
  8
0
  6
Continuous
 62
     7
370
    25
100
AcDbCircle
 10
19.0235696813
 20
12.6806318955
 30
0.0
 40
0.0984483632016202
100
AcDbArc
 50
57.5319080449
 51
122.4680919551
  0
ARC
  5
172
330
1F
100
AcDbEntity
  8
0
  6
Continuous
 62
     7
370
    25
100
AcDbCircle
 10
20.2763179157
 20
12.7609870246
 30
0.0
 40
0.0984483632016437
100
AcDbArc
 50
57.5319080449
 51
122.4680919551
  0
ARC
  5
173
330
1F
100
AcDbEntity
  8
0
  6
Continuous
 62
     7
370
    25
100
AcDbCircle
 10
20.5407869874
 20
12.8240469067
 30
0.0
 40
0.154093524971063
100
AcDbArc
 50
44.701121091
 51
135.298878909
  0
LINE
  5
174
330
1F
100
AcDbEntity
  8
0
  6
Continuous
 62
     7
370
    25
100
AcDbLine
 10
21.857564576
 20
13.4081788012
 30
0.0
 11
21.857564576
 21
13.3571450004
 31
0.0
  0
LINE
  5
175
330
1F
100
AcDbEntity
  8
0
  6
Continuous
 62
     7
370
    25
100
AcDbLine
 10
21.857564576
 20
13.3571450004
 30
0.0
 11
21.4038040325
 21
13.0951946144
 31
0.0
  0
ARC
  5
176
330
1F
100
AcDbEntity
  8
0
  6
Continuous
 62
     7
370
    25
100
AcDbCircle
 10
20.4377832437
 20
13.4970400073
 30
0.0
 40
0.0984483632016206
100
AcDbArc
 50
57.5319080449
 51
122.4680919551
  0
ARC
  5
177
330
1F
100
AcDbEntity
  8
0
  6
Continuous
 62
     7
370
    25
100
AcDbCircle
 10
21.6905314781
 20
13.5773951364
 30
0.0
 40
0.0984483632016297
100
AcDbArc
 50
57.5319080449
 51
122.4680919551
  0
LINE
  5
178
330
1F
100
AcDbEntity
  8
0
  6
Continuous
 62
     7
370
    25
100
AcDbLine
 10
19.7775944631
 20
15.2639961783
 30
0.0
 11
11.7106573855
 21
10.6070525293
 31
0.0
  0
LINE
  5
179
330
1F
100
AcDbEntity
  8
0
  6
Continuous
 62
     7
370
    25
100
AcDbLine
 10
19.7775944631
 20
15.2639961783
 30
0.0
 11
19.944627561
 21
15.1675700234
 31
0.0
  0
LINE
  5
17A
330
1F
100
AcDbEntity
  8
0
  6
Continuous
 62
     7
370
    25
100
AcDbLine
 10
19.944627561
 20
15.1675700234
 30
0.0
 11
20.5014045541
 21
15.4889905399
 31
0.0
  0
LINE
  5
17B
330
1F
100
AcDbEntity
  8
0
  6
Continuous
 62
     7
370
    25
100
AcDbLine
 10
21.857564576
 20
15.4889905399
 30
0.0
 11
20.5014045541
 21
15.4889905399
 31
0.0
  0
LINE
  5
17C
330
1F
100
AcDbEntity
  8
0
  6
Continuous
 62
     7
370
    25
100
AcDbLine
 10
21.857564576
 20
15.4889905399
 30
0.0
 11
21.857564576
 21
14.9540609386
 31
0.0
  0
LINE
  5
17D
330
1F
100
AcDbEntity
  8
0
  6
Continuous
 62
     7
370
    25
100
AcDbLine
 10
21.857564576
 20
14.9540609386
 30
0.0
 11
21.3596026753
 21
14.6665936523
 31
0.0
  0
LINE
  5
17E
330
1F
100
AcDbEntity
  8
0
  6
Continuous
 62
     7
370
    25
100
AcDbLine
 10
21.4987969235
 20
14.5862385231
 30
0.0
 11
21.3596026753
 21
14.6665936523
 31
0.0
  0
LINE
  5
17F
330
1F
100
AcDbEntity
  8
0
  6
Continuous
 62
     7
370
    25
100
AcDbLine
 10
21.4987969235
 20
14.5862385231
 30
0.0
 11
13.560979783
 21
10.0038342271
 31
0.0
  0
LWPOLYLINE
  5
180
330
1F
100
AcDbEntity
  8
0
  6
Continuous
 62
     7
370
    25
100
AcDbPolyline
 90
        9
 70
   128
 43
0.0
 10
13.5649521904
 20
9.9374099594
 10
13.5539471092
 20
9.9442032069
 10
13.5455676297
 20
9.9521473818
 10
13.5401645898
 20
9.9609098718
 10
13.537964208
 20
9.9701238028
 10
13.5390586111
 20
9.9794033995
 10
13.5434019781
 20
9.9883601374
 10
13.5508124578
 20
9.9966190093
 10
13.560979783
 20
10.0038342271
  0
LWPOLYLINE
  5
181
330
1F
100
AcDbEntity
  8
0
  6
Continuous
 62
     7
370
    25
100
AcDbPolyline
 90
       16
 70
   128
 43
0.0
 10
13.5649521904
 20
9.9374099594
 10
13.621804869
 20
9.9036626126
 10
13.6682238084
 20
9.8649589267
 10
13.70293451
 20
9.8223615669
 10
13.724983942
 20
9.7770401047
 10
13.7337667055
 20
9.7302389056
 10
13.7290416573
 20
9.6832429637
 10
13.7109385302
 20
9.6373426197
 10
13.6799543717
 20
9.5937981334
 10
13.636939896
 20
9.5538050809
 10
13.5830761273
 20
9.5184615288
 10
13.5198419723
 20
9.4887378849
 10
13.4489736154
 20
9.4654502544
 10
13.3724168488
 20
9.4492380325
 10
13.292273648
 20
9.440546349
 10
13.2107444594
 20
9.4396138464
  0
ARC
  5
182
330
1F
100
AcDbEntity
  8
0
  6
Continuous
 62
     7
370
    25
100
AcDbCircle
 10
13.1986256379
 20
9.3543450721
 30
0.0
 40
0.0861256623490804
100
AcDbArc
 50
81.9110136015
 51
143.1373968805
  0
LINE
  5
183
330
1F
100
AcDbEntity
  8
0
  6
Continuous
 62
     7
370
    25
100
AcDbLine
 10
13.1297185296
 20
9.4060116971
 30
0.0
 11
12.9059734405
 21
8.9238814401
 31
0.0
  0
LINE
  5
184
330
1F
100
AcDbEntity
  8
0
  6
Continuous
 62
     7
370
    25
100
AcDbLine
 10
12.9059734405
 20
8.9238814401
 30
0.0
 11
12.3670971418
 21
8.6127947746
 31
0.0
  0
ARC
  5
185
330
1F
100
AcDbEntity
  8
0
  6
Continuous
 62
     7
370
    25
100
AcDbCircle
 10
12.3109715465
 20
8.7225483092
 30
0.0
 40
0.1232717356057362
100
AcDbArc
 50
253.6698236494
 51
297.0842248853
  0
LWPOLYLINE
  5
186
330
1F
100
AcDbEntity
  8
0
  6
Continuous
 62
     7
370
    25
100
AcDbPolyline
 90
       25
 70
   128
 43
0.0
 10
12.2763109643
 20
8.6042496835
 10
12.126515543
 20
8.6516725762
 10
11.9836625871
 20
8.7057652536
 10
11.8486413378
 20
8.7661909956
 10
11.7222922851
 20
8.8325736599
 10
11.6054019353
 20
8.9045000229
 10
11.498697916
 20
8.9815223523
 10
11.4028444458
 20
9.0631611939
 10
11.3184382004
 20
9.1489083566
 10
11.2460045976
 20
9.2382300753
 10
11.1859945273
 20
9.3305703338
 10
11.1387815445
 20
9.4253543259
 10
11.1046595438
 20
9.5219920335
 10
11.0838409305
 20
9.6198818993
 10
11.0764552976
 20
9.7184145714
 10
11.0825486197
 20
9.8169766968
 10
11.1020829668
 20
9.9149547389
 10
11.1349367399
 20
10.0117387969
 10
11.1809054287
 20
10.1067264027
 10
11.2397028839
 20
10.1993262706
 10
11.310963099
 20
10.2889619783
 10
11.3942424884
 20
10.3750755552
 10
11.4890226484
 20
10.4571309553
 10
11.594713585
 20
10.5346173944
 10
11.7106573855
 20
10.6070525293
  0
LWPOLYLINE
  5
187
330
1F
100
AcDbEntity
  8
0
  6
Continuous
 62
     7
370
    25
100
AcDbPolyline
 90
       22
 70
   128
 43
0.0
 10
13.1304387178
 20
9.6588620057
 10
13.1025633458
 20
9.6806660401
 10
13.0870592388
 20
9.7062446151
 10
13.0853040047
 20
9.733324962
 10
13.0974536037
 20
9.7595008731
 10
13.1224284908
 20
9.7824465039
 10
13.1580095375
 20
9.8001230343
 10
13.2010352117
 20
9.8109598272
 10
13.2476824935
 20
9.8139939858
 10
13.2938065672
 20
9.8089559119
 10
13.3353091063
 20
9.7962932604
 10
13.3685024282
 20
9.7771311635
 10
13.3904371606
 20
9.7531722577
 10
13.3991643062
 20
9.7265453967
 10
13.3939084198
 20
9.6996164941
 10
13.37513651
 20
9.6747783011
 10
13.3445165434
 20
9.6542378001
 10
13.3047692384
 20
9.6398201047
 10
13.2594263174
 20
9.6328062904
 10
13.212516698
 20
9.6338195655
 10
13.1682085057
 20
9.642769896
 10
13.1304387178
 20
9.6588620057
  0
LWPOLYLINE
  5
188
330
1F
100
AcDbEntity
  8
0
  6
Continuous
 62
     7
370
    25
100
AcDbPolyline
 90
       19
 70
   128
 43
0.0
 10
12.4102460714
 20
8.9269825862
 10
12.3867183936
 20
8.9463800343
 10
12.3761018293
 20
8.9692530725
 10
12.3796768929
 20
8.9928428749
 10
12.3970123789
 20
9.0143041632
 10
12.426017372
 20
9.0310483892
 10
12.4631934418
 20
9.0410559523
 10
12.5040566058
 20
9.0431197926
 10
12.5436781631
 20
9.0369909805
 10
12.5772791694
 20
9.0234087412
 10
12.6008068472
 20
9.0040112932
 10
12.6114234115
 20
8.981138255
 10
12.6078483479
 20
8.9575484526
 10
12.5905128618
 20
8.9360871643
 10
12.5615078688
 20
8.9193429382
 10
12.524331799
 20
8.9093353751
 10
12.483468635
 20
8.9072715348
 10
12.4438470777
 20
8.9134003469
 10
12.4102460714
 20
8.9269825862
  0
LWPOLYLINE
  5
189
330
1F
100
AcDbEntity
  8
0
  6
Continuous
 62
     7
370
    25
100
AcDbPolyline
 90
       12
 70
   128
 43
0.0
 10
11.9678368259
 20
9.5260855845
 10
11.9738234148
 20
9.4971808492
 10
11.9654611851
 20
9.4684732955
 10
11.943427595
 20
9.4422886386
 10
11.9095076749
 20
9.4207482038
 10
11.866449415
 20
9.405597069
 10
11.8177411394
 20
9.398062689
 10
11.767328903
 20
9.3987554545
 10
11.7192968053
 20
9.4076192417
 10
11.6775361212
 20
9.4239359593
 10
11.645430053
 20
9.4463837239
 10
11.6255796433
 20
9.4731439511
  0
LWPOLYLINE
  5
18A
330
1F
100
AcDbEntity
  8
0
  6
Continuous
 62
     7
370
    25
100
AcDbPolyline
 90
       21
 70
   128
 43
0.0
 10
11.9678368259
 20
9.5260855845
 10
11.9391342972
 20
9.6040395042
 10
11.924703982
 20
9.6832983807
 10
11.924703982
 20
9.7629938373
 10
11.9391342972
 20
9.8422527138
 10
11.9678368259
 20
9.9202066335
 10
12.0104970973
 20
9.9960015168
 10
12.0666477164
 20
10.0688069392
 10
12.1356734855
 20
10.1378252292
 10
12.2168181437
 20
10.2023002079
 10
12.3091926531
 20
10.2615254741
 10
12.4117849393
 20
10.3148521433
 10
12.5234709797
 20
10.3616959573
 10
12.6430271188
 20
10.4015436856
 10
12.7691434743
 20
10.4339587481
 10
12.9004382893
 20
10.4585859986
 10
13.03547307
 20
10.4751556157
 10
13.1727683474
 20
10.4834860593
 10
13.3108198855
 20
10.4834860593
 10
13.4481151629
 20
10.4751556157
 10
13.5831499437
 20
10.4585859986
  0
LWPOLYLINE
  5
18B
330
1F
100
AcDbEntity
  8
0
  6
Continuous
 62
     7
370
    25
100
AcDbPolyline
 90
       12
 70
   128
 43
0.0
 10
13.6748574793
 20
10.6561668644
 10
13.7212125751
 20
10.6447074669
 10
13.7600974572
 20
10.6261730282
 10
13.7883619036
 20
10.6020650985
 10
13.803716097
 20
10.5743367587
 10
13.804916132
 20
10.545234394
 10
13.7918647889
 20
10.517115705
 10
13.7656194099
 20
10.4922587007
 10
13.7283062395
 20
10.4726771476
 10
13.6829481688
 20
10.4599574268
 10
13.633219839
 20
10.4551300144
 10
13.5831499437
 20
10.4585859986
  0
LWPOLYLINE
  5
18C
330
1F
100
AcDbEntity
  8
0
  6
Continuous
 62
     7
370
    25
100
AcDbPolyline
 90
       24
 70
   128
 43
0.0
 10
11.6255796433
 20
9.4731439511
 10
11.5928953171
 20
9.5590238633
 10
11.5738742857
 20
9.6462637442
 10
11.5686741632
 20
9.7341406965
 10
11.5773380396
 20
9.8219265442
 10
11.5997941233
 20
9.9088938661
 10
11.635856336
 20
9.9943220237
 10
11.685225855
 20
10.0775031321
 10
11.7474935888
 20
10.1577479267
 10
11.8221435673
 20
10.2343914738
 10
11.9085572174
 20
10.3067986807
 10
12.0060184884
 20
10.3743695587
 10
12.1137197854
 20
10.436544194
 10
12.2307686616
 20
10.4928073881
 10
12.3561952131
 20
10.5426929265
 10
12.488960116
 20
10.5857874418
 10
12.6279632385
 20
10.6217338394
 10
12.772052757
 20
10.650234256
 10
12.9200347004
 20
10.6710525283
 10
13.0706828436
 20
10.6840161495
 10
13.2227488687
 20
10.6890176989
 10
13.3749727088
 20
10.6860157321
 10
13.526092989
 20
10.6750351243
 10
13.6748574793
 20
10.6561668644
  0
LWPOLYLINE
  5
18D
330
1F
100
AcDbEntity
  8
0
  6
Continuous
 62
     7
370
    25
100
AcDbPolyline
 90
       17
 70
   128
 43
0.0
 10
21.6418134912
 20
15.2037298315
 10
21.6268783607
 20
15.2166333678
 10
21.6216338403
 20
15.2318541267
 10
21.6268783607
 20
15.2470748856
 10
21.6418134912
 20
15.2599784219
 10
21.6641654936
 20
15.2686002892
 10
21.6905314781
 20
15.2716278864
 10
21.7168974626
 20
15.2686002892
 10
21.739249465
 20
15.2599784219
 10
21.7541845955
 20
15.2470748856
 10
21.7594291159
 20
15.2318541267
 10
21.7541845955
 20
15.2166333678
 10
21.739249465
 20
15.2037298315
 10
21.7168974626
 20
15.1951079642
 10
21.6905314781
 20
15.192080367
 10
21.6641654936
 20
15.1951079642
 10
21.6418134912
 20
15.2037298315
  0
LWPOLYLINE
  5
18E
330
1F
100
AcDbEntity
  8
0
  6
Continuous
 62
     7
370
    25
100
AcDbPolyline
 90
       17
 70
   128
 43
0.0
 10
20.3890652568
 20
15.1233747024
 10
20.3741301263
 20
15.1362782387
 10
20.3688856059
 20
15.1514989976
 10
20.3741301263
 20
15.1667197565
 10
20.3890652568
 20
15.1796232928
 10
20.4114172592
 20
15.1882451601
 10
20.4377832437
 20
15.1912727573
 10
20.4641492282
 20
15.1882451601
 10
20.4865012306
 20
15.1796232928
 10
20.5014363611
 20
15.1667197565
 10
20.5066808815
 20
15.1514989976
 10
20.5014363611
 20
15.1362782387
 10
20.4865012306
 20
15.1233747024
 10
20.4641492282
 20
15.1147528351
 10
20.4377832437
 20
15.1117252379
 10
20.4114172592
 20
15.1147528351
 10
20.3890652568
 20
15.1233747024
  0
LWPOLYLINE
  5
18F
330
1F
100
AcDbEntity
  8
0
  6
Continuous
 62
     7
370
    25
100
AcDbPolyline
 90
       17
 70
   128
 43
0.0
 10
18.9748516944
 20
14.3069665906
 10
18.9599165639
 20
14.3198701269
 10
18.9546720435
 20
14.3350908858
 10
18.9599165639
 20
14.3503116446
 10
18.9748516944
 20
14.3632151809
 10
18.9972036968
 20
14.3718370483
 10
19.0235696813
 20
14.3748646454
 10
19.0499356658
 20
14.3718370483
 10
19.0722876682
 20
14.3632151809
 10
19.0872227987
 20
14.3503116446
 10
19.0924673191
 20
14.3350908858
 10
19.0872227987
 20
14.3198701269
 10
19.0722876682
 20
14.3069665906
 10
19.0499356658
 20
14.2983447232
 10
19.0235696813
 20
14.2953171261
 10
18.9972036968
 20
14.2983447232
 10
18.9748516944
 20
14.3069665906
  0
LWPOLYLINE
  5
190
330
1F
100
AcDbEntity
  8
0
  6
Continuous
 62
     7
370
    25
100
AcDbPolyline
 90
       17
 70
   128
 43
0.0
 10
20.2275999288
 20
14.3873217197
 10
20.2126647983
 20
14.400225256
 10
20.2074202779
 20
14.4154460149
 10
20.2126647983
 20
14.4306667737
 10
20.2275999288
 20
14.4435703101
 10
20.2499519312
 20
14.4521921774
 10
20.2763179157
 20
14.4552197746
 10
20.3026839002
 20
14.4521921774
 10
20.3250359026
 20
14.4435703101
 10
20.3399710331
 20
14.4306667737
 10
20.3452155535
 20
14.4154460149
 10
20.3399710331
 20
14.400225256
 10
20.3250359026
 20
14.3873217197
 10
20.3026839002
 20
14.3786998524
 10
20.2763179157
 20
14.3756722552
 10
20.2499519312
 20
14.3786998524
 10
20.2275999288
 20
14.3873217197
  0
LWPOLYLINE
  5
191
330
1F
100
AcDbEntity
  8
0
  6
Continuous
 62
     7
370
    25
100
AcDbPolyline
 90
       17
 70
   128
 43
0.0
 10
18.8133863664
 20
13.5709136079
 10
18.7984512359
 20
13.5838171442
 10
18.7932067155
 20
13.599037903
 10
18.7984512359
 20
13.6142586619
 10
18.8133863664
 20
13.6271621982
 10
18.8357383688
 20
13.6357840656
 10
18.8621043533
 20
13.6388116627
 10
18.8884703378
 20
13.6357840656
 10
18.9108223402
 20
13.6271621982
 10
18.9257574707
 20
13.6142586619
 10
18.9310019911
 20
13.599037903
 10
18.9257574707
 20
13.5838171442
 10
18.9108223402
 20
13.5709136079
 10
18.8884703378
 20
13.5622917405
 10
18.8621043533
 20
13.5592641434
 10
18.8357383688
 20
13.5622917405
 10
18.8133863664
 20
13.5709136079
  0
LWPOLYLINE
  5
192
330
1F
100
AcDbEntity
  8
0
  6
Continuous
 62
     7
370
    25
100
AcDbPolyline
 90
       19
 70
   128
 43
0.0
 10
20.0396876937
 20
14.2145581921
 10
20.0161600158
 20
14.2339556401
 10
20.0055434515
 20
14.2568286783
 10
20.0091185151
 20
14.2804184807
 10
20.0264540012
 20
14.301879769
 10
20.0554589942
 20
14.3186239951
 10
20.0926350641
 20
14.3286315582
 10
20.133498228
 20
14.3306953985
 10
20.1731197853
 20
14.3245665863
 10
20.2067207916
 20
14.310984347
 10
20.2302484694
 20
14.291586899
 10
20.2408650337
 20
14.2687138608
 10
20.2372899701
 20
14.2451240584
 10
20.2199544841
 20
14.2236627701
 10
20.190949491
 20
14.206918544
 10
20.1537734212
 20
14.1969109809
 10
20.1129102572
 20
14.1948471406
 10
20.0732886999
 20
14.2009759528
 10
20.0396876937
 20
14.2145581921
  0
LWPOLYLINE
  5
193
330
1F
100
AcDbEntity
  8
0
  6
Continuous
 62
     7
370
    25
100
AcDbPolyline
 90
       17
 70
   128
 43
0.0
 10
20.5059884253
 20
14.4837478746
 10
20.495320475
 20
14.4929646863
 10
20.491574389
 20
14.5038366569
 10
20.495320475
 20
14.5147086275
 10
20.5059884253
 20
14.5239254392
 10
20.5219541413
 20
14.5300839158
 10
20.5407869874
 20
14.5322464852
 10
20.5596198335
 20
14.5300839158
 10
20.5755855495
 20
14.5239254392
 10
20.5862534998
 20
14.5147086275
 10
20.5899995858
 20
14.5038366569
 10
20.5862534998
 20
14.4929646863
 10
20.5755855495
 20
14.4837478746
 10
20.5596198335
 20
14.477589398
 10
20.5407869874
 20
14.4754268285
 10
20.5219541413
 20
14.477589398
 10
20.5059884253
 20
14.4837478746
  0
LWPOLYLINE
  5
194
330
1F
100
AcDbEntity
  8
0
  6
Continuous
 62
     7
370
    25
100
AcDbPolyline
 90
       17
 70
   128
 43
0.0
 10
12.7058962606
 20
9.6548442493
 10
12.6909611301
 20
9.6677477856
 10
12.6857166097
 20
9.6829685445
 10
12.6909611301
 20
9.6981893033
 10
12.7058962606
 20
9.7110928396
 10
12.728248263
 20
9.719714707
 10
12.7546142475
 20
9.7227423041
 10
12.780980232
 20
9.719714707
 10
12.8033322344
 20
9.7110928396
 10
12.8182673649
 20
9.6981893033
 10
12.8235118853
 20
9.6829685445
 10
12.8182673649
 20
9.6677477856
 10
12.8033322344
 20
9.6548442493
 10
12.780980232
 20
9.6462223819
 10
12.7546142475
 20
9.6431947848
 10
12.728248263
 20
9.6462223819
 10
12.7058962606
 20
9.6548442493
  0
LWPOLYLINE
  5
195
330
1F
100
AcDbEntity
  8
0
  6
Continuous
 62
     7
370
    25
100
AcDbPolyline
 90
       17
 70
   128
 43
0.0
 10
11.8928576066
 20
8.9444216375
 10
11.8779224761
 20
8.9573251738
 10
11.8726779557
 20
8.9725459327
 10
11.8779224761
 20
8.9877666915
 10
11.8928576066
 20
9.0006702279
 10
11.915209609
 20
9.0092920952
 10
11.9415755935
 20
9.0123196924
 10
11.967941578
 20
9.0092920952
 10
11.9902935804
 20
9.0006702279
 10
12.0052287109
 20
8.9877666915
 10
12.0104732313
 20
8.9725459327
 10
12.0052287109
 20
8.9573251738
 10
11.9902935804
 20
8.9444216375
 10
11.967941578
 20
8.9357997702
 10
11.9415755935
 20
8.932772173
 10
11.915209609
 20
8.9357997702
 10
11.8928576066
 20
8.9444216375
  0
LWPOLYLINE
  5
196
330
1F
100
AcDbEntity
  8
0
  6
Continuous
 62
     7
370
    25
100
AcDbPolyline
 90
       17
 70
   128
 43
0.0
 10
12.7921039393
 20
9.1117075749
 10
12.7771688088
 20
9.1246111112
 10
12.7719242884
 20
9.1398318701
 10
12.7771688088
 20
9.155052629
 10
12.7921039393
 20
9.1679561653
 10
12.8144559417
 20
9.1765780326
 10
12.8408219262
 20
9.1796056298
 10
12.8671879107
 20
9.1765780326
 10
12.8895399131
 20
9.1679561653
 10
12.9044750436
 20
9.155052629
 10
12.909719564
 20
9.1398318701
 10
12.9044750436
 20
9.1246111112
 10
12.8895399131
 20
9.1117075749
 10
12.8671879107
 20
9.1030857076
 10
12.8408219262
 20
9.1000581104
 10
12.8144559417
 20
9.1030857076
 10
12.7921039393
 20
9.1117075749
  0
LWPOLYLINE
  5
197
330
1F
100
AcDbEntity
  8
0
  6
Continuous
 62
     7
370
    25
100
AcDbPolyline
 90
       17
 70
   128
 43
0.0
 10
19.1999383328
 20
14.7376700826
 10
19.1850032023
 20
14.7505736189
 10
19.1797586819
 20
14.7657943778
 10
19.1850032023
 20
14.7810151367
 10
19.1999383328
 20
14.793918673
 10
19.2222903352
 20
14.8025405403
 10
19.2486563197
 20
14.8055681375
 10
19.2750223042
 20
14.8025405403
 10
19.2973743066
 20
14.793918673
 10
19.3123094371
 20
14.7810151367
 10
19.3175539575
 20
14.7657943778
 10
19.3123094371
 20
14.7505736189
 10
19.2973743066
 20
14.7376700826
 10
19.2750223042
 20
14.7290482153
 10
19.2486563197
 20
14.7260206181
 10
19.2222903352
 20
14.7290482153
 10
19.1999383328
 20
14.7376700826
  0
LWPOLYLINE
  5
198
330
1F
100
AcDbEntity
  8
0
  6
Continuous
 62
     7
370
    25
100
AcDbPolyline
 90
       17
 70
   128
 43
0.0
 10
12.2402259196
 20
10.7199136268
 10
12.2252907891
 20
10.7328171631
 10
12.2200462687
 20
10.748037922
 10
12.2252907891
 20
10.7632586809
 10
12.2402259196
 20
10.7761622172
 10
12.2625779219
 20
10.7847840845
 10
12.2889439065
 20
10.7878116817
 10
12.315309891
 20
10.7847840845
 10
12.3376618933
 20
10.7761622172
 10
12.3525970238
 20
10.7632586809
 10
12.3578415442
 20
10.748037922
 10
12.3525970238
 20
10.7328171631
 10
12.3376618933
 20
10.7199136268
 10
12.315309891
 20
10.7112917595
 10
12.2889439065
 20
10.7082641623
 10
12.2625779219
 20
10.7112917595
 10
12.2402259196
 20
10.7199136268
  0
LWPOLYLINE
  5
199
330
1F
100
AcDbEntity
  8
0
  6
Continuous
 62
     7
370
    25
100
AcDbPolyline
 90
       17
 70
   128
 43
0.0
 10
13.6321684022
 20
11.523464918
 10
13.6172332717
 20
11.5363684543
 10
13.6119887513
 20
11.5515892132
 10
13.6172332717
 20
11.566809972
 10
13.6321684022
 20
11.5797135084
 10
13.6545204046
 20
11.5883353757
 10
13.6808863891
 20
11.5913629729
 10
13.7072523736
 20
11.5883353757
 10
13.729604376
 20
11.5797135084
 10
13.7445395065
 20
11.566809972
 10
13.7497840269
 20
11.5515892132
 10
13.7445395065
 20
11.5363684543
 10
13.729604376
 20
11.523464918
 10
13.7072523736
 20
11.5148430507
 10
13.6808863891
 20
11.5118154535
 10
13.6545204046
 20
11.5148430507
 10
13.6321684022
 20
11.523464918
  0
LWPOLYLINE
  5
19A
330
1F
100
AcDbEntity
  8
0
  6
Continuous
 62
     7
370
    25
100
AcDbPolyline
 90
       17
 70
   128
 43
0.0
 10
15.0241108849
 20
12.3270162091
 10
15.0091757544
 20
12.3399197454
 10
15.003931234
 20
12.3551405043
 10
15.0091757544
 20
12.3703612632
 10
15.0241108849
 20
12.3832647995
 10
15.0464628872
 20
12.3918866668
 10
15.0728288718
 20
12.394914264
 10
15.0991948563
 20
12.3918866668
 10
15.1215468586
 20
12.3832647995
 10
15.1364819892
 20
12.3703612632
 10
15.1417265095
 20
12.3551405043
 10
15.1364819892
 20
12.3399197454
 10
15.1215468586
 20
12.3270162091
 10
15.0991948563
 20
12.3183943418
 10
15.0728288718
 20
12.3153667446
 10
15.0464628872
 20
12.3183943418
 10
15.0241108849
 20
12.3270162091
  0
LWPOLYLINE
  5
19B
330
1F
100
AcDbEntity
  8
0
  6
Continuous
 62
     7
370
    25
100
AcDbPolyline
 90
       17
 70
   128
 43
0.0
 10
16.4160533675
 20
13.1305675003
 10
16.401118237
 20
13.1434710366
 10
16.3958737166
 20
13.1586917955
 10
16.401118237
 20
13.1739125544
 10
16.4160533675
 20
13.1868160907
 10
16.4384053699
 20
13.195437958
 10
16.4647713544
 20
13.1984655552
 10
16.4911373389
 20
13.195437958
 10
16.5134893413
 20
13.1868160907
 10
16.5284244718
 20
13.1739125544
 10
16.5336689922
 20
13.1586917955
 10
16.5284244718
 20
13.1434710366
 10
16.5134893413
 20
13.1305675003
 10
16.4911373389
 20
13.121945633
 10
16.4647713544
 20
13.1189180358
 10
16.4384053699
 20
13.121945633
 10
16.4160533675
 20
13.1305675003
  0
LWPOLYLINE
  5
19C
330
1F
100
AcDbEntity
  8
0
  6
Continuous
 62
     7
370
    25
100
AcDbPolyline
 90
       17
 70
   128
 43
0.0
 10
17.8079958502
 20
13.9341187915
 10
17.7930607197
 20
13.9470223278
 10
17.7878161993
 20
13.9622430867
 10
17.7930607197
 20
13.9774638455
 10
17.8079958502
 20
13.9903673818
 10
17.8303478525
 20
13.9989892492
 10
17.8567138371
 20
14.0020168463
 10
17.8830798216
 20
13.9989892492
 10
17.9054318239
 20
13.9903673818
 10
17.9203669545
 20
13.9774638455
 10
17.9256114748
 20
13.9622430867
 10
17.9203669545
 20
13.9470223278
 10
17.9054318239
 20
13.9341187915
 10
17.8830798216
 20
13.9254969241
 10
17.8567138371
 20
13.922469327
 10
17.8303478525
 20
13.9254969241
 10
17.8079958502
 20
13.9341187915
  0
LINE
  5
19D
330
1F
100
AcDbEntity
  8
0
  6
Continuous
 62
     7
370
    25
100
AcDbLine
 10
12.2763109643
 20
8.5532158827
 30
0.0
 11
12.2763109643
 21
8.6042496835
 31
0.0
  0
LWPOLYLINE
  5
19E
330
1F
100
AcDbEntity
  8
0
  6
Continuous
 62
     7
370
    25
100
AcDbPolyline
 90
       16
 70
   128
 43
0.0
 10
12.2763109643
 20
8.5532158827
 10
12.126515543
 20
8.6006387755
 10
11.9836625871
 20
8.6547314528
 10
11.8486413378
 20
8.7151571949
 10
11.7222922851
 20
8.7815398592
 10
11.6054019353
 20
8.8534662222
 10
11.498697916
 20
8.9304885515
 10
11.4028444458
 20
9.0121273932
 10
11.3184382004
 20
9.0978745559
 10
11.2460045976
 20
9.1871962746
 10
11.1859945273
 20
9.2795365331
 10
11.1387815445
 20
9.3743205252
 10
11.1046595438
 20
9.4709582328
 10
11.0838409305
 20
9.5688480985
 10
11.0764552976
 20
9.6673807707
 10
11.0764397858
 20
9.6721123083
  0
LINE
  5
19F
330
1F
100
AcDbEntity
  8
0
  6
Continuous
 62
     7
370
    25
100
AcDbLine
 10
12.3670971418
 20
8.6127947746
 30
0.0
 11
12.3670971418
 21
8.5617609738
 31
0.0
  0
LINE
  5
1A0
330
1F
100
AcDbEntity
  8
0
  6
Continuous
 62
     7
370
    25
100
AcDbLine
 10
12.9059734405
 20
8.9238814401
 30
0.0
 11
12.9059734405
 21
8.8728476394
 31
0.0
  0
LINE
  5
1A1
330
1F
100
AcDbEntity
  8
0
  6
Continuous
 62
     7
370
    25
100
AcDbLine
 10
13.1297185296
 20
9.3549778963
 30
0.0
 11
13.1297185296
 21
9.4060116971
 31
0.0
  0
LINE
  5
1A2
330
1F
100
AcDbEntity
  8
0
  6
Continuous
 62
     7
370
    25
100
AcDbLine
 10
11.9678368259
 20
9.4750517838
 30
0.0
 11
11.9678368259
 21
9.5260855845
 31
0.0
  0
LINE
  5
1A3
330
1F
100
AcDbEntity
  8
0
  6
Continuous
 62
     7
370
    25
100
AcDbLine
 10
13.2107444594
 20
9.4396138464
 30
0.0
 11
13.2107444594
 21
9.3885800457
 31
0.0
  0
LWPOLYLINE
  5
1A4
330
1F
100
AcDbEntity
  8
0
  6
Continuous
 62
     7
370
    25
100
AcDbPolyline
 90
       11
 70
   128
 43
0.0
 10
13.7339201007
 20
9.6721123083
 10
13.7290416573
 20
9.6322091629
 10
13.7109385302
 20
9.586308819
 10
13.6799543717
 20
9.5427643327
 10
13.636939896
 20
9.5027712802
 10
13.5830761273
 20
9.4674277281
 10
13.5198419723
 20
9.4377040842
 10
13.4489736154
 20
9.4144164537
 10
13.3724168488
 20
9.3982042317
 10
13.292273648
 20
9.3895125482
 10
13.2107444594
 20
9.3885800457
  0
LINE
  5
1A5
330
1F
100
AcDbEntity
  8
0
  6
Continuous
 62
     7
370
    25
100
AcDbLine
 10
13.6748574793
 20
10.6051330637
 30
0.0
 11
13.6748574793
 21
10.6561668644
 31
0.0
  0
LWPOLYLINE
  5
1A6
330
1F
100
AcDbEntity
  8
0
  6
Continuous
 62
     7
370
    25
100
AcDbPolyline
 90
       21
 70
   128
 43
0.0
 10
11.5691497013
 20
9.6976292086
 10
11.5773380396
 20
9.7708927435
 10
11.5997941233
 20
9.8578600654
 10
11.635856336
 20
9.9432882229
 10
11.685225855
 20
10.0264693314
 10
11.7474935888
 20
10.106714126
 10
11.8221435673
 20
10.183357673
 10
11.9085572174
 20
10.25576488
 10
12.0060184884
 20
10.3233357579
 10
12.1137197854
 20
10.3855103932
 10
12.2307686616
 20
10.4417735874
 10
12.3561952131
 20
10.4916591257
 10
12.488960116
 20
10.5347536411
 10
12.6279632385
 20
10.5707000386
 10
12.772052757
 20
10.5992004553
 10
12.9200347004
 20
10.6200187276
 10
13.0706828436
 20
10.6329823487
 10
13.2227488687
 20
10.6379838981
 10
13.3749727088
 20
10.6349819313
 10
13.526092989
 20
10.6240013236
 10
13.6748574793
 20
10.6051330637
  0
ARC
  5
1A7
330
1F
100
AcDbEntity
  8
0
  6
Continuous
 62
     7
370
    25
100
AcDbCircle
 10
12.3863115258
 20
9.6741410787
 30
0.0
 40
0.4634194879196711
100
AcDbArc
 50
180.2508318199
 51
205.4427642132
  0
LWPOLYLINE
  5
1A8
330
1F
100
AcDbEntity
  8
0
  6
Continuous
 62
     7
370
    25
100
AcDbPolyline
 90
       11
 70
   128
 43
0.0
 10
13.0906442252
 20
9.6976292086
 10
13.0974536037
 20
9.7084670723
 10
13.1224284908
 20
9.7314127031
 10
13.1580095375
 20
9.7490892336
 10
13.2010352117
 20
9.7599260264
 10
13.2476824935
 20
9.762960185
 10
13.2938065672
 20
9.7579221111
 10
13.3353091063
 20
9.7452594597
 10
13.3685024282
 20
9.7260973628
 10
13.3904371606
 20
9.7021384569
 10
13.3929440077
 20
9.6976292086
  0
LINE
  5
1A9
330
1F
100
AcDbEntity
  8
0
  6
Continuous
 62
     7
370
    25
100
AcDbLine
 10
13.560979783
 20
10.0038342271
 30
0.0
 11
13.560979783
 21
9.9528004264
 31
0.0
  0
LINE
  5
1AA
330
1F
100
AcDbEntity
  8
0
  6
Continuous
 62
     7
370
    25
100
AcDbLine
 10
13.560979783
 20
9.9528004264
 30
0.0
 11
13.5514942072
 21
9.9461752751
 31
0.0
  0
LINE
  5
1AB
330
1F
100
AcDbEntity
  8
0
  6
Continuous
 62
     7
370
    25
100
AcDbLine
 10
21.4987969235
 20
14.5862385231
 30
0.0
 11
21.4987969235
 21
14.5352047224
 31
0.0
  0
LINE
  5
1AC
330
1F
100
AcDbEntity
  8
0
  6
Continuous
 62
     7
370
    25
100
AcDbLine
 10
21.4987969235
 20
14.5352047224
 30
0.0
 11
13.560979783
 21
9.9528004264
 31
0.0
  0
ARC
  5
1AD
330
1F
100
AcDbEntity
  8
0
  6
Continuous
 62
     7
370
    25
100
AcDbCircle
 10
13.6673831592
 20
10.4478391802
 30
0.0
 40
0.1574713664522591
100
AcDbArc
 50
32.2462760851
 51
87.2794548809
  0
ARC
  5
1AE
330
1F
100
AcDbEntity
  8
0
  6
Continuous
 62
     7
370
    25
100
AcDbCircle
 10
12.2889439065
 20
10.6394610692
 30
0.0
 40
0.0984483632016165
100
AcDbArc
 50
57.5319080449
 51
122.4680919551
  0
ARC
  5
1AF
330
1F
100
AcDbEntity
  8
0
  6
Continuous
 62
     7
370
    25
100
AcDbCircle
 10
13.6808863891
 20
11.4430123603
 30
0.0
 40
0.0984483632016004
100
AcDbArc
 50
57.5319080449
 51
122.4680919551
  0
ARC
  5
1B0
330
1F
100
AcDbEntity
  8
0
  6
Continuous
 62
     7
370
    25
100
AcDbCircle
 10
15.0728288718
 20
12.2465636515
 30
0.0
 40
0.0984483632016349
100
AcDbArc
 50
57.5319080449
 51
122.4680919551
  0
ARC
  5
1B1
330
1F
100
AcDbEntity
  8
0
  6
Continuous
 62
     7
370
    25
100
AcDbCircle
 10
16.4647713544
 20
13.0501149427
 30
0.0
 40
0.0984483632015984
100
AcDbArc
 50
57.5319080449
 51
122.4680919551
  0
ARC
  5
1B2
330
1F
100
AcDbEntity
  8
0
  6
Continuous
 62
     7
370
    25
100
AcDbCircle
 10
18.8621043533
 20
13.4904610502
 30
0.0
 40
0.0984483632016078
100
AcDbArc
 50
57.5319080449
 51
122.4680919551
  0
ARC
  5
1B3
330
1F
100
AcDbEntity
  8
0
  6
Continuous
 62
     7
370
    25
100
AcDbCircle
 10
17.8567138371
 20
13.8536662338
 30
0.0
 40
0.0984483632016311
100
AcDbArc
 50
57.5319080449
 51
122.4680919551
  0
ARC
  5
1B4
330
1F
100
AcDbEntity
  8
0
  6
Continuous
 62
     7
370
    25
100
AcDbCircle
 10
20.1232042426
 20
14.1288636569
 30
0.0
 40
0.1540935249710704
100
AcDbArc
 50
44.701121091
 51
135.298878909
  0
ARC
  5
1B5
330
1F
100
AcDbEntity
  8
0
  6
Continuous
 62
     7
370
    25
100
AcDbCircle
 10
19.0235696813
 20
14.2265140329
 30
0.0
 40
0.0984483632015907
100
AcDbArc
 50
57.5319080449
 51
122.4680919551
  0
ARC
  5
1B6
330
1F
100
AcDbEntity
  8
0
  6
Continuous
 62
     7
370
    25
100
AcDbCircle
 10
20.2763179157
 20
14.306869162
 30
0.0
 40
0.0984483632016228
100
AcDbArc
 50
57.5319080449
 51
122.4680919551
  0
ARC
  5
1B7
330
1F
100
AcDbEntity
  8
0
  6
Continuous
 62
     7
370
    25
100
AcDbCircle
 10
20.5407869874
 20
14.400300777
 30
0.0
 40
0.0809634548925559
100
AcDbArc
 50
74.5003410103
 51
105.4996589897
  0
LINE
  5
1B8
330
1F
100
AcDbEntity
  8
0
  6
Continuous
 62
     7
370
    25
100
AcDbLine
 10
21.857564576
 20
14.9540609386
 30
0.0
 11
21.857564576
 21
14.9030271379
 31
0.0
  0
LINE
  5
1B9
330
1F
100
AcDbEntity
  8
0
  6
Continuous
 62
     7
370
    25
100
AcDbLine
 10
21.857564576
 20
14.9030271379
 30
0.0
 11
21.4038040325
 21
14.6410767519
 31
0.0
  0
ARC
  5
1BA
330
1F
100
AcDbEntity
  8
0
  6
Continuous
 62
     7
370
    25
100
AcDbCircle
 10
19.2486563197
 20
14.657217525
 30
0.0
 40
0.098448363201639
100
AcDbArc
 50
57.5319080449
 51
122.4680919551
  0
ARC
  5
1BB
330
1F
100
AcDbEntity
  8
0
  6
Continuous
 62
     7
370
    25
100
AcDbCircle
 10
20.4377832437
 20
15.0429221447
 30
0.0
 40
0.0984483632016608
100
AcDbArc
 50
57.531908045
 51
122.468091955
  0
ARC
  5
1BC
330
1F
100
AcDbEntity
  8
0
  6
Continuous
 62
     7
370
    25
100
AcDbCircle
 10
21.6905314781
 20
15.1232772739
 30
0.0
 40
0.0984483632016282
100
AcDbArc
 50
57.5319080449
 51
122.4680919551
  0
LINE
  5
1BD
330
1F
100
AcDbEntity
  8
0
  6
Continuous
 62
     7
370
    25
100
AcDbLine
 10
11.7524892736
 20
10.1123918188
 30
0.0
 11
11.7524892736
 21
9.4005762761
 31
0.0
  0
LINE
  5
1BE
330
1F
100
AcDbEntity
  8
0
  6
Continuous
 62
     7
370
    25
100
AcDbLine
 10
11.7107309992
 20
10.0617446642
 30
0.0
 11
11.7107309992
 21
9.4101901662
 31
0.0
  0
LINE
  5
1BF
330
1F
100
AcDbEntity
  8
0
  6
Continuous
 62
     7
370
    25
100
AcDbLine
 10
13.6313399232
 20
9.8967572173
 30
0.0
 11
20.0559829596
 21
13.6056246967
 31
0.0
  0
LINE
  5
1C0
330
1F
100
AcDbEntity
  8
0
  6
Continuous
 62
     7
370
    25
100
AcDbLine
 10
19.9722627873
 20
13.6539553235
 30
0.0
 11
20.0559829596
 21
13.6056246967
 31
0.0
  0
LWPOLYLINE
  5
1C1
330
1F
100
AcDbEntity
  8
0
  6
Continuous
 62
     7
370
    25
100
AcDbPolyline
 90
        7
 70
   128
 43
0.0
 10
19.2361700241
 20
13.2290180163
 10
19.2486563197
 20
13.2283593948
 10
19.2750223042
 20
13.2313869919
 10
19.2973743066
 20
13.2400088593
 10
19.3123094371
 20
13.2529123956
 10
19.3175539575
 20
13.2681331544
 10
19.3164130678
 20
13.2753413394
  0
LWPOLYLINE
  5
1C2
330
1F
100
AcDbEntity
  8
0
  6
Continuous
 62
     7
370
    25
100
AcDbPolyline
 90
        7
 70
   128
 43
0.0
 10
13.6684000935
 20
10.0148128517
 10
13.6808863891
 20
10.0141542301
 10
13.7072523736
 20
10.0171818273
 10
13.729604376
 20
10.0258036946
 10
13.7445395065
 20
10.0387072309
 10
13.7497840269
 20
10.0539279898
 10
13.7486431372
 20
10.0611361748
  0
LWPOLYLINE
  5
1C3
330
1F
100
AcDbEntity
  8
0
  6
Continuous
 62
     7
370
    25
100
AcDbPolyline
 90
        7
 70
   128
 43
0.0
 10
15.0603425762
 20
10.8183641428
 10
15.0728288718
 20
10.8177055213
 10
15.0991948563
 20
10.8207331184
 10
15.1215468586
 20
10.8293549858
 10
15.1364819892
 20
10.8422585221
 10
15.1417265095
 20
10.857479281
 10
15.1405856199
 20
10.8646874659
  0
LWPOLYLINE
  5
1C4
330
1F
100
AcDbEntity
  8
0
  6
Continuous
 62
     7
370
    25
100
AcDbPolyline
 90
        7
 70
   128
 43
0.0
 10
16.4522850588
 20
11.621915434
 10
16.4647713544
 20
11.6212568124
 10
16.4911373389
 20
11.6242844096
 10
16.5134893413
 20
11.6329062769
 10
16.5284244718
 20
11.6458098132
 10
16.5336689922
 20
11.6610305721
 10
16.5325281025
 20
11.6682387571
  0
LWPOLYLINE
  5
1C5
330
1F
100
AcDbEntity
  8
0
  6
Continuous
 62
     7
370
    25
100
AcDbPolyline
 90
        7
 70
   128
 43
0.0
 10
17.8442275415
 20
12.4254667252
 10
17.8567138371
 20
12.4248081036
 10
17.8830798216
 20
12.4278357008
 10
17.9054318239
 20
12.4364575681
 10
17.9203669545
 20
12.4493611044
 10
17.9256114748
 20
12.4645818633
 10
17.9244705852
 20
12.4717900483
  0
LINE
  5
1C6
330
1F
100
AcDbEntity
  8
0
  6
Continuous
 62
     7
370
    25
100
AcDbLine
 10
13.665112073
 20
9.8680325503
 30
0.0
 11
20.0559829596
 21
13.5574037826
 31
0.0
  0
LINE
  5
1C7
330
1F
100
AcDbEntity
  8
0
  6
Continuous
 62
     7
370
    25
100
AcDbLine
 10
20.0559829596
 20
13.6056246967
 30
0.0
 11
20.0559829596
 21
13.5574037826
 31
0.0
  0
LWPOLYLINE
  5
1C8
330
1F
100
AcDbEntity
  8
0
  6
Continuous
 62
     7
370
    25
100
AcDbPolyline
 90
        3
 70
   128
 43
0.0
 10
13.7133804743
 20
10.0407794728
 10
13.729604376
 20
10.0338313709
 10
13.7356820467
 20
10.0298175327
  0
LWPOLYLINE
  5
1C9
330
1F
100
AcDbEntity
  8
0
  6
Continuous
 62
     7
370
    25
100
AcDbPolyline
 90
        3
 70
   128
 43
0.0
 10
15.1053229569
 20
10.8443307639
 10
15.1215468586
 20
10.8373826621
 10
15.1276245294
 20
10.8333688239
  0
LWPOLYLINE
  5
1CA
330
1F
100
AcDbEntity
  8
0
  6
Continuous
 62
     7
370
    25
100
AcDbPolyline
 90
        3
 70
   128
 43
0.0
 10
16.4972654396
 20
11.6478820551
 10
16.5134893413
 20
11.6409339532
 10
16.519567012
 20
11.6369201151
  0
LWPOLYLINE
  5
1CB
330
1F
100
AcDbEntity
  8
0
  6
Continuous
 62
     7
370
    25
100
AcDbPolyline
 90
        3
 70
   128
 43
0.0
 10
17.8892079222
 20
12.4514333463
 10
17.9054318239
 20
12.4444852444
 10
17.9115094947
 20
12.4404714062
  0
LWPOLYLINE
  5
1CC
330
1F
100
AcDbEntity
  8
0
  6
Continuous
 62
     7
370
    25
100
AcDbPolyline
 90
        3
 70
   128
 43
0.0
 10
19.2811504049
 20
13.2549846374
 10
19.2973743066
 20
13.2480365355
 10
19.3034519773
 20
13.2440226974
  0
LINE
  5
1CD
330
1F
100
AcDbEntity
  8
0
  6
Continuous
 62
     7
370
    25
100
AcDbLine
 10
5.5904088922
 20
3.7144612274
 30
0.0
 11
5.0004401638
 21
3.7144612274
 31
0.0
  0
LINE
  5
1CE
330
1F
100
AcDbEntity
  8
0
  6
Continuous
 62
     7
370
    25
100
AcDbLine
 10
5.5904088922
 20
3.5894612274
 30
0.0
 11
5.5904088922
 21
3.7144612274
 31
0.0
  0
LINE
  5
1CF
330
1F
100
AcDbEntity
  8
0
  6
Continuous
 62
     7
370
    25
100
AcDbLine
 10
5.0004401638
 20
3.5894612274
 30
0.0
 11
5.0004401638
 21
3.7144612274
 31
0.0
  0
LINE
  5
1D0
330
1F
100
AcDbEntity
  8
0
  6
Continuous
 62
     7
370
    25
100
AcDbLine
 10
5.5904088922
 20
3.5894612274
 30
0.0
 11
5.0004401638
 21
3.5894612274
 31
0.0
  0
LINE
  5
1D1
330
1F
100
AcDbEntity
  8
0
  6
Continuous
 62
     7
370
    25
100
AcDbLine
 10
5.6172733078
 20
3.7144612274
 30
0.0
 11
5.6172733078
 21
3.5894612274
 31
0.0
  0
LINE
  5
1D2
330
1F
100
AcDbEntity
  8
0
  6
Continuous
 62
     7
370
    25
100
AcDbLine
 10
5.5904088922
 20
3.7144612274
 30
0.0
 11
5.6172733078
 21
3.7144612274
 31
0.0
  0
LINE
  5
1D3
330
1F
100
AcDbEntity
  8
0
  6
Continuous
 62
     7
370
    25
100
AcDbLine
 10
5.6172733078
 20
3.5894612274
 30
0.0
 11
5.5904088922
 21
3.5894612274
 31
0.0
  0
LINE
  5
1D4
330
1F
100
AcDbEntity
  8
0
  6
Continuous
 62
     7
370
    25
100
AcDbLine
 10
5.5904088922
 20
4.3798155581
 30
0.0
 11
5.5904088922
 21
4.5048155581
 31
0.0
  0
LINE
  5
1D5
330
1F
100
AcDbEntity
  8
0
  6
Continuous
 62
     7
370
    25
100
AcDbLine
 10
5.0004401638
 20
4.3798155581
 30
0.0
 11
5.0004401638
 21
4.5048155581
 31
0.0
  0
LINE
  5
1D6
330
1F
100
AcDbEntity
  8
0
  6
Continuous
 62
     7
370
    25
100
AcDbLine
 10
5.5904088922
 20
4.5048155581
 30
0.0
 11
5.0004401638
 21
4.5048155581
 31
0.0
  0
LINE
  5
1D7
330
1F
100
AcDbEntity
  8
0
  6
Continuous
 62
     7
370
    25
100
AcDbLine
 10
5.5904088922
 20
4.3798155581
 30
0.0
 11
5.0004401638
 21
4.3798155581
 31
0.0
  0
LINE
  5
1D8
330
1F
100
AcDbEntity
  8
0
  6
Continuous
 62
     7
370
    25
100
AcDbLine
 10
5.6172733078
 20
4.5048155581
 30
0.0
 11
5.6172733078
 21
4.3798155581
 31
0.0
  0
LINE
  5
1D9
330
1F
100
AcDbEntity
  8
0
  6
Continuous
 62
     7
370
    25
100
AcDbLine
 10
5.5904088922
 20
4.5048155581
 30
0.0
 11
5.6172733078
 21
4.5048155581
 31
0.0
  0
LINE
  5
1DA
330
1F
100
AcDbEntity
  8
0
  6
Continuous
 62
     7
370
    25
100
AcDbLine
 10
5.6172733078
 20
4.3798155581
 30
0.0
 11
5.5904088922
 21
4.3798155581
 31
0.0
  0
LINE
  5
1DB
330
1F
100
AcDbEntity
  8
0
  6
Continuous
 62
     7
370
    25
100
AcDbLine
 10
4.1638259906
 20
3.5894612274
 30
0.0
 11
4.1638259906
 21
3.5582112274
 31
0.0
  0
LINE
  5
1DC
330
1F
100
AcDbEntity
  8
0
  6
Continuous
 62
     7
370
    25
100
AcDbLine
 10
5.5904088922
 20
3.5894612274
 30
0.0
 11
4.1638259906
 21
3.5894612274
 31
0.0
  0
LINE
  5
1DD
330
1F
100
AcDbEntity
  8
0
  6
Continuous
 62
     7
370
    25
100
AcDbLine
 10
5.5904088922
 20
3.5582112274
 30
0.0
 11
5.5904088922
 21
3.5894612274
 31
0.0
  0
LINE
  5
1DE
330
1F
100
AcDbEntity
  8
0
  6
Continuous
 62
     7
370
    25
100
AcDbLine
 10
5.5904088922
 20
3.5582112274
 30
0.0
 11
4.1638259906
 21
3.5582112274
 31
0.0
  0
LINE
  5
1DF
330
1F
100
AcDbEntity
  8
0
  6
Continuous
 62
     7
370
    25
100
AcDbLine
 10
5.6172733078
 20
3.5894612274
 30
0.0
 11
5.6172733078
 21
3.5582112274
 31
0.0
  0
LINE
  5
1E0
330
1F
100
AcDbEntity
  8
0
  6
Continuous
 62
     7
370
    25
100
AcDbLine
 10
5.6172733078
 20
3.5582112274
 30
0.0
 11
5.5904088922
 21
3.5582112274
 31
0.0
  0
LINE
  5
1E1
330
1F
100
AcDbEntity
  8
0
  6
Continuous
 62
     7
370
    25
100
AcDbLine
 10
4.1638259906
 20
4.5360655581
 30
0.0
 11
4.1638259906
 21
4.5048155581
 31
0.0
  0
LINE
  5
1E2
330
1F
100
AcDbEntity
  8
0
  6
Continuous
 62
     7
370
    25
100
AcDbLine
 10
5.5904088922
 20
4.5048155581
 30
0.0
 11
5.5904088922
 21
4.5360655581
 31
0.0
  0
LINE
  5
1E3
330
1F
100
AcDbEntity
  8
0
  6
Continuous
 62
     7
370
    25
100
AcDbLine
 10
5.5904088922
 20
4.5048155581
 30
0.0
 11
4.1638259906
 21
4.5048155581
 31
0.0
  0
LINE
  5
1E4
330
1F
100
AcDbEntity
  8
0
  6
Continuous
 62
     7
370
    25
100
AcDbLine
 10
5.5904088922
 20
4.5360655581
 30
0.0
 11
4.1638259906
 21
4.5360655581
 31
0.0
  0
LINE
  5
1E5
330
1F
100
AcDbEntity
  8
0
  6
Continuous
 62
     7
370
    25
100
AcDbLine
 10
5.6172733078
 20
4.5360655581
 30
0.0
 11
5.6172733078
 21
4.5048155581
 31
0.0
  0
LINE
  5
1E6
330
1F
100
AcDbEntity
  8
0
  6
Continuous
 62
     7
370
    25
100
AcDbLine
 10
5.5904088922
 20
4.5360655581
 30
0.0
 11
5.6172733078
 21
4.5360655581
 31
0.0
  0
LINE
  5
1E7
330
1F
100
AcDbEntity
  8
0
  6
Continuous
 62
     7
370
    25
100
AcDbLine
 10
4.1933535496
 20
4.4556029596
 30
0.0
 11
4.1933535496
 21
3.6386738258
 31
0.0
  0
LINE
  5
1E8
330
1F
100
AcDbEntity
  8
0
  6
Continuous
 62
     7
370
    25
100
AcDbLine
 10
4.213038589
 20
3.6189887864
 30
0.0
 11
4.3606763843
 21
3.6189887864
 31
0.0
  0
LINE
  5
1E9
330
1F
100
AcDbEntity
  8
0
  6
Continuous
 62
     7
370
    25
100
AcDbLine
 10
4.213038589
 20
4.475287999
 30
0.0
 11
4.3606763843
 21
4.475287999
 31
0.0
  0
LINE
  5
1EA
330
1F
100
AcDbEntity
  8
0
  6
Continuous
 62
     7
370
    25
100
AcDbLine
 10
4.1638259906
 20
4.4851305187
 30
0.0
 11
4.1638259906
 21
3.6091462667
 31
0.0
  0
ARC
  5
1EB
330
1F
100
AcDbEntity
  8
0
  6
Continuous
 62
     7
370
    25
100
AcDbCircle
 10
4.213038589
 20
3.6386738258
 30
0.0
 40
0.0196850393700787
100
AcDbArc
 50
180.0
 51
270.0
  0
ARC
  5
1EC
330
1F
100
AcDbEntity
  8
0
  6
Continuous
 62
     7
370
    25
100
AcDbCircle
 10
4.18351103
 20
4.4851305187
 30
0.0
 40
0.0196850393700787
100
AcDbArc
 50
90.0
 51
180.0
  0
LINE
  5
1ED
330
1F
100
AcDbEntity
  8
0
  6
Continuous
 62
     7
370
    25
100
AcDbLine
 10
4.3606763843
 20
4.475287999
 30
0.0
 11
4.3606763843
 21
4.5048155581
 31
0.0
  0
ARC
  5
1EE
330
1F
100
AcDbEntity
  8
0
  6
Continuous
 62
     7
370
    25
100
AcDbCircle
 10
4.213038589
 20
4.4556029596
 30
0.0
 40
0.0196850393700787
100
AcDbArc
 50
90.0
 51
180.0
  0
ARC
  5
1EF
330
1F
100
AcDbEntity
  8
0
  6
Continuous
 62
     7
370
    25
100
AcDbCircle
 10
4.18351103
 20
3.6091462667
 30
0.0
 40
0.0196850393700787
100
AcDbArc
 50
180.0
 51
270.0
  0
LINE
  5
1F0
330
1F
100
AcDbEntity
  8
0
  6
Continuous
 62
     7
370
    25
100
AcDbLine
 10
4.3606763843
 20
3.6189887864
 30
0.0
 11
4.3606763843
 21
3.5894612274
 31
0.0
  0
CIRCLE
  5
1F1
330
1F
100
AcDbEntity
  8
0
  6
Continuous
 62
     7
370
    25
100
AcDbCircle
 10
4.8992064763
 20
13.0343424679
 30
0.0
 40
0.0246062992125964
  0
LINE
  5
1F2
330
1F
100
AcDbEntity
  8
0
  6
Continuous
 62
     7
370
    25
100
AcDbLine
 10
4.1638259906
 20
13.5253399349
 30
0.0
 11
4.1638259906
 21
7.821154024
 31
0.0
  0
LINE
  5
1F3
330
1F
100
AcDbEntity
  8
0
  6
Continuous
 62
     7
370
    25
100
AcDbLine
 10
4.1638259906
 20
13.5253399349
 30
0.0
 11
4.2819362268
 21
13.5253399349
 31
0.0
  0
LINE
  5
1F4
330
1F
100
AcDbEntity
  8
0
  6
Continuous
 62
     7
370
    25
100
AcDbLine
 10
4.2819362268
 20
13.5253399349
 30
0.0
 11
4.2819362268
 21
13.9190407223
 31
0.0
  0
LINE
  5
1F5
330
1F
100
AcDbEntity
  8
0
  6
Continuous
 62
     7
370
    25
100
AcDbLine
 10
4.7614112007
 20
14.3985156963
 30
0.0
 11
4.2819362268
 21
13.9190407223
 31
0.0
  0
LINE
  5
1F6
330
1F
100
AcDbEntity
  8
0
  6
Continuous
 62
     7
370
    25
100
AcDbLine
 10
5.089022841
 20
14.070904056
 30
0.0
 11
5.089022841
 21
13.7187918193
 31
0.0
  0
LINE
  5
1F7
330
1F
100
AcDbEntity
  8
0
  6
Continuous
 62
     7
370
    25
100
AcDbLine
 10
5.1874480378
 20
13.7187918193
 30
0.0
 11
5.089022841
 21
13.7187918193
 31
0.0
  0
LINE
  5
1F8
330
1F
100
AcDbEntity
  8
0
  6
Continuous
 62
     7
370
    25
100
AcDbLine
 10
5.1874480378
 20
13.7187918193
 30
0.0
 11
5.1874480378
 21
8.1059074913
 31
0.0
  0
ARC
  5
1F9
330
1F
100
AcDbEntity
  8
0
  6
Continuous
 62
     7
370
    25
100
AcDbCircle
 10
5.2268181166
 20
8.1059074913
 30
0.0
 40
0.0393700787401574
100
AcDbArc
 50
180.0
 51
273.9545721221
  0
ARC
  5
1FA
330
1F
100
AcDbEntity
  8
0
  6
Continuous
 62
     7
370
    25
100
AcDbCircle
 10
5.2465031559
 20
7.821154024
 30
0.0
 40
0.2460629921259914
100
AcDbArc
 50
311.3826402756
 51
93.9545721221
  0
ARC
  5
1FB
330
1F
100
AcDbEntity
  8
0
  6
Continuous
 62
     7
370
    25
100
AcDbCircle
 10
5.4351985529
 20
7.6069903363
 30
0.0
 40
0.0393700787401588
100
AcDbArc
 50
131.3826402755
 51
210.0023420356
  0
LINE
  5
1FC
330
1F
100
AcDbEntity
  8
0
  6
Continuous
 62
     7
370
    25
100
AcDbLine
 10
5.4011038692
 20
7.5873039033
 30
0.0
 11
5.6172733078
 21
7.2129227949
 31
0.0
  0
LINE
  5
1FD
330
1F
100
AcDbEntity
  8
0
  6
Continuous
 62
     7
370
    25
100
AcDbLine
 10
5.6172733078
 20
7.2129227949
 30
0.0
 11
5.6172733078
 21
6.8318797099
 31
0.0
  0
ARC
  5
1FE
330
1F
100
AcDbEntity
  8
0
  6
Continuous
 62
     7
370
    25
100
AcDbCircle
 10
5.5779032291
 20
6.8318797099
 30
0.0
 40
0.0393700787401574
100
AcDbArc
 50
288.5204942283
 51
0.0
  0
ARC
  5
1FF
330
1F
100
AcDbEntity
  8
0
  6
Continuous
 62
     7
370
    25
100
AcDbCircle
 10
5.2465031559
 20
7.821154024
 30
0.0
 40
1.082677165354331
100
AcDbArc
 50
180.0
 51
288.5204942283
  0
CIRCLE
  5
200
330
1F
100
AcDbEntity
  8
0
  6
Continuous
 62
     7
370
    25
100
AcDbCircle
 10
5.2465031559
 20
7.821154024
 30
0.0
 40
0.0787401574803148
  0
CIRCLE
  5
201
330
1F
100
AcDbEntity
  8
0
  6
Continuous
 62
     7
370
    25
100
AcDbCircle
 10
5.4401079535
 20
7.0986110831
 30
0.0
 40
0.0590551181102361
  0
ARC
  5
202
330
1F
100
AcDbEntity
  8
0
  6
Continuous
 62
     7
370
    25
100
AcDbCircle
 10
4.8724874079
 20
7.1733397456
 30
0.0
 40
0.0885826771653505
100
AcDbArc
 50
240.0
 51
60.0
  0
ARC
  5
203
330
1F
100
AcDbEntity
  8
0
  6
Continuous
 62
     7
370
    25
100
AcDbCircle
 10
5.2465031559
 20
7.821154024
 30
0.0
 40
0.6594488188976496
100
AcDbArc
 50
120.0
 51
240.0
  0
ARC
  5
204
330
1F
100
AcDbEntity
  8
0
  6
Continuous
 62
     7
370
    25
100
AcDbCircle
 10
4.8724874079
 20
8.4689683024
 30
0.0
 40
0.0885826771653589
100
AcDbArc
 50
300.0
 51
120.0
  0
ARC
  5
205
330
1F
100
AcDbEntity
  8
0
  6
Continuous
 62
     7
370
    25
100
AcDbCircle
 10
5.2465031559
 20
7.821154024
 30
0.0
 40
0.8366141732283507
100
AcDbArc
 50
120.0
 51
240.0
  0
CIRCLE
  5
206
330
1F
100
AcDbEntity
  8
0
  6
Continuous
 62
     7
370
    25
100
AcDbCircle
 10
4.8598363976
 20
14.1819802632
 30
0.0
 40
0.0344488188976388
  0
CIRCLE
  5
207
330
1F
100
AcDbEntity
  8
0
  6
Continuous
 62
     7
370
    25
100
AcDbCircle
 10
4.4661356102
 20
13.689854279
 30
0.0
 40
0.0344488188976353
  0
CIRCLE
  5
208
330
1F
100
AcDbEntity
  8
0
  6
Continuous
 62
     7
370
    25
100
AcDbCircle
 10
4.4661356102
 20
12.689854279
 30
0.0
 40
0.0344488188976388
  0
CIRCLE
  5
209
330
1F
100
AcDbEntity
  8
0
  6
Continuous
 62
     7
370
    25
100
AcDbCircle
 10
4.8598363976
 20
13.1819802632
 30
0.0
 40
0.0344488188976388
  0
CIRCLE
  5
20A
330
1F
100
AcDbEntity
  8
0
  6
Continuous
 62
     7
370
    25
100
AcDbCircle
 10
4.8598363976
 20
12.1819802632
 30
0.0
 40
0.0344488188976353
  0
CIRCLE
  5
20B
330
1F
100
AcDbEntity
  8
0
  6
Continuous
 62
     7
370
    25
100
AcDbCircle
 10
4.8992064763
 20
13.0343424679
 30
0.0
 40
0.0590551181102388
  0
CIRCLE
  5
20C
330
1F
100
AcDbEntity
  8
0
  6
Continuous
 62
     7
370
    25
100
AcDbCircle
 10
4.8992064763
 20
13.3296180585
 30
0.0
 40
0.0246062992125964
  0
CIRCLE
  5
20D
330
1F
100
AcDbEntity
  8
0
  6
Continuous
 62
     7
370
    25
100
AcDbCircle
 10
5.0988653607
 20
7.6243036303
 30
0.0
 40
0.0344488188976371
  0
CIRCLE
  5
20E
330
1F
100
AcDbEntity
  8
0
  6
Continuous
 62
     7
370
    25
100
AcDbCircle
 10
5.2465031559
 20
6.9017606894
 30
0.0
 40
0.034448818897638
  0
CIRCLE
  5
20F
330
1F
100
AcDbEntity
  8
0
  6
Continuous
 62
     7
370
    25
100
AcDbCircle
 10
5.4619823479
 20
7.3221446772
 30
0.0
 40
0.034448818897638
  0
CIRCLE
  5
210
330
1F
100
AcDbEntity
  8
0
  6
Continuous
 62
     7
370
    25
100
AcDbCircle
 10
4.2819362268
 20
13.0332139507
 30
0.0
 40
0.0344488188976371
  0
CIRCLE
  5
211
330
1F
100
AcDbEntity
  8
0
  6
Continuous
 62
     7
370
    25
100
AcDbCircle
 10
4.2819362268
 20
8.1119541082
 30
0.0
 40
0.0344488188976371
  0
CIRCLE
  5
212
330
1F
100
AcDbEntity
  8
0
  6
Continuous
 62
     7
370
    25
100
AcDbCircle
 10
4.2819362268
 20
9.0962060767
 30
0.0
 40
0.0344488188976371
  0
CIRCLE
  5
213
330
1F
100
AcDbEntity
  8
0
  6
Continuous
 62
     7
370
    25
100
AcDbCircle
 10
4.2819362268
 20
10.0804580452
 30
0.0
 40
0.0344488188976388
  0
CIRCLE
  5
214
330
1F
100
AcDbEntity
  8
0
  6
Continuous
 62
     7
370
    25
100
AcDbCircle
 10
4.2819362268
 20
11.0647100137
 30
0.0
 40
0.0344488188976353
  0
CIRCLE
  5
215
330
1F
100
AcDbEntity
  8
0
  6
Continuous
 62
     7
370
    25
100
AcDbCircle
 10
4.2819362268
 20
12.0489619822
 30
0.0
 40
0.0344488188976388
  0
LINE
  5
216
330
1F
100
AcDbEntity
  8
0
  6
Continuous
 62
     7
370
    25
100
AcDbLine
 10
4.7614112007
 20
14.3985156963
 30
0.0
 11
5.089022841
 21
14.070904056
 31
0.0
  0
LINE
  5
217
330
1F
100
AcDbEntity
  8
0
  6
Continuous
 62
     7
370
    25
100
AcDbLine
 10
13.143814032
 20
3.7144612274
 30
0.0
 11
13.143814032
 21
3.5894612274
 31
0.0
  0
LINE
  5
218
330
1F
100
AcDbEntity
  8
0
  6
Continuous
 62
     7
370
    25
100
AcDbLine
 10
14.4725541894
 20
3.5894612274
 30
0.0
 11
14.4725541894
 21
3.7144612274
 31
0.0
  0
LINE
  5
219
330
1F
100
AcDbEntity
  8
0
  6
Continuous
 62
     7
370
    25
100
AcDbLine
 10
13.143814032
 20
4.5048155581
 30
0.0
 11
13.143814032
 21
4.3798155581
 31
0.0
  0
LINE
  5
21A
330
1F
100
AcDbEntity
  8
0
  6
Continuous
 62
     7
370
    25
100
AcDbLine
 10
14.4725541894
 20
4.3798155581
 30
0.0
 11
14.4725541894
 21
4.5048155581
 31
0.0
  0
LINE
  5
21B
330
1F
100
AcDbEntity
  8
0
  6
Continuous
 62
     7
370
    25
100
AcDbLine
 10
13.143814032
 20
3.5894612274
 30
0.0
 11
13.143814032
 21
3.5582112274
 31
0.0
  0
LINE
  5
21C
330
1F
100
AcDbEntity
  8
0
  6
Continuous
 62
     7
370
    25
100
AcDbLine
 10
14.4725541894
 20
3.5582112274
 30
0.0
 11
14.4725541894
 21
3.5894612274
 31
0.0
  0
LINE
  5
21D
330
1F
100
AcDbEntity
  8
0
  6
Continuous
 62
     7
370
    25
100
AcDbLine
 10
13.143814032
 20
4.5360655581
 30
0.0
 11
13.143814032
 21
4.5048155581
 31
0.0
  0
LINE
  5
21E
330
1F
100
AcDbEntity
  8
0
  6
Continuous
 62
     7
370
    25
100
AcDbLine
 10
14.4725541894
 20
4.5048155581
 30
0.0
 11
14.4725541894
 21
4.5360655581
 31
0.0
  0
LINE
  5
21F
330
1F
100
AcDbEntity
  8
0
  6
Continuous
 62
     7
370
    25
100
AcDbLine
 10
13.6182599682
 20
3.7144612274
 30
0.0
 11
13.6182599682
 21
3.5894612274
 31
0.0
  0
LINE
  5
220
330
1F
100
AcDbEntity
  8
0
  6
Continuous
 62
     7
370
    25
100
AcDbLine
 10
13.2372168832
 20
3.7144612274
 30
0.0
 11
13.2372168832
 21
3.5894612274
 31
0.0
  0
LINE
  5
221
330
1F
100
AcDbEntity
  8
0
  6
Continuous
 62
     7
370
    25
100
AcDbLine
 10
13.6182599682
 20
3.7144612274
 30
0.0
 11
13.2372168832
 21
3.7144612274
 31
0.0
  0
LINE
  5
222
330
1F
100
AcDbEntity
  8
0
  6
Continuous
 62
     7
370
    25
100
AcDbLine
 10
13.6182599682
 20
3.5894612274
 30
0.0
 11
13.2372168832
 21
3.5894612274
 31
0.0
  0
LINE
  5
223
330
1F
100
AcDbEntity
  8
0
  6
Continuous
 62
     7
370
    25
100
AcDbLine
 10
13.199885777
 20
3.5894612274
 30
0.0
 11
13.199885777
 21
3.7144612274
 31
0.0
  0
LINE
  5
224
330
1F
100
AcDbEntity
  8
0
  6
Continuous
 62
     7
370
    25
100
AcDbLine
 10
13.199885777
 20
3.7144612274
 30
0.0
 11
13.2372168832
 21
3.7144612274
 31
0.0
  0
LINE
  5
225
330
1F
100
AcDbEntity
  8
0
  6
Continuous
 62
     7
370
    25
100
AcDbLine
 10
13.2372168832
 20
3.5894612274
 30
0.0
 11
13.199885777
 21
3.5894612274
 31
0.0
  0
LINE
  5
226
330
1F
100
AcDbEntity
  8
0
  6
Continuous
 62
     7
370
    25
100
AcDbLine
 10
13.9926410766
 20
3.5894612274
 30
0.0
 11
13.9926410766
 21
3.7144612274
 31
0.0
  0
LINE
  5
227
330
1F
100
AcDbEntity
  8
0
  6
Continuous
 62
     7
370
    25
100
AcDbLine
 10
13.9926410766
 20
3.7144612274
 30
0.0
 11
13.6182599682
 21
3.7144612274
 31
0.0
  0
LINE
  5
228
330
1F
100
AcDbEntity
  8
0
  6
Continuous
 62
     7
370
    25
100
AcDbLine
 10
13.9926410766
 20
3.5894612274
 30
0.0
 11
13.6182599682
 21
3.5894612274
 31
0.0
  0
LINE
  5
229
330
1F
100
AcDbEntity
  8
0
  6
Continuous
 62
     7
370
    25
100
AcDbLine
 10
13.199885777
 20
3.7144612274
 30
0.0
 11
13.143814032
 21
3.7144612274
 31
0.0
  0
LINE
  5
22A
330
1F
100
AcDbEntity
  8
0
  6
Continuous
 62
     7
370
    25
100
AcDbLine
 10
13.199885777
 20
3.5894612274
 30
0.0
 11
13.143814032
 21
3.5894612274
 31
0.0
  0
LINE
  5
22B
330
1F
100
AcDbEntity
  8
0
  6
Continuous
 62
     7
370
    25
100
AcDbLine
 10
14.0418673286
 20
3.7144612274
 30
0.0
 11
14.0418673286
 21
3.5894612274
 31
0.0
  0
LINE
  5
22C
330
1F
100
AcDbEntity
  8
0
  6
Continuous
 62
     7
370
    25
100
AcDbLine
 10
14.4725541894
 20
3.7144612274
 30
0.0
 11
14.0418673286
 21
3.7144612274
 31
0.0
  0
LINE
  5
22D
330
1F
100
AcDbEntity
  8
0
  6
Continuous
 62
     7
370
    25
100
AcDbLine
 10
14.4725541894
 20
3.5894612274
 30
0.0
 11
14.0418673286
 21
3.5894612274
 31
0.0
  0
LINE
  5
22E
330
1F
100
AcDbEntity
  8
0
  6
Continuous
 62
     7
370
    25
100
AcDbLine
 10
13.9926410766
 20
3.7144612274
 30
0.0
 11
14.0418673286
 21
3.7144612274
 31
0.0
  0
LINE
  5
22F
330
1F
100
AcDbEntity
  8
0
  6
Continuous
 62
     7
370
    25
100
AcDbLine
 10
14.0418673286
 20
3.5894612274
 30
0.0
 11
13.9926410766
 21
3.5894612274
 31
0.0
  0
LINE
  5
230
330
1F
100
AcDbEntity
  8
0
  6
Continuous
 62
     7
370
    25
100
AcDbLine
 10
13.6182599682
 20
4.5048155581
 30
0.0
 11
13.6182599682
 21
4.3798155581
 31
0.0
  0
LINE
  5
231
330
1F
100
AcDbEntity
  8
0
  6
Continuous
 62
     7
370
    25
100
AcDbLine
 10
13.2372168832
 20
4.5048155581
 30
0.0
 11
13.2372168832
 21
4.3798155581
 31
0.0
  0
LINE
  5
232
330
1F
100
AcDbEntity
  8
0
  6
Continuous
 62
     7
370
    25
100
AcDbLine
 10
13.6182599682
 20
4.3798155581
 30
0.0
 11
13.2372168832
 21
4.3798155581
 31
0.0
  0
LINE
  5
233
330
1F
100
AcDbEntity
  8
0
  6
Continuous
 62
     7
370
    25
100
AcDbLine
 10
13.6182599682
 20
4.5048155581
 30
0.0
 11
13.2372168832
 21
4.5048155581
 31
0.0
  0
LINE
  5
234
330
1F
100
AcDbEntity
  8
0
  6
Continuous
 62
     7
370
    25
100
AcDbLine
 10
13.199885777
 20
4.3798155581
 30
0.0
 11
13.199885777
 21
4.5048155581
 31
0.0
  0
LINE
  5
235
330
1F
100
AcDbEntity
  8
0
  6
Continuous
 62
     7
370
    25
100
AcDbLine
 10
13.2372168832
 20
4.3798155581
 30
0.0
 11
13.199885777
 21
4.3798155581
 31
0.0
  0
LINE
  5
236
330
1F
100
AcDbEntity
  8
0
  6
Continuous
 62
     7
370
    25
100
AcDbLine
 10
13.199885777
 20
4.5048155581
 30
0.0
 11
13.2372168832
 21
4.5048155581
 31
0.0
  0
LINE
  5
237
330
1F
100
AcDbEntity
  8
0
  6
Continuous
 62
     7
370
    25
100
AcDbLine
 10
13.9926410766
 20
4.3798155581
 30
0.0
 11
13.9926410766
 21
4.5048155581
 31
0.0
  0
LINE
  5
238
330
1F
100
AcDbEntity
  8
0
  6
Continuous
 62
     7
370
    25
100
AcDbLine
 10
13.9926410766
 20
4.3798155581
 30
0.0
 11
13.6182599682
 21
4.3798155581
 31
0.0
  0
LINE
  5
239
330
1F
100
AcDbEntity
  8
0
  6
Continuous
 62
     7
370
    25
100
AcDbLine
 10
13.9926410766
 20
4.5048155581
 30
0.0
 11
13.6182599682
 21
4.5048155581
 31
0.0
  0
LINE
  5
23A
330
1F
100
AcDbEntity
  8
0
  6
Continuous
 62
     7
370
    25
100
AcDbLine
 10
13.199885777
 20
4.3798155581
 30
0.0
 11
13.143814032
 21
4.3798155581
 31
0.0
  0
LINE
  5
23B
330
1F
100
AcDbEntity
  8
0
  6
Continuous
 62
     7
370
    25
100
AcDbLine
 10
13.199885777
 20
4.5048155581
 30
0.0
 11
13.143814032
 21
4.5048155581
 31
0.0
  0
LINE
  5
23C
330
1F
100
AcDbEntity
  8
0
  6
Continuous
 62
     7
370
    25
100
AcDbLine
 10
14.0418673286
 20
4.5048155581
 30
0.0
 11
14.0418673286
 21
4.3798155581
 31
0.0
  0
LINE
  5
23D
330
1F
100
AcDbEntity
  8
0
  6
Continuous
 62
     7
370
    25
100
AcDbLine
 10
14.4725541894
 20
4.3798155581
 30
0.0
 11
14.0418673286
 21
4.3798155581
 31
0.0
  0
LINE
  5
23E
330
1F
100
AcDbEntity
  8
0
  6
Continuous
 62
     7
370
    25
100
AcDbLine
 10
14.4725541894
 20
4.5048155581
 30
0.0
 11
14.0418673286
 21
4.5048155581
 31
0.0
  0
LINE
  5
23F
330
1F
100
AcDbEntity
  8
0
  6
Continuous
 62
     7
370
    25
100
AcDbLine
 10
14.0418673286
 20
4.3798155581
 30
0.0
 11
13.9926410766
 21
4.3798155581
 31
0.0
  0
LINE
  5
240
330
1F
100
AcDbEntity
  8
0
  6
Continuous
 62
     7
370
    25
100
AcDbLine
 10
13.9926410766
 20
4.5048155581
 30
0.0
 11
14.0418673286
 21
4.5048155581
 31
0.0
  0
LINE
  5
241
330
1F
100
AcDbEntity
  8
0
  6
Continuous
 62
     7
370
    25
100
AcDbLine
 10
13.6182599682
 20
3.5894612274
 30
0.0
 11
13.6182599682
 21
3.5582112274
 31
0.0
  0
LINE
  5
242
330
1F
100
AcDbEntity
  8
0
  6
Continuous
 62
     7
370
    25
100
AcDbLine
 10
13.9926410766
 20
3.5582112274
 30
0.0
 11
13.9926410766
 21
3.5894612274
 31
0.0
  0
LINE
  5
243
330
1F
100
AcDbEntity
  8
0
  6
Continuous
 62
     7
370
    25
100
AcDbLine
 10
13.9926410766
 20
3.5582112274
 30
0.0
 11
13.6182599682
 21
3.5582112274
 31
0.0
  0
LINE
  5
244
330
1F
100
AcDbEntity
  8
0
  6
Continuous
 62
     7
370
    25
100
AcDbLine
 10
13.2372168832
 20
3.5894612274
 30
0.0
 11
13.2372168832
 21
3.5582112274
 31
0.0
  0
LINE
  5
245
330
1F
100
AcDbEntity
  8
0
  6
Continuous
 62
     7
370
    25
100
AcDbLine
 10
13.6182599682
 20
3.5582112274
 30
0.0
 11
13.2372168832
 21
3.5582112274
 31
0.0
  0
LINE
  5
246
330
1F
100
AcDbEntity
  8
0
  6
Continuous
 62
     7
370
    25
100
AcDbLine
 10
13.199885777
 20
3.5582112274
 30
0.0
 11
13.199885777
 21
3.5894612274
 31
0.0
  0
LINE
  5
247
330
1F
100
AcDbEntity
  8
0
  6
Continuous
 62
     7
370
    25
100
AcDbLine
 10
13.2372168832
 20
3.5582112274
 30
0.0
 11
13.199885777
 21
3.5582112274
 31
0.0
  0
LINE
  5
248
330
1F
100
AcDbEntity
  8
0
  6
Continuous
 62
     7
370
    25
100
AcDbLine
 10
13.199885777
 20
3.5582112274
 30
0.0
 11
13.143814032
 21
3.5582112274
 31
0.0
  0
LINE
  5
249
330
1F
100
AcDbEntity
  8
0
  6
Continuous
 62
     7
370
    25
100
AcDbLine
 10
14.0418673286
 20
3.5894612274
 30
0.0
 11
14.0418673286
 21
3.5582112274
 31
0.0
  0
LINE
  5
24A
330
1F
100
AcDbEntity
  8
0
  6
Continuous
 62
     7
370
    25
100
AcDbLine
 10
14.4725541894
 20
3.5582112274
 30
0.0
 11
14.0418673286
 21
3.5582112274
 31
0.0
  0
LINE
  5
24B
330
1F
100
AcDbEntity
  8
0
  6
Continuous
 62
     7
370
    25
100
AcDbLine
 10
14.0418673286
 20
3.5582112274
 30
0.0
 11
13.9926410766
 21
3.5582112274
 31
0.0
  0
LINE
  5
24C
330
1F
100
AcDbEntity
  8
0
  6
Continuous
 62
     7
370
    25
100
AcDbLine
 10
14.5112446647
 20
3.5894612274
 30
0.0
 11
14.5112446647
 21
3.5582112274
 31
0.0
  0
LINE
  5
24D
330
1F
100
AcDbEntity
  8
0
  6
Continuous
 62
     7
370
    25
100
AcDbLine
 10
14.4725541894
 20
3.5894612274
 30
0.0
 11
14.5112446647
 21
3.5894612274
 31
0.0
  0
LINE
  5
24E
330
1F
100
AcDbEntity
  8
0
  6
Continuous
 62
     7
370
    25
100
AcDbLine
 10
14.5112446647
 20
3.5582112274
 30
0.0
 11
14.4725541894
 21
3.5582112274
 31
0.0
  0
LINE
  5
24F
330
1F
100
AcDbEntity
  8
0
  6
Continuous
 62
     7
370
    25
100
AcDbLine
 10
20.1241289926
 20
3.5894612274
 30
0.0
 11
20.1241289926
 21
3.5582112274
 31
0.0
  0
LINE
  5
250
330
1F
100
AcDbEntity
  8
0
  6
Continuous
 62
     7
370
    25
100
AcDbLine
 10
20.1241289926
 20
3.5894612274
 30
0.0
 11
14.5112446647
 21
3.5894612274
 31
0.0
  0
LINE
  5
251
330
1F
100
AcDbEntity
  8
0
  6
Continuous
 62
     7
370
    25
100
AcDbLine
 10
20.1241289926
 20
3.5582112274
 30
0.0
 11
14.5112446647
 21
3.5582112274
 31
0.0
  0
LINE
  5
252
330
1F
100
AcDbEntity
  8
0
  6
Continuous
 62
     7
370
    25
100
AcDbLine
 10
20.8038528696
 20
3.5894612274
 30
0.0
 11
20.8038528696
 21
3.5582112274
 31
0.0
  0
LINE
  5
253
330
1F
100
AcDbEntity
  8
0
  6
Continuous
 62
     7
370
    25
100
AcDbLine
 10
20.4762412294
 20
3.5894612274
 30
0.0
 11
20.4762412294
 21
3.5582112274
 31
0.0
  0
LINE
  5
254
330
1F
100
AcDbEntity
  8
0
  6
Continuous
 62
     7
370
    25
100
AcDbLine
 10
20.8038528696
 20
3.5894612274
 30
0.0
 11
20.4762412294
 21
3.5894612274
 31
0.0
  0
LINE
  5
255
330
1F
100
AcDbEntity
  8
0
  6
Continuous
 62
     7
370
    25
100
AcDbLine
 10
20.8038528696
 20
3.5582112274
 30
0.0
 11
20.4762412294
 21
3.5582112274
 31
0.0
  0
LINE
  5
256
330
1F
100
AcDbEntity
  8
0
  6
Continuous
 62
     7
370
    25
100
AcDbLine
 10
20.4762412294
 20
3.5894612274
 30
0.0
 11
20.1241289926
 21
3.5894612274
 31
0.0
  0
LINE
  5
257
330
1F
100
AcDbEntity
  8
0
  6
Continuous
 62
     7
370
    25
100
AcDbLine
 10
20.4762412294
 20
3.5582112274
 30
0.0
 11
20.1241289926
 21
3.5582112274
 31
0.0
  0
LINE
  5
258
330
1F
100
AcDbEntity
  8
0
  6
Continuous
 62
     7
370
    25
100
AcDbLine
 10
13.6182599682
 20
4.5360655581
 30
0.0
 11
13.6182599682
 21
4.5048155581
 31
0.0
  0
LINE
  5
259
330
1F
100
AcDbEntity
  8
0
  6
Continuous
 62
     7
370
    25
100
AcDbLine
 10
13.9926410766
 20
4.5048155581
 30
0.0
 11
13.9926410766
 21
4.5360655581
 31
0.0
  0
LINE
  5
25A
330
1F
100
AcDbEntity
  8
0
  6
Continuous
 62
     7
370
    25
100
AcDbLine
 10
13.9926410766
 20
4.5360655581
 30
0.0
 11
13.6182599682
 21
4.5360655581
 31
0.0
  0
LINE
  5
25B
330
1F
100
AcDbEntity
  8
0
  6
Continuous
 62
     7
370
    25
100
AcDbLine
 10
13.2372168832
 20
4.5360655581
 30
0.0
 11
13.2372168832
 21
4.5048155581
 31
0.0
  0
LINE
  5
25C
330
1F
100
AcDbEntity
  8
0
  6
Continuous
 62
     7
370
    25
100
AcDbLine
 10
13.6182599682
 20
4.5360655581
 30
0.0
 11
13.2372168832
 21
4.5360655581
 31
0.0
  0
LINE
  5
25D
330
1F
100
AcDbEntity
  8
0
  6
Continuous
 62
     7
370
    25
100
AcDbLine
 10
13.199885777
 20
4.5048155581
 30
0.0
 11
13.199885777
 21
4.5360655581
 31
0.0
  0
LINE
  5
25E
330
1F
100
AcDbEntity
  8
0
  6
Continuous
 62
     7
370
    25
100
AcDbLine
 10
13.199885777
 20
4.5360655581
 30
0.0
 11
13.2372168832
 21
4.5360655581
 31
0.0
  0
LINE
  5
25F
330
1F
100
AcDbEntity
  8
0
  6
Continuous
 62
     7
370
    25
100
AcDbLine
 10
13.199885777
 20
4.5360655581
 30
0.0
 11
13.143814032
 21
4.5360655581
 31
0.0
  0
LINE
  5
260
330
1F
100
AcDbEntity
  8
0
  6
Continuous
 62
     7
370
    25
100
AcDbLine
 10
14.0418673286
 20
4.5360655581
 30
0.0
 11
14.0418673286
 21
4.5048155581
 31
0.0
  0
LINE
  5
261
330
1F
100
AcDbEntity
  8
0
  6
Continuous
 62
     7
370
    25
100
AcDbLine
 10
14.4725541894
 20
4.5360655581
 30
0.0
 11
14.0418673286
 21
4.5360655581
 31
0.0
  0
LINE
  5
262
330
1F
100
AcDbEntity
  8
0
  6
Continuous
 62
     7
370
    25
100
AcDbLine
 10
13.9926410766
 20
4.5360655581
 30
0.0
 11
14.0418673286
 21
4.5360655581
 31
0.0
  0
LINE
  5
263
330
1F
100
AcDbEntity
  8
0
  6
Continuous
 62
     7
370
    25
100
AcDbLine
 10
14.5112446647
 20
4.5360655581
 30
0.0
 11
14.5112446647
 21
4.5048155581
 31
0.0
  0
LINE
  5
264
330
1F
100
AcDbEntity
  8
0
  6
Continuous
 62
     7
370
    25
100
AcDbLine
 10
14.4725541894
 20
4.5360655581
 30
0.0
 11
14.5112446647
 21
4.5360655581
 31
0.0
  0
LINE
  5
265
330
1F
100
AcDbEntity
  8
0
  6
Continuous
 62
     7
370
    25
100
AcDbLine
 10
14.5112446647
 20
4.5048155581
 30
0.0
 11
14.4725541894
 21
4.5048155581
 31
0.0
  0
LINE
  5
266
330
1F
100
AcDbEntity
  8
0
  6
Continuous
 62
     7
370
    25
100
AcDbLine
 10
20.1241289926
 20
4.5360655581
 30
0.0
 11
20.1241289926
 21
4.5048155581
 31
0.0
  0
LINE
  5
267
330
1F
100
AcDbEntity
  8
0
  6
Continuous
 62
     7
370
    25
100
AcDbLine
 10
20.1241289926
 20
4.5360655581
 30
0.0
 11
14.5112446647
 21
4.5360655581
 31
0.0
  0
LINE
  5
268
330
1F
100
AcDbEntity
  8
0
  6
Continuous
 62
     7
370
    25
100
AcDbLine
 10
20.1241289926
 20
4.5048155581
 30
0.0
 11
14.5112446647
 21
4.5048155581
 31
0.0
  0
LINE
  5
269
330
1F
100
AcDbEntity
  8
0
  6
Continuous
 62
     7
370
    25
100
AcDbLine
 10
20.8038528696
 20
4.5360655581
 30
0.0
 11
20.8038528696
 21
4.5048155581
 31
0.0
  0
LINE
  5
26A
330
1F
100
AcDbEntity
  8
0
  6
Continuous
 62
     7
370
    25
100
AcDbLine
 10
20.4762412294
 20
4.5360655581
 30
0.0
 11
20.4762412294
 21
4.5048155581
 31
0.0
  0
LINE
  5
26B
330
1F
100
AcDbEntity
  8
0
  6
Continuous
 62
     7
370
    25
100
AcDbLine
 10
20.8038528696
 20
4.5360655581
 30
0.0
 11
20.4762412294
 21
4.5360655581
 31
0.0
  0
LINE
  5
26C
330
1F
100
AcDbEntity
  8
0
  6
Continuous
 62
     7
370
    25
100
AcDbLine
 10
20.8038528696
 20
4.5048155581
 30
0.0
 11
20.4762412294
 21
4.5048155581
 31
0.0
  0
LINE
  5
26D
330
1F
100
AcDbEntity
  8
0
  6
Continuous
 62
     7
370
    25
100
AcDbLine
 10
20.4762412294
 20
4.5360655581
 30
0.0
 11
20.1241289926
 21
4.5360655581
 31
0.0
  0
LINE
  5
26E
330
1F
100
AcDbEntity
  8
0
  6
Continuous
 62
     7
370
    25
100
AcDbLine
 10
20.4762412294
 20
4.5048155581
 30
0.0
 11
20.1241289926
 21
4.5048155581
 31
0.0
  0
LINE
  5
26F
330
1F
100
AcDbEntity
  8
0
  6
Continuous
 62
     7
370
    25
100
AcDbLine
 10
19.9306771083
 20
3.6189887864
 30
0.0
 11
19.9306771083
 21
3.5894612274
 31
0.0
  0
LINE
  5
270
330
1F
100
AcDbEntity
  8
0
  6
Continuous
 62
     7
370
    25
100
AcDbLine
 10
14.4725541894
 20
3.6189887864
 30
0.0
 11
19.9306771083
 21
3.6189887864
 31
0.0
  0
LINE
  5
271
330
1F
100
AcDbEntity
  8
0
  6
Continuous
 62
     7
370
    25
100
AcDbLine
 10
14.4725541894
 20
4.475287999
 30
0.0
 11
19.9306771083
 21
4.475287999
 31
0.0
  0
LINE
  5
272
330
1F
100
AcDbEntity
  8
0
  6
Continuous
 62
     7
370
    25
100
AcDbLine
 10
19.9306771083
 20
4.475287999
 30
0.0
 11
19.9306771083
 21
4.5048155581
 31
0.0
  0
LINE
  5
273
330
1F
100
AcDbEntity
  8
0
  6
Continuous
 62
     7
370
    25
100
AcDbLine
 10
19.9306771083
 20
3.6386738258
 30
0.0
 11
19.9306771083
 21
3.6189887864
 31
0.0
  0
LINE
  5
274
330
1F
100
AcDbEntity
  8
0
  6
Continuous
 62
     7
370
    25
100
AcDbLine
 10
19.9306771083
 20
4.475287999
 30
0.0
 11
19.9306771083
 21
4.4556029596
 31
0.0
  0
LINE
  5
275
330
1F
100
AcDbEntity
  8
0
  6
Continuous
 62
     7
370
    25
100
AcDbLine
 10
14.22654325
 20
4.3798155581
 30
0.0
 11
14.22654325
 21
3.7144612274
 31
0.0
  0
LINE
  5
276
330
1F
100
AcDbEntity
  8
0
  6
Continuous
 62
     7
370
    25
100
AcDbLine
 10
19.9306771083
 20
4.4556029596
 30
0.0
 11
19.9306771083
 21
3.6386738258
 31
0.0
  0
LINE
  5
277
330
1F
100
AcDbEntity
  8
0
  6
Continuous
 62
     8
370
    25
100
AcDbLine
 10
14.4725541894
 20
3.6386738258
 30
0.0
 11
19.9306771083
 21
3.6386738258
 31
0.0
  0
LINE
  5
278
330
1F
100
AcDbEntity
  8
0
  6
Continuous
 62
     8
370
    25
100
AcDbLine
 10
19.9306771083
 20
4.4556029596
 30
0.0
 11
14.4725541894
 21
4.4556029596
 31
0.0
  0
ENDSEC
  0
SECTION
  2
OBJECTS
  0
DICTIONARY
  5
C
330
0
100
AcDbDictionary
281
     1
  3
ACAD_GROUP
350
D
  3
ACAD_LAYOUT
350
1A
  3
ACAD_MLINESTYLE
350
17
  3
ACAD_PLOTSETTINGS
350
19
  3
ACAD_PLOTSTYLENAME
350
E
  3
ACAD_SCALELIST
350
47
  0
DICTIONARY
  5
D
102
{ACAD_REACTORS
330
C
102
}
330
C
100
AcDbDictionary
281
     1
  0
DICTIONARY
  5
1A
102
{ACAD_REACTORS
330
C
102
}
330
C
100
AcDbDictionary
281
     1
  3
Layout1
350
1E
  3
Layout2
350
26
  3
Model
350
22
  0
DICTIONARY
  5
17
102
{ACAD_REACTORS
330
C
102
}
330
C
100
AcDbDictionary
281
     1
  3
Standard
350
18
  0
DICTIONARY
  5
19
102
{ACAD_REACTORS
330
C
102
}
330
C
100
AcDbDictionary
281
     1
  0
ACDBDICTIONARYWDFLT
  5
E
102
{ACAD_REACTORS
330
C
102
}
330
C
100
AcDbDictionary
281
     1
  3
Normal
350
F
100
AcDbDictionaryWithDefault
340
F
  0
DICTIONARY
  5
47
102
{ACAD_REACTORS
330
C
102
}
330
C
100
AcDbDictionary
281
     1
  3
A0
350
48
  3
A1
350
49
  3
A2
350
4A
  3
A3
350
4B
  3
A4
350
4C
  3
A5
350
4D
  3
A6
350
4E
  3
A7
350
4F
  3
A8
350
50
  3
A9
350
51
  3
B0
350
52
  3
B1
350
53
  3
B2
350
54
  3
B3
350
55
  3
B4
350
56
  3
B5
350
57
  3
B6
350
58
  3
B7
350
59
  3
B8
350
5A
  3
B9
350
5B
  3
C0
350
5C
  3
C1
350
5D
  3
C2
350
5E
  3
C3
350
5F
  3
C4
350
60
  3
C5
350
61
  3
C6
350
62
  3
C7
350
63
  3
C8
350
64
  3
C9
350
65
  3
D0
350
66
  3
D1
350
67
  3
D2
350
68
  0
LAYOUT
  5
1E
102
{ACAD_REACTORS
330
1A
102
}
330
1A
100
AcDbPlotSettings
  1

  2
none_device
  4

  6

 40
0.0
 41
0.0
 42
0.0
 43
0.0
 44
0.0
 45
0.0
 46
0.0
 47
0.0
 48
0.0
 49
0.0
140
0.0
141
0.0
142
1.0
143
1.0
 70
   688
 72
     0
 73
     0
 74
     5
  7

 75
    16
147
1.0
148
0.0
149
0.0
100
AcDbLayout
  1
Layout1
 70
     1
 71
     1
 10
0.0
 20
0.0
 11
12.0
 21
9.0
 12
0.0
 22
0.0
 32
0.0
 14
1.0000000000E+20
 24
1.0000000000E+20
 34
1.0000000000E+20
 15
-1.0000000000E+20
 25
-1.0000000000E+20
 35
-1.0000000000E+20
146
0.0
 13
0.0
 23
0.0
 33
0.0
 16
1.0
 26
0.0
 36
0.0
 17
0.0
 27
1.0
 37
0.0
 76
     0
330
1B
  0
LAYOUT
  5
26
102
{ACAD_REACTORS
330
1A
102
}
330
1A
100
AcDbPlotSettings
  1

  2
none_device
  4

  6

 40
0.0
 41
0.0
 42
0.0
 43
0.0
 44
0.0
 45
0.0
 46
0.0
 47
0.0
 48
0.0
 49
0.0
140
0.0
141
0.0
142
1.0
143
1.0
 70
   688
 72
     0
 73
     0
 74
     5
  7

 75
    16
147
1.0
148
0.0
149
0.0
100
AcDbLayout
  1
Layout2
 70
     1
 71
     2
 10
0.0
 20
0.0
 11
0.0
 21
0.0
 12
0.0
 22
0.0
 32
0.0
 14
0.0
 24
0.0
 34
0.0
 15
0.0
 25
0.0
 35
0.0
146
0.0
 13
0.0
 23
0.0
 33
0.0
 16
1.0
 26
0.0
 36
0.0
 17
0.0
 27
1.0
 37
0.0
 76
     0
330
23
  0
LAYOUT
  5
22
102
{ACAD_REACTORS
330
1A
102
}
330
1A
100
AcDbPlotSettings
  1

  2
none_device
  4
Letter_(8.50_x_11.00_Inches)
  6

 40
6.35
 41
6.35
 42
6.35000508
 43
6.35000508
 44
215.9
 45
279.4
 46
0.0
 47
0.0
 48
0.0
 49
0.0
140
0.0
141
0.0
142
1.0
143
1.0
 70
  1712
 72
     0
 73
     0
 74
     0
  7

 75
     0
147
1.0
148
0.0
149
0.0
100
AcDbLayout
  1
Model
 70
     1
 71
     0
 10
0.0
 20
0.0
 11
23.3858267717
 21
16.5354330709
 12
0.0
 22
0.0
 32
0.0
 14
0.0
 24
0.0
 34
0.0
 15
23.3858267717
 25
16.5354330709
 35
0.0
146
0.0
 13
0.0
 23
0.0
 33
0.0
 16
1.0
 26
0.0
 36
0.0
 17
0.0
 27
1.0
 37
0.0
 76
     0
330
1F
331
29
  0
MLINESTYLE
  5
18
102
{ACAD_REACTORS
330
17
102
}
330
17
100
AcDbMlineStyle
  2
Standard
 70
     0
  3

 62
   256
 51
90.0
 52
90.0
 71
     2
 49
0.5
 62
   256
  6
BYLAYER
 49
-0.5
 62
   256
  6
BYLAYER
  0
ACDBPLACEHOLDER
  5
F
102
{ACAD_REACTORS
330
E
102
}
330
E
  0
SCALE
  5
48
102
{ACAD_REACTORS
330
47
102
}
330
47
100
AcDbScale
 70
     0
300
1:1
140
1.0
141
1.0
290
     1
  0
SCALE
  5
49
102
{ACAD_REACTORS
330
47
102
}
330
47
100
AcDbScale
 70
     0
300
1:2
140
1.0
141
2.0
290
     0
  0
SCALE
  5
4A
102
{ACAD_REACTORS
330
47
102
}
330
47
100
AcDbScale
 70
     0
300
1:4
140
1.0
141
4.0
290
     0
  0
SCALE
  5
4B
102
{ACAD_REACTORS
330
47
102
}
330
47
100
AcDbScale
 70
     0
300
1:5
140
1.0
141
5.0
290
     0
  0
SCALE
  5
4C
102
{ACAD_REACTORS
330
47
102
}
330
47
100
AcDbScale
 70
     0
300
1:8
140
1.0
141
8.0
290
     0
  0
SCALE
  5
4D
102
{ACAD_REACTORS
330
47
102
}
330
47
100
AcDbScale
 70
     0
300
1:10
140
1.0
141
10.0
290
     0
  0
SCALE
  5
4E
102
{ACAD_REACTORS
330
47
102
}
330
47
100
AcDbScale
 70
     0
300
1:16
140
1.0
141
16.0
290
     0
  0
SCALE
  5
4F
102
{ACAD_REACTORS
330
47
102
}
330
47
100
AcDbScale
 70
     0
300
1:20
140
1.0
141
20.0
290
     0
  0
SCALE
  5
50
102
{ACAD_REACTORS
330
47
102
}
330
47
100
AcDbScale
 70
     0
300
1:30
140
1.0
141
30.0
290
     0
  0
SCALE
  5
51
102
{ACAD_REACTORS
330
47
102
}
330
47
100
AcDbScale
 70
     0
300
1:40
140
1.0
141
40.0
290
     0
  0
SCALE
  5
52
102
{ACAD_REACTORS
330
47
102
}
330
47
100
AcDbScale
 70
     0
300
1:50
140
1.0
141
50.0
290
     0
  0
SCALE
  5
53
102
{ACAD_REACTORS
330
47
102
}
330
47
100
AcDbScale
 70
     0
300
1:100
140
1.0
141
100.0
290
     0
  0
SCALE
  5
54
102
{ACAD_REACTORS
330
47
102
}
330
47
100
AcDbScale
 70
     0
300
2:1
140
2.0
141
1.0
290
     0
  0
SCALE
  5
55
102
{ACAD_REACTORS
330
47
102
}
330
47
100
AcDbScale
 70
     0
300
4:1
140
4.0
141
1.0
290
     0
  0
SCALE
  5
56
102
{ACAD_REACTORS
330
47
102
}
330
47
100
AcDbScale
 70
     0
300
8:1
140
8.0
141
1.0
290
     0
  0
SCALE
  5
57
102
{ACAD_REACTORS
330
47
102
}
330
47
100
AcDbScale
 70
     0
300
10:1
140
10.0
141
1.0
290
     0
  0
SCALE
  5
58
102
{ACAD_REACTORS
330
47
102
}
330
47
100
AcDbScale
 70
     0
300
100:1
140
100.0
141
1.0
290
     0
  0
SCALE
  5
59
102
{ACAD_REACTORS
330
47
102
}
330
47
100
AcDbScale
 70
     0
300
1/128" = 1'-0"
140
0.0078125
141
12.0
290
     0
  0
SCALE
  5
5A
102
{ACAD_REACTORS
330
47
102
}
330
47
100
AcDbScale
 70
     0
300
1/64" = 1'-0"
140
0.015625
141
12.0
290
     0
  0
SCALE
  5
5B
102
{ACAD_REACTORS
330
47
102
}
330
47
100
AcDbScale
 70
     0
300
1/32" = 1'-0"
140
0.03125
141
12.0
290
     0
  0
SCALE
  5
5C
102
{ACAD_REACTORS
330
47
102
}
330
47
100
AcDbScale
 70
     0
300
1/16" = 1'-0"
140
0.0625
141
12.0
290
     0
  0
SCALE
  5
5D
102
{ACAD_REACTORS
330
47
102
}
330
47
100
AcDbScale
 70
     0
300
3/32" = 1'-0"
140
0.09375
141
12.0
290
     0
  0
SCALE
  5
5E
102
{ACAD_REACTORS
330
47
102
}
330
47
100
AcDbScale
 70
     0
300
1/8" = 1'-0"
140
0.125
141
12.0
290
     0
  0
SCALE
  5
5F
102
{ACAD_REACTORS
330
47
102
}
330
47
100
AcDbScale
 70
     0
300
3/16" = 1'-0"
140
0.1875
141
12.0
290
     0
  0
SCALE
  5
60
102
{ACAD_REACTORS
330
47
102
}
330
47
100
AcDbScale
 70
     0
300
1/4" = 1'-0"
140
0.25
141
12.0
290
     0
  0
SCALE
  5
61
102
{ACAD_REACTORS
330
47
102
}
330
47
100
AcDbScale
 70
     0
300
3/8" = 1'-0"
140
0.375
141
12.0
290
     0
  0
SCALE
  5
62
102
{ACAD_REACTORS
330
47
102
}
330
47
100
AcDbScale
 70
     0
300
1/2" = 1'-0"
140
0.5
141
12.0
290
     0
  0
SCALE
  5
63
102
{ACAD_REACTORS
330
47
102
}
330
47
100
AcDbScale
 70
     0
300
3/4" = 1'-0"
140
0.75
141
12.0
290
     0
  0
SCALE
  5
64
102
{ACAD_REACTORS
330
47
102
}
330
47
100
AcDbScale
 70
     0
300
1" = 1'-0"
140
1.0
141
12.0
290
     0
  0
SCALE
  5
65
102
{ACAD_REACTORS
330
47
102
}
330
47
100
AcDbScale
 70
     0
300
1-1/2" = 1'-0"
140
1.5
141
12.0
290
     0
  0
SCALE
  5
66
102
{ACAD_REACTORS
330
47
102
}
330
47
100
AcDbScale
 70
     0
300
3" = 1'-0"
140
3.0
141
12.0
290
     0
  0
SCALE
  5
67
102
{ACAD_REACTORS
330
47
102
}
330
47
100
AcDbScale
 70
     0
300
6" = 1'-0"
140
6.0
141
12.0
290
     0
  0
SCALE
  5
68
102
{ACAD_REACTORS
330
47
102
}
330
47
100
AcDbScale
 70
     0
300
1'-0" = 1'-0"
140
12.0
141
12.0
290
     0
  0
ENDSEC
  0
EOF
